<?xml version="1.0" standalone="yes"?>
<svg xmlns="http://www.w3.org/2000/svg" width="224" height="232">
<path style="fill:#d3d3d3; stroke:none;" d="M0 0L0 232L224 232L224 0L0 0z"/>
<path style="fill:#dadada; stroke:none;" d="M110 16L110 17L118 17L110 16M102 17L103 18L102 17z"/>
<path style="fill:#e7e7e7; stroke:none;" d="M103.667 17.3333L104.333 17.6667L103.667 17.3333z"/>
<path style="fill:#f2f2f2; stroke:none;" d="M105 17L106 18L105 17z"/>
<path style="fill:#ffffff; stroke:none;" d="M106 17.4282C81.81 20.8937 60.0772 36.538 51.6983 60C48.9971 67.5638 50.6758 79.3298 46.9722 85.8148C42.3911 93.8366 29.877 99.1053 23.8997 107C7.19495 129.063 6.62306 162.503 22.9267 185C38.4552 206.427 64.2168 216.061 90 211.715C97.6184 210.43 106.763 203.349 114 203.514C118.512 203.617 123.704 207.541 128 208.996C137.477 212.206 148.009 214.003 158 212.572C203.277 206.085 229.72 158.714 210.11 117C206.183 108.645 200.118 101.299 193 95.4645C189.359 92.4801 183.355 90.1095 181.028 85.8958C176.516 77.7263 178.088 64.3188 173.961 55C162.819 29.8443 133.363 13.5081 106 17.4282z"/>
<path style="fill:#f2f2f2; stroke:none;" d="M121.667 17.3333L122.333 17.6667L121.667 17.3333z"/>
<path style="fill:#e7e7e7; stroke:none;" d="M123 17L124 18L123 17z"/>
<path style="fill:#dadada; stroke:none;" d="M124 17L124 18L127 18L124 17z"/>
<path style="fill:#e7e7e7; stroke:none;" d="M98 18L99 19L98 18z"/>
<path style="fill:#f2f2f2; stroke:none;" d="M99 18L100 19L99 18M127 18L128 19L127 18z"/>
<path style="fill:#e7e7e7; stroke:none;" d="M128 18L129 19L128 18z"/>
<path style="fill:#dadada; stroke:none;" d="M129.667 18.3333L130.333 18.6667L129.667 18.3333z"/>
<path style="fill:#e7e7e7; stroke:none;" d="M94 19L95 20L94 19z"/>
<path style="fill:#f2f2f2; stroke:none;" d="M95 19L96 20L95 19M131 19L132 20L131 19z"/>
<path style="fill:#e7e7e7; stroke:none;" d="M132 19L133 20L132 19z"/>
<path style="fill:#dadada; stroke:none;" d="M133.667 19.3333L134.333 19.6667L133.667 19.3333z"/>
<path style="fill:#e7e7e7; stroke:none;" d="M91 20L92 21L91 20z"/>
<path style="fill:#f2f2f2; stroke:none;" d="M92 20L93 21L92 20M135 20L136 21L135 20z"/>
<path style="fill:#dadada; stroke:none;" d="M136 20L137 21L136 20M88 21L89 22L88 21z"/>
<path style="fill:#f2f2f2; stroke:none;" d="M89 21L90 22L89 21M137 21L138 22L137 21z"/>
<path style="fill:#e7e7e7; stroke:none;" d="M138 21L139 22L138 21z"/>
<path style="fill:#dadada; stroke:none;" d="M139 21L140 22L139 21M86 22L87 23L86 22z"/>
<path style="fill:#f2f2f2; stroke:none;" d="M87 22L88 23L87 22M140 22L141 23L140 22z"/>
<path style="fill:#dadada; stroke:none;" d="M141 22L142 23L141 22z"/>
<path style="fill:#e7e7e7; stroke:none;" d="M84 23L85 24L84 23z"/>
<path style="fill:#f2f2f2; stroke:none;" d="M85 23L86 24L85 23M142 23L143 24L142 23z"/>
<path style="fill:#dadada; stroke:none;" d="M143 23L144 24L143 23z"/>
<path style="fill:#e7e7e7; stroke:none;" d="M82 24L83 25L82 24z"/>
<path style="fill:#f2f2f2; stroke:none;" d="M103.667 24.3333L104.333 24.6667L103.667 24.3333z"/>
<path style="fill:#e7e7e7; stroke:none;" d="M105.667 24.3333L106.333 24.6667L105.667 24.3333z"/>
<path style="fill:#dadada; stroke:none;" d="M107 24L107 25L110 25L107 24z"/>
<path style="fill:#d3d3d3; stroke:none;" d="M55 83C67.4291 81.3263 78.3104 78.4328 91 81.0039C98.3403 82.4911 106.944 89.1575 114 89.216C120.626 89.271 128.386 83.2269 135 81.6543C148.11 78.537 160.078 80.3328 173 83C172.83 21.487 84.8493 1.84193 59.8758 59C56.5408 66.633 55.0229 74.705 55 83z"/>
<path style="fill:#dadada; stroke:none;" d="M119.667 24.3333L120.333 24.6667L119.667 24.3333z"/>
<path style="fill:#e7e7e7; stroke:none;" d="M121.667 24.3333L122.333 24.6667L121.667 24.3333z"/>
<path style="fill:#f2f2f2; stroke:none;" d="M123 24L124 25L123 24M144 24L145 25L144 24z"/>
<path style="fill:#dadada; stroke:none;" d="M145 24L146 25L145 24M80 25L81 26L80 25z"/>
<path style="fill:#f2f2f2; stroke:none;" d="M81 25L82 26L81 25M99 25L100 26L99 25z"/>
<path style="fill:#e7e7e7; stroke:none;" d="M100 25L101 26L100 25z"/>
<path style="fill:#dadada; stroke:none;" d="M101 25L102 26L101 25M126 25L127 26L126 25z"/>
<path style="fill:#e7e7e7; stroke:none;" d="M127 25L128 26L127 25z"/>
<path style="fill:#f2f2f2; stroke:none;" d="M128 25L129 26L128 25M146 25L147 26L146 25z"/>
<path style="fill:#dadada; stroke:none;" d="M147 25L148 26L147 25z"/>
<path style="fill:#f2f2f2; stroke:none;" d="M79 26L80 27L79 26M95 26L96 27L95 26z"/>
<path style="fill:#e7e7e7; stroke:none;" d="M96 26L97 27L96 26z"/>
<path style="fill:#dadada; stroke:none;" d="M97 26L98 27L97 26M130 26L131 27L130 26z"/>
<path style="fill:#e7e7e7; stroke:none;" d="M131 26L132 27L131 26M148 26L149 27L148 26z"/>
<path style="fill:#dadada; stroke:none;" d="M149 26L151 28L149 26z"/>
<path style="fill:#e7e7e7; stroke:none;" d="M77 27L78 28L77 27z"/>
<path style="fill:#f2f2f2; stroke:none;" d="M93 27L94 28L93 27z"/>
<path style="fill:#dadada; stroke:none;" d="M94 27L95 28L94 27M133 27L134 28L133 27z"/>
<path style="fill:#f2f2f2; stroke:none;" d="M134 27L135 28L134 27M149 27L150 28L149 27M76 28L77 29L76 28M90 28L91 29L90 28z"/>
<path style="fill:#dadada; stroke:none;" d="M91 28L92 29L91 28M136 28L137 29L136 28z"/>
<path style="fill:#f2f2f2; stroke:none;" d="M137 28L138 29L137 28z"/>
<path style="fill:#e7e7e7; stroke:none;" d="M151 28L152 29L151 28z"/>
<path style="fill:#dadada; stroke:none;" d="M152 28L154 30L152 28M74 29L75 30L74 29z"/>
<path style="fill:#f2f2f2; stroke:none;" d="M88 29L89 30L88 29z"/>
<path style="fill:#dadada; stroke:none;" d="M89 29L90 30L89 29M138 29L139 30L138 29z"/>
<path style="fill:#f2f2f2; stroke:none;" d="M139 29L140 30L139 29M152 29L153 30L152 29z"/>
<path style="fill:#e7e7e7; stroke:none;" d="M73 30L74 31L73 30z"/>
<path style="fill:#f2f2f2; stroke:none;" d="M86 30L87 31L86 30z"/>
<path style="fill:#dadada; stroke:none;" d="M87 30L88 31L87 30M140 30L141 31L140 30z"/>
<path style="fill:#f2f2f2; stroke:none;" d="M141 30L142 31L141 30z"/>
<path style="fill:#e7e7e7; stroke:none;" d="M154 30L155 31L154 30z"/>
<path style="fill:#dadada; stroke:none;" d="M71 31L70 33L71 31z"/>
<path style="fill:#f2f2f2; stroke:none;" d="M72 31L73 32L72 31M84 31L85 32L84 31z"/>
<path style="fill:#dadada; stroke:none;" d="M85 31L86 32L85 31M142 31L143 32L142 31z"/>
<path style="fill:#f2f2f2; stroke:none;" d="M143 31L144 32L143 31M155 31L157 33L155 31z"/>
<path style="fill:#dadada; stroke:none;" d="M156 31L157 32L156 31z"/>
<path style="fill:#f2f2f2; stroke:none;" d="M71 32L72 33L71 32z"/>
<path style="fill:#dadada; stroke:none;" d="M83 32L84 33L83 32M144 32L145 33L144 32M157 32L158 33L157 32M69 33L70 34L69 33z"/>
<path style="fill:#e7e7e7; stroke:none;" d="M81 33L82 34L81 33z"/>
<path style="fill:#f2f2f2; stroke:none;" d="M146 33L147 34L146 33z"/>
<path style="fill:#dadada; stroke:none;" d="M158 33L159 34L158 33M68 34L69 35L68 34M80 34L81 35L80 34M147 34L148 35L147 34M159 34L160 35L159 34M67 35L68 36L67 35z"/>
<path style="fill:#f2f2f2; stroke:none;" d="M78 35L79 36L78 35M149 35L150 36L149 35z"/>
<path style="fill:#dadada; stroke:none;" d="M160 35L161 36L160 35z"/>
<path style="fill:#e7e7e7; stroke:none;" d="M66 36L67 37L66 36z"/>
<path style="fill:#dadada; stroke:none;" d="M77 36L78 37L77 36z"/>
<path style="fill:#e7e7e7; stroke:none;" d="M150 36L151 37L150 36z"/>
<path style="fill:#dadada; stroke:none;" d="M161 36L162 37L161 36M65 37L66 38L65 37M76 37L77 38L76 37M151 37L152 38L151 37M162 37L163 38L162 37M64 38L65 39L64 38M152 38L153 39L152 38M163 38L164 39L163 38M63 39L64 40L63 39z"/>
<path style="fill:#f2f2f2; stroke:none;" d="M73 39L74 40L73 39z"/>
<path style="fill:#dadada; stroke:none;" d="M164 39L165 40L164 39M62 40L63 41L62 40z"/>
<path style="fill:#f2f2f2; stroke:none;" d="M72 40L73 41L72 40M155 40L156 41L155 40z"/>
<path style="fill:#dadada; stroke:none;" d="M165 40L166 41L165 40z"/>
<path style="fill:#f2f2f2; stroke:none;" d="M62 41L63 42L62 41M71 41L72 42L71 41M156 41L157 42L156 41z"/>
<path style="fill:#e7e7e7; stroke:none;" d="M165 41L166 42L165 41M61 42L62 43L61 42z"/>
<path style="fill:#f2f2f2; stroke:none;" d="M70 42L71 43L70 42z"/>
<path style="fill:#e7e7e7; stroke:none;" d="M166 42L167 43L166 42z"/>
<path style="fill:#dadada; stroke:none;" d="M60 43L61 44L60 43M167 43L168 44L167 43M59 44L60 45L59 44M158 44L159 45L158 44M168 44L169 45L168 44z"/>
<path style="fill:#f2f2f2; stroke:none;" d="M59 45L60 46L59 45z"/>
<path style="fill:#dadada; stroke:none;" d="M68 45L69 46L68 45M159 45L160 46L159 45z"/>
<path style="fill:#e7e7e7; stroke:none;" d="M168 45L169 46L168 45M58 46L59 47L58 46z"/>
<path style="fill:#dadada; stroke:none;" d="M67 46L68 47L67 46z"/>
<path style="fill:#e7e7e7; stroke:none;" d="M160 46L161 47L160 46M169 46L170 47L169 46z"/>
<path style="fill:#dadada; stroke:none;" d="M57 47L58 48L57 47z"/>
<path style="fill:#e7e7e7; stroke:none;" d="M66 47L67 48L66 47M161 47L162 48L161 47z"/>
<path style="fill:#dadada; stroke:none;" d="M170 47L171 48L170 47z"/>
<path style="fill:#f2f2f2; stroke:none;" d="M57 48L58 49L57 48z"/>
<path style="fill:#e7e7e7; stroke:none;" d="M170 48L171 49L170 48z"/>
<path style="fill:#dadada; stroke:none;" d="M56 49L57 50L56 49M65 49L66 50L65 49M162 49L163 50L162 49M171 49L173 51L171 49z"/>
<path style="fill:#e7e7e7; stroke:none;" d="M64 50L65 51L64 50M163 50L164 51L163 50z"/>
<path style="fill:#f2f2f2; stroke:none;" d="M171 50L172 51L171 50z"/>
<path style="fill:#e7e7e7; stroke:none;" d="M55 51L56 52L55 51z"/>
<path style="fill:#f2f2f2; stroke:none;" d="M63 51L64 52L63 51z"/>
<path style="fill:#e7e7e7; stroke:none;" d="M172 51L173 52L172 51z"/>
<path style="fill:#dadada; stroke:none;" d="M54 52L55 53L54 52M63 52L64 53L63 52M164 52L165 53L164 52M173 52L174 53L173 52z"/>
<path style="fill:#e7e7e7; stroke:none;" d="M54 53L55 54L54 53M62 53L63 54L62 53M165 53L166 54L165 53M173 53L174 54L173 53z"/>
<path style="fill:#dadada; stroke:none;" d="M53 54L54 55L53 54M174 54L175 55L174 54z"/>
<path style="fill:#e7e7e7; stroke:none;" d="M53 55L54 56L53 55M61 55L62 56L61 55M166 55L167 56L166 55M174 55L175 56L174 55z"/>
<path style="fill:#f2f2f2; stroke:none;" d="M174 56L175 57L174 56z"/>
<path style="fill:#e7e7e7; stroke:none;" d="M52 57L53 58L52 57M60 57L61 58L60 57M167 57L168 58L167 57M175 57L176 58L175 57z"/>
<path style="fill:#f2f2f2; stroke:none;" d="M175 58L176 59L175 58z"/>
<path style="fill:#dadada; stroke:none;" d="M51 59L52 60L51 59z"/>
<path style="fill:#e7e7e7; stroke:none;" d="M59 59L60 60L59 59M168 59L169 60L168 59z"/>
<path style="fill:#dadada; stroke:none;" d="M176 59L177 60L176 59z"/>
<path style="fill:#e7e7e7; stroke:none;" d="M51 60L52 61L51 60M176 60L177 61L176 60M58 61L59 62L58 61z"/>
<path style="fill:#f2f2f2; stroke:none;" d="M169 61L170 62L169 61M176 61L177 62L176 61z"/>
<path style="fill:#dadada; stroke:none;" d="M50 62L51 63L50 62M58 62L59 63L58 62M169 62L170 63L169 62M177 62L178 63L177 62z"/>
<path style="fill:#e7e7e7; stroke:none;" d="M50 63L51 64L50 63M177 63L178 64L177 63M57 64L58 65L57 64z"/>
<path style="fill:#f2f2f2; stroke:none;" d="M170 64L171 65L170 64M177 64L178 65L177 64z"/>
<path style="fill:#dadada; stroke:none;" d="M49 65L50 66L49 65M57 65L58 66L57 65M170 65L171 66L170 65M178 65L179 66L178 65z"/>
<path style="fill:#e7e7e7; stroke:none;" d="M49 66L50 67L49 66M178 66L179 67L178 66z"/>
<path style="fill:#f2f2f2; stroke:none;" d="M49 67L50 68L49 67z"/>
<path style="fill:#e7e7e7; stroke:none;" d="M56.3333 67.6667L56.6667 68.3333L56.3333 67.6667z"/>
<path style="fill:#f2f2f2; stroke:none;" d="M171 67L172 68L171 67M178.333 67.6667L178.667 68.3333L178.333 67.6667z"/>
<path style="fill:#e7e7e7; stroke:none;" d="M171 68L172 69L171 68z"/>
<path style="fill:#dadada; stroke:none;" d="M48 69L49 70L48 69M171 69L172 70L171 69M179 69L180 70L179 69z"/>
<path style="fill:#e7e7e7; stroke:none;" d="M48.3333 70.6667L48.6667 71.3333L48.3333 70.6667M179.333 70.6667L179.667 71.3333L179.333 70.6667M55.3333 71.6667L55.6667 72.3333L55.3333 71.6667z"/>
<path style="fill:#f2f2f2; stroke:none;" d="M172 71L173 72L172 71M48 72L49 73L48 72z"/>
<path style="fill:#e7e7e7; stroke:none;" d="M172 72L173 73L172 72z"/>
<path style="fill:#f2f2f2; stroke:none;" d="M179.333 72.6667L179.667 73.3333L179.333 72.6667z"/>
<path style="fill:#dadada; stroke:none;" d="M55.3333 73.6667L55.6667 74.3333L55.3333 73.6667M172.333 73.6667L172.667 74.3333L172.333 73.6667M47 75L48 76L47 75M180 75L180 78L181 78L180 75z"/>
<path style="fill:#e7e7e7; stroke:none;" d="M47 76L47 81L48 81L47 76z"/>
<path style="fill:#f2f2f2; stroke:none;" d="M54 77L54 80L55 80L54 77M173 77L173 81L174 81L173 77z"/>
<path style="fill:#e7e7e7; stroke:none;" d="M180 78L180 83L181 83L180 78z"/>
<path style="fill:#dadada; stroke:none;" d="M76 79L76 80L79 80L76 79M150.667 79.3333L151.333 79.6667L150.667 79.3333z"/>
<path style="fill:#e7e7e7; stroke:none;" d="M54 80L56 84L54 80z"/>
<path style="fill:#dadada; stroke:none;" d="M66 80L67 81L66 80z"/>
<path style="fill:#e7e7e7; stroke:none;" d="M67.6667 80.3333L68.3333 80.6667L67.6667 80.3333z"/>
<path style="fill:#f2f2f2; stroke:none;" d="M69.6667 80.3333L70.3333 80.6667L69.6667 80.3333M82 80L82 81L85 81L82 80z"/>
<path style="fill:#e7e7e7; stroke:none;" d="M85.6667 80.3333L86.3333 80.6667L85.6667 80.3333z"/>
<path style="fill:#dadada; stroke:none;" d="M87.6667 80.3333L88.3333 80.6667L87.6667 80.3333z"/>
<path style="fill:#e7e7e7; stroke:none;" d="M140.667 80.3333L141.333 80.6667L140.667 80.3333z"/>
<path style="fill:#f2f2f2; stroke:none;" d="M142 80L142 81L146 81L142 80M156.667 80.3333L157.333 80.6667L156.667 80.3333z"/>
<path style="fill:#e7e7e7; stroke:none;" d="M158.667 80.3333L159.333 80.6667L158.667 80.3333z"/>
<path style="fill:#dadada; stroke:none;" d="M160 80L160 81L163 81L160 80z"/>
<path style="fill:#f2f2f2; stroke:none;" d="M47 81L47 87L48 87L47 81z"/>
<path style="fill:#e7e7e7; stroke:none;" d="M62 81L63 82L62 81z"/>
<path style="fill:#f2f2f2; stroke:none;" d="M63 81L64 82L63 81M90 81L91 82L90 81z"/>
<path style="fill:#e7e7e7; stroke:none;" d="M91 81L92 82L91 81z"/>
<path style="fill:#dadada; stroke:none;" d="M92.6667 81.3333L93.3333 81.6667L92.6667 81.3333z"/>
<path style="fill:#e7e7e7; stroke:none;" d="M135.667 81.3333L136.333 81.6667L135.667 81.3333z"/>
<path style="fill:#f2f2f2; stroke:none;" d="M137 81L138 82L137 81M163 81L164 82L163 81z"/>
<path style="fill:#e7e7e7; stroke:none;" d="M164 81L165 82L164 81z"/>
<path style="fill:#dadada; stroke:none;" d="M165.667 81.3333L166.333 81.6667L165.667 81.3333z"/>
<path style="fill:#e7e7e7; stroke:none;" d="M173 81L173 84L174 84L173 81M58 82L59 83L58 82z"/>
<path style="fill:#f2f2f2; stroke:none;" d="M59 82L60 83L59 82M94.6667 82.3333L95.3333 82.6667L94.6667 82.3333z"/>
<path style="fill:#e7e7e7; stroke:none;" d="M96 82L97 83L96 82z"/>
<path style="fill:#dadada; stroke:none;" d="M97 82L98 83L97 82z"/>
<path style="fill:#e7e7e7; stroke:none;" d="M131 82L132 83L131 82z"/>
<path style="fill:#f2f2f2; stroke:none;" d="M132 82L133 83L132 82M168 82L169 83L168 82z"/>
<path style="fill:#dadada; stroke:none;" d="M169.667 82.3333L170.333 82.6667L169.667 82.3333z"/>
<path style="fill:#f2f2f2; stroke:none;" d="M56 83L57 84L56 83M98 83L99 84L98 83z"/>
<path style="fill:#dadada; stroke:none;" d="M99.6667 83.3333L100.333 83.6667L99.6667 83.3333z"/>
<path style="fill:#e7e7e7; stroke:none;" d="M128 83L129 84L128 83z"/>
<path style="fill:#f2f2f2; stroke:none;" d="M129 83L130 84L129 83M171 83L172 84L171 83z"/>
<path style="fill:#dadada; stroke:none;" d="M172 83L173 84L172 83z"/>
<path style="fill:#f2f2f2; stroke:none;" d="M180 83L180 87L181 87L180 83M100 84L101 85L100 84z"/>
<path style="fill:#e7e7e7; stroke:none;" d="M101 84L102 85L101 84z"/>
<path style="fill:#dadada; stroke:none;" d="M102 84L103 85L102 84z"/>
<path style="fill:#f2f2f2; stroke:none;" d="M126 84L127 85L126 84M103 85L104 86L103 85z"/>
<path style="fill:#e7e7e7; stroke:none;" d="M104 85L105 86L104 85z"/>
<path style="fill:#dadada; stroke:none;" d="M105 85L106 86L105 85z"/>
<path style="fill:#e7e7e7; stroke:none;" d="M123 85L124 86L123 85z"/>
<path style="fill:#f2f2f2; stroke:none;" d="M124 85L125 86L124 85z"/>
<path style="fill:#e7e7e7; stroke:none;" d="M106 86L107 87L106 86z"/>
<path style="fill:#dadada; stroke:none;" d="M107 86L108 87L107 86z"/>
<path style="fill:#e7e7e7; stroke:none;" d="M121 86L122 87L121 86M46 87L47 88L46 87z"/>
<path style="fill:#f2f2f2; stroke:none;" d="M67.6667 87.3333L68.3333 87.6667L67.6667 87.3333z"/>
<path style="fill:#e7e7e7; stroke:none;" d="M69.6667 87.3333L70.3333 87.6667L69.6667 87.3333z"/>
<path style="fill:#dadada; stroke:none;" d="M71 87L71 88L74 88L71 87z"/>
<path style="fill:#d3d3d3; stroke:none;" d="M56 91C56.7005 107.274 68.8229 128.834 85 134C87.2244 117.495 97.9613 107.831 107 95C90.4318 85.5803 73.7641 86.9276 56 91z"/>
<path style="fill:#dadada; stroke:none;" d="M80 87L80 88L84 88L80 87z"/>
<path style="fill:#e7e7e7; stroke:none;" d="M84.6667 87.3333L85.3333 87.6667L84.6667 87.3333z"/>
<path style="fill:#f2f2f2; stroke:none;" d="M86 87L87 88L86 87z"/>
<path style="fill:#e7e7e7; stroke:none;" d="M108 87L109 88L108 87M119 87L120 88L119 87z"/>
<path style="fill:#f2f2f2; stroke:none;" d="M140.667 87.3333L141.333 87.6667L140.667 87.3333z"/>
<path style="fill:#e7e7e7; stroke:none;" d="M142.667 87.3333L143.333 87.6667L142.667 87.3333z"/>
<path style="fill:#dadada; stroke:none;" d="M144 87L144 88L147 88L144 87z"/>
<path style="fill:#d3d3d3; stroke:none;" d="M122 94C128.602 108.413 140.716 117.056 143 134C155.313 130.068 164.347 116.471 168.985 105C170.311 101.72 173.739 94.0865 170.393 91.1397C158.819 80.9484 133.914 89.4041 122 94z"/>
<path style="fill:#dadada; stroke:none;" d="M155 87L155 88L158 88L155 87z"/>
<path style="fill:#e7e7e7; stroke:none;" d="M158 87L159 88L158 87z"/>
<path style="fill:#f2f2f2; stroke:none;" d="M159.667 87.3333L160.333 87.6667L159.667 87.3333z"/>
<path style="fill:#e7e7e7; stroke:none;" d="M181 87L182 88L181 87M44 88L45 89L44 88z"/>
<path style="fill:#f2f2f2; stroke:none;" d="M63 88L64 89L63 88z"/>
<path style="fill:#e7e7e7; stroke:none;" d="M64 88L65 89L64 88z"/>
<path style="fill:#dadada; stroke:none;" d="M65 88L66 89L65 88M89 88L90 89L89 88z"/>
<path style="fill:#e7e7e7; stroke:none;" d="M90 88L91 89L90 88z"/>
<path style="fill:#f2f2f2; stroke:none;" d="M91 88L92 89L91 88M109 88L110 89L109 88z"/>
<path style="fill:#dadada; stroke:none;" d="M110 88L111 89L110 88M117 88L118 89L117 88z"/>
<path style="fill:#f2f2f2; stroke:none;" d="M118 88L119 89L118 88M135.667 88.3333L136.333 88.6667L135.667 88.3333z"/>
<path style="fill:#e7e7e7; stroke:none;" d="M137 88L138 89L137 88z"/>
<path style="fill:#dadada; stroke:none;" d="M138 88L139 89L138 88M162.667 88.3333L163.333 88.6667L162.667 88.3333z"/>
<path style="fill:#f2f2f2; stroke:none;" d="M164 88L165 89L164 88M182 88L183 89L182 88z"/>
<path style="fill:#dadada; stroke:none;" d="M183 88L184 89L183 88M42 89L43 90L42 89z"/>
<path style="fill:#f2f2f2; stroke:none;" d="M43 89L44 90L43 89M59 89L60 90L59 89z"/>
<path style="fill:#e7e7e7; stroke:none;" d="M60 89L61 90L60 89z"/>
<path style="fill:#dadada; stroke:none;" d="M61 89L62 90L61 89z"/>
<path style="fill:#e7e7e7; stroke:none;" d="M94 89L95 90L94 89z"/>
<path style="fill:#f2f2f2; stroke:none;" d="M95 89L96 90L95 89M111 89L112 90L111 89z"/>
<path style="fill:#dadada; stroke:none;" d="M112 89L113 90L112 89M115 89L116 90L115 89z"/>
<path style="fill:#f2f2f2; stroke:none;" d="M116 89L117 90L116 89M132 89L133 90L132 89z"/>
<path style="fill:#e7e7e7; stroke:none;" d="M133 89L134 90L133 89z"/>
<path style="fill:#dadada; stroke:none;" d="M166.667 89.3333L167.333 89.6667L166.667 89.3333z"/>
<path style="fill:#f2f2f2; stroke:none;" d="M168 89L169 90L168 89z"/>
<path style="fill:#e7e7e7; stroke:none;" d="M184 89L185 90L184 89z"/>
<path style="fill:#dadada; stroke:none;" d="M185 89L186 90L185 89z"/>
<path style="fill:#f2f2f2; stroke:none;" d="M41 90L42 91L41 90M56 90L57 91L56 90z"/>
<path style="fill:#e7e7e7; stroke:none;" d="M57 90L58 91L57 90z"/>
<path style="fill:#dadada; stroke:none;" d="M58 90L59 91L58 90M96 90L97 91L96 90z"/>
<path style="fill:#e7e7e7; stroke:none;" d="M97 90L98 91L97 90z"/>
<path style="fill:#f2f2f2; stroke:none;" d="M113.667 90.3333L114.333 90.6667L113.667 90.3333M129 90L130 91L129 90z"/>
<path style="fill:#e7e7e7; stroke:none;" d="M130 90L131 91L130 90z"/>
<path style="fill:#dadada; stroke:none;" d="M131 90L132 91L131 90z"/>
<path style="fill:#e7e7e7; stroke:none;" d="M170 90L171 91L170 90z"/>
<path style="fill:#f2f2f2; stroke:none;" d="M171 90L172 91L171 90z"/>
<path style="fill:#dadada; stroke:none;" d="M186 90L187 91L186 90M39 91L40 92L39 91M55.3333 91.6667L55.6667 92.3333L55.3333 91.6667M99 91L100 92L99 91z"/>
<path style="fill:#e7e7e7; stroke:none;" d="M100 91L101 92L100 91M127 91L128 92L127 91z"/>
<path style="fill:#dadada; stroke:none;" d="M128 91L129 92L128 91M172.333 91.6667L172.667 92.3333L172.333 91.6667z"/>
<path style="fill:#f2f2f2; stroke:none;" d="M187 91L188 92L187 91z"/>
<path style="fill:#dadada; stroke:none;" d="M188 91L189 92L188 91z"/>
<path style="fill:#e7e7e7; stroke:none;" d="M38 92L39 93L38 92M102 92L103 93L102 92M125 92L126 93L125 92M189 92L190 93L189 92z"/>
<path style="fill:#dadada; stroke:none;" d="M36 93L37 94L36 93z"/>
<path style="fill:#f2f2f2; stroke:none;" d="M37 93L38 94L37 93z"/>
<path style="fill:#e7e7e7; stroke:none;" d="M55 93L56 94L55 93M104 93L105 94L104 93M123 93L124 94L123 93M172.333 93.6667L172.667 94.3333L172.333 93.6667M190 93L191 94L190 93z"/>
<path style="fill:#dadada; stroke:none;" d="M191 93L193 95L191 93M35 94L36 95L35 94z"/>
<path style="fill:#f2f2f2; stroke:none;" d="M55.3333 94.6667L55.6667 95.3333L55.3333 94.6667M106 94L107 95L106 94z"/>
<path style="fill:#e7e7e7; stroke:none;" d="M121 94L121 97L122 97L121 94z"/>
<path style="fill:#f2f2f2; stroke:none;" d="M191 94L192 95L191 94z"/>
<path style="fill:#e7e7e7; stroke:none;" d="M34 95L35 96L34 95z"/>
<path style="fill:#f2f2f2; stroke:none;" d="M46 95L47 96L46 95z"/>
<path style="fill:#dadada; stroke:none;" d="M47 95L48 96L47 95z"/>
<path style="fill:#f2f2f2; stroke:none;" d="M48 95L49 96L48 95M107 95L108 96L107 95z"/>
<path style="fill:#dadada; stroke:none;" d="M121 95L122 96L121 95z"/>
<path style="fill:#e7e7e7; stroke:none;" d="M179.333 95.6667L179.667 96.3333L179.333 95.6667z"/>
<path style="fill:#dadada; stroke:none;" d="M180 95L181 96L180 95M193 95L194 96L193 95z"/>
<path style="fill:#f2f2f2; stroke:none;" d="M33 96L34 97L33 96z"/>
<path style="fill:#e7e7e7; stroke:none;" d="M45 96L46 97L45 96z"/>
<path style="fill:#d3d3d3; stroke:none;" d="M107 198C99.7542 187.714 91.4513 180.269 87.0895 168C84.4807 160.662 85.9343 149.77 81.9761 143.326C78.4454 137.578 69.825 134.108 65.1705 128.996C56.274 119.225 52.1635 108.2 48 96C20.6387 106.374 12.2727 145.509 23.3117 170C37.462 201.393 76.6831 215.628 107 198z"/>
<path style="fill:#e7e7e7; stroke:none;" d="M48 96L49 97L48 96z"/>
<path style="fill:#dadada; stroke:none;" d="M56.3333 96.6667L56.6667 97.3333L56.3333 96.6667z"/>
<path style="fill:#f2f2f2; stroke:none;" d="M106 96L107 97L106 96z"/>
<path style="fill:#dadada; stroke:none;" d="M122 96L125 99L122 96M171.333 96.6667L171.667 97.3333L171.333 96.6667z"/>
<path style="fill:#d3d3d3; stroke:none;" d="M180 96C175.673 108.678 171.254 119.951 161.829 129.961C157.448 134.614 149.238 137.834 146.024 143.21C142.085 149.799 143.515 160.561 140.772 168C136.248 180.264 128.3 187.637 121 198C147.417 208.984 175.682 208.468 195.699 185C216.918 160.123 214.404 109.234 180 96z"/>
<path style="fill:#e7e7e7; stroke:none;" d="M182 96L183 97L182 96z"/>
<path style="fill:#dadada; stroke:none;" d="M194 96L195 97L194 96z"/>
<path style="fill:#f2f2f2; stroke:none;" d="M32 97L33 98L32 97M43 97L44 98L43 97z"/>
<path style="fill:#dadada; stroke:none;" d="M44 97L45 98L44 97z"/>
<path style="fill:#f2f2f2; stroke:none;" d="M105 97L106 98L105 97M122 97L123 98L122 97z"/>
<path style="fill:#dadada; stroke:none;" d="M183 97L184 98L183 97z"/>
<path style="fill:#f2f2f2; stroke:none;" d="M184 97L185 98L184 97z"/>
<path style="fill:#e7e7e7; stroke:none;" d="M195 97L196 98L195 97z"/>
<path style="fill:#f2f2f2; stroke:none;" d="M31 98L32 99L31 98z"/>
<path style="fill:#dadada; stroke:none;" d="M42 98L43 99L42 98z"/>
<path style="fill:#e7e7e7; stroke:none;" d="M56 98L57 99L56 98z"/>
<path style="fill:#f2f2f2; stroke:none;" d="M104 98L105 99L104 98M123 98L124 99L123 98z"/>
<path style="fill:#e7e7e7; stroke:none;" d="M171 98L172 99L171 98M185 98L186 99L185 98M196 98L197 99L196 98z"/>
<path style="fill:#f2f2f2; stroke:none;" d="M30 99L31 100L30 99z"/>
<path style="fill:#dadada; stroke:none;" d="M41 99L42 100L41 99z"/>
<path style="fill:#f2f2f2; stroke:none;" d="M49 99L50 100L49 99M56 99L57 100L56 99M103 99L104 100L103 99z"/>
<path style="fill:#dadada; stroke:none;" d="M125 99L127 101L125 99z"/>
<path style="fill:#f2f2f2; stroke:none;" d="M171 99L172 100L171 99M178 99L179 100L178 99z"/>
<path style="fill:#dadada; stroke:none;" d="M186 99L187 100L186 99z"/>
<path style="fill:#e7e7e7; stroke:none;" d="M197 99L199 101L197 99z"/>
<path style="fill:#dadada; stroke:none;" d="M198 99L199 100L198 99z"/>
<path style="fill:#f2f2f2; stroke:none;" d="M29 100L30 101L29 100M39 100L40 101L39 100z"/>
<path style="fill:#e7e7e7; stroke:none;" d="M49 100L50 101L49 100z"/>
<path style="fill:#f2f2f2; stroke:none;" d="M102 100L103 101L102 100M112 100L111 102L112 100z"/>
<path style="fill:#d3d3d3; stroke:none;" d="M109 105L119 105C115.465 100.419 112.535 100.419 109 105z"/>
<path style="fill:#f2f2f2; stroke:none;" d="M125 100L126 101L125 100z"/>
<path style="fill:#e7e7e7; stroke:none;" d="M178 100L179 101L178 100z"/>
<path style="fill:#dadada; stroke:none;" d="M187 100L188 101L187 100z"/>
<path style="fill:#f2f2f2; stroke:none;" d="M28 101L29 102L28 101M38 101L39 102L38 101z"/>
<path style="fill:#dadada; stroke:none;" d="M49 101L50 102L49 101M57 101L58 102L57 101z"/>
<path style="fill:#e7e7e7; stroke:none;" d="M101 101L102 102L101 101z"/>
<path style="fill:#f2f2f2; stroke:none;" d="M116 101L117 102L116 101z"/>
<path style="fill:#e7e7e7; stroke:none;" d="M126 101L127 102L126 101z"/>
<path style="fill:#dadada; stroke:none;" d="M170 101L171 102L170 101M178 101L179 102L178 101z"/>
<path style="fill:#f2f2f2; stroke:none;" d="M189 101L190 102L189 101z"/>
<path style="fill:#e7e7e7; stroke:none;" d="M199 101L200 102L199 101M27 102L28 103L27 102M37 102L38 103L37 102z"/>
<path style="fill:#f2f2f2; stroke:none;" d="M57 102L58 103L57 102z"/>
<path style="fill:#dadada; stroke:none;" d="M100 102L101 103L100 102z"/>
<path style="fill:#e7e7e7; stroke:none;" d="M110 102L111 103L110 102M117 102L118 103L117 102M127 102L128 103L127 102z"/>
<path style="fill:#f2f2f2; stroke:none;" d="M170 102L171 103L170 102z"/>
<path style="fill:#e7e7e7; stroke:none;" d="M190 102L191 103L190 102M200 102L201 103L200 102M26 103L27 104L26 103M36 103L37 104L36 103M50 103L51 104L50 103z"/>
<path style="fill:#dadada; stroke:none;" d="M58 103L59 104L58 103M99 103L100 104L99 103z"/>
<path style="fill:#e7e7e7; stroke:none;" d="M109 103L110 104L109 103M118 103L119 104L118 103M128 103L129 104L128 103z"/>
<path style="fill:#dadada; stroke:none;" d="M169 103L170 104L169 103z"/>
<path style="fill:#e7e7e7; stroke:none;" d="M177 103L178 104L177 103M191 103L192 104L191 103M201 103L202 104L201 103z"/>
<path style="fill:#dadada; stroke:none;" d="M25 104L26 105L25 104z"/>
<path style="fill:#e7e7e7; stroke:none;" d="M35 104L36 105L35 104z"/>
<path style="fill:#dadada; stroke:none;" d="M50 104L51 105L50 104z"/>
<path style="fill:#e7e7e7; stroke:none;" d="M58 104L59 105L58 104z"/>
<path style="fill:#dadada; stroke:none;" d="M98 104L97 106L98 104M108 104L109 105L108 104z"/>
<path style="fill:#e7e7e7; stroke:none;" d="M119 104L120 105L119 104z"/>
<path style="fill:#dadada; stroke:none;" d="M129 104L130 105L129 104z"/>
<path style="fill:#e7e7e7; stroke:none;" d="M169 104L170 105L169 104z"/>
<path style="fill:#dadada; stroke:none;" d="M177 104L178 105L177 104z"/>
<path style="fill:#e7e7e7; stroke:none;" d="M192 104L193 105L192 104z"/>
<path style="fill:#dadada; stroke:none;" d="M202 104L203 105L202 104M24 105L25 106L24 105z"/>
<path style="fill:#e7e7e7; stroke:none;" d="M34 105L35 106L34 105z"/>
<path style="fill:#f2f2f2; stroke:none;" d="M58 105L59 106L58 105M98 105L99 106L98 105z"/>
<path style="fill:#dadada; stroke:none;" d="M130 105L131 106L130 105z"/>
<path style="fill:#e7e7e7; stroke:none;" d="M193 105L194 106L193 105z"/>
<path style="fill:#dadada; stroke:none;" d="M203 105L204 106L203 105z"/>
<path style="fill:#f2f2f2; stroke:none;" d="M24 106L25 107L24 106z"/>
<path style="fill:#e7e7e7; stroke:none;" d="M33 106L34 107L33 106M51 106L52 107L51 106z"/>
<path style="fill:#dadada; stroke:none;" d="M59 106L60 107L59 106z"/>
<path style="fill:#f2f2f2; stroke:none;" d="M97 106L98 107L97 106z"/>
<path style="fill:#dadada; stroke:none;" d="M131 106L132 107L131 106M168 106L169 107L168 106z"/>
<path style="fill:#e7e7e7; stroke:none;" d="M176 106L177 107L176 106M194 106L195 107L194 106M203 106L204 107L203 106M23 107L24 108L23 107z"/>
<path style="fill:#f2f2f2; stroke:none;" d="M32 107L33 108L32 107z"/>
<path style="fill:#dadada; stroke:none;" d="M51 107L52 108L51 107z"/>
<path style="fill:#f2f2f2; stroke:none;" d="M59 107L60 108L59 107z"/>
<path style="fill:#e7e7e7; stroke:none;" d="M96 107L97 108L96 107M131 107L132 108L131 107z"/>
<path style="fill:#f2f2f2; stroke:none;" d="M168 107L169 108L168 107z"/>
<path style="fill:#dadada; stroke:none;" d="M176 107L177 108L176 107z"/>
<path style="fill:#e7e7e7; stroke:none;" d="M195 107L196 108L195 107M204 107L205 108L204 107z"/>
<path style="fill:#dadada; stroke:none;" d="M22 108L23 109L22 108z"/>
<path style="fill:#f2f2f2; stroke:none;" d="M31 108L32 109L31 108M52 108L53 109L52 108z"/>
<path style="fill:#dadada; stroke:none;" d="M60 108L61 109L60 108M95 108L96 109L95 108M132 108L133 109L132 108M167 108L168 109L167 108M205 108L206 109L205 108z"/>
<path style="fill:#e7e7e7; stroke:none;" d="M52 109L53 110L52 109M60 109L61 110L60 109z"/>
<path style="fill:#f2f2f2; stroke:none;" d="M95 109L96 110L95 109z"/>
<path style="fill:#dadada; stroke:none;" d="M133 109L134 110L133 109z"/>
<path style="fill:#e7e7e7; stroke:none;" d="M167 109L168 110L167 109M175 109L176 110L175 109z"/>
<path style="fill:#dadada; stroke:none;" d="M196 109L197 110L196 109M206 109L207 110L206 109z"/>
<path style="fill:#e7e7e7; stroke:none;" d="M21 110L22 111L21 110z"/>
<path style="fill:#dadada; stroke:none;" d="M30 110L31 111L30 110M61 110L62 111L61 110z"/>
<path style="fill:#e7e7e7; stroke:none;" d="M94 110L95 111L94 110M133 110L134 111L133 110z"/>
<path style="fill:#dadada; stroke:none;" d="M166 110L167 111L166 110M197 110L198 111L197 110z"/>
<path style="fill:#e7e7e7; stroke:none;" d="M206 110L207 111L206 110z"/>
<path style="fill:#dadada; stroke:none;" d="M20 111L21 112L20 111z"/>
<path style="fill:#e7e7e7; stroke:none;" d="M29 111L30 112L29 111M53 111L54 112L53 111M61 111L62 112L61 111z"/>
<path style="fill:#dadada; stroke:none;" d="M93 111L94 112L93 111M134 111L136 113L134 111z"/>
<path style="fill:#e7e7e7; stroke:none;" d="M166 111L167 112L166 111M174 111L175 112L174 111M198 111L199 112L198 111z"/>
<path style="fill:#dadada; stroke:none;" d="M207 111L208 112L207 111z"/>
<path style="fill:#f2f2f2; stroke:none;" d="M28 112L29 113L28 112z"/>
<path style="fill:#dadada; stroke:none;" d="M62 112L63 113L62 112z"/>
<path style="fill:#f2f2f2; stroke:none;" d="M93 112L94 113L93 112z"/>
<path style="fill:#e7e7e7; stroke:none;" d="M101 112L102 113L101 112z"/>
<path style="fill:#dadada; stroke:none;" d="M102 112L102 113L126 113L102 112z"/>
<path style="fill:#e7e7e7; stroke:none;" d="M126 112L127 113L126 112z"/>
<path style="fill:#f2f2f2; stroke:none;" d="M134 112L135 113L134 112z"/>
<path style="fill:#dadada; stroke:none;" d="M165 112L166 113L165 112z"/>
<path style="fill:#f2f2f2; stroke:none;" d="M199 112L200 113L199 112z"/>
<path style="fill:#e7e7e7; stroke:none;" d="M207 112L208 113L207 112M19 113L20 114L19 113M54 113L55 114L54 113z"/>
<path style="fill:#f2f2f2; stroke:none;" d="M62 113L63 114L62 113z"/>
<path style="fill:#dadada; stroke:none;" d="M92 113L93 114L92 113z"/>
<path style="fill:#d3d3d3; stroke:none;" d="M99 118L129 118C125.199 110.01 102.801 110.01 99 118z"/>
<path style="fill:#e7e7e7; stroke:none;" d="M135 113L136 114L135 113M173 113L174 114L173 113z"/>
<path style="fill:#dadada; stroke:none;" d="M199 113L200 114L199 113M208 113L209 114L208 113z"/>
<path style="fill:#e7e7e7; stroke:none;" d="M27 114L28 115L27 114M63 114L64 115L63 114M100 114L101 115L100 114M127 114L128 115L127 114z"/>
<path style="fill:#dadada; stroke:none;" d="M136 114L137 115L136 114z"/>
<path style="fill:#e7e7e7; stroke:none;" d="M164 114L165 115L164 114M200 114L201 115L200 114z"/>
<path style="fill:#dadada; stroke:none;" d="M209 114L210 115L209 114z"/>
<path style="fill:#e7e7e7; stroke:none;" d="M18 115L19 116L18 115M55 115L56 116L55 115z"/>
<path style="fill:#dadada; stroke:none;" d="M64 115L65 116L64 115z"/>
<path style="fill:#e7e7e7; stroke:none;" d="M91 115L92 116L91 115z"/>
<path style="fill:#f2f2f2; stroke:none;" d="M99 115L100 116L99 115z"/>
<path style="fill:#e7e7e7; stroke:none;" d="M136 115L137 116L136 115z"/>
<path style="fill:#dadada; stroke:none;" d="M163 115L164 116L163 115z"/>
<path style="fill:#e7e7e7; stroke:none;" d="M172 115L173 116L172 115M209 115L210 116L209 115z"/>
<path style="fill:#dadada; stroke:none;" d="M17 116L18 117L17 116M26 116L27 117L26 116z"/>
<path style="fill:#e7e7e7; stroke:none;" d="M64 116L65 117L64 116z"/>
<path style="fill:#dadada; stroke:none;" d="M90 116L91 117L90 116M99 116L100 117L99 116M128 116L129 117L128 116M137 116L138 117L137 116z"/>
<path style="fill:#e7e7e7; stroke:none;" d="M163 116L164 117L163 116z"/>
<path style="fill:#dadada; stroke:none;" d="M201 116L202 117L201 116M210 116L211 117L210 116z"/>
<path style="fill:#e7e7e7; stroke:none;" d="M17 117L18 118L17 117M25 117L26 118L25 117M56 117L57 118L56 117z"/>
<path style="fill:#dadada; stroke:none;" d="M65 117L66 118L65 117z"/>
<path style="fill:#e7e7e7; stroke:none;" d="M90 117L91 118L90 117M98 117C101.508 121.015 126.492 121.015 130 117C120.59 119.24 107.41 119.24 98 117M137 117L138 118L137 117z"/>
<path style="fill:#dadada; stroke:none;" d="M162 117L163 118L162 117M171 117L172 118L171 117z"/>
<path style="fill:#e7e7e7; stroke:none;" d="M202 117L203 118L202 117M210 117L211 118L210 117z"/>
<path style="fill:#dadada; stroke:none;" d="M16 118L17 119L16 118z"/>
<path style="fill:#e7e7e7; stroke:none;" d="M57 118L58 119L57 118z"/>
<path style="fill:#dadada; stroke:none;" d="M66 118L68 120L66 118M138 118L139 119L138 118M161 118L162 119L161 118z"/>
<path style="fill:#f2f2f2; stroke:none;" d="M170 118L171 119L170 118z"/>
<path style="fill:#e7e7e7; stroke:none;" d="M16 119L17 120L16 119M24 119L25 120L24 119M66 119L67 120L66 119z"/>
<path style="fill:#dadada; stroke:none;" d="M89 119L90 120L89 119z"/>
<path style="fill:#e7e7e7; stroke:none;" d="M138 119L139 120L138 119z"/>
<path style="fill:#f2f2f2; stroke:none;" d="M161 119L162 120L161 119z"/>
<path style="fill:#e7e7e7; stroke:none;" d="M203 119L204 120L203 119M211 119L212 120L211 119M58 120L59 121L58 120M67 120L68 121L67 120z"/>
<path style="fill:#f2f2f2; stroke:none;" d="M89 120L90 121L89 120M138 120L139 121L138 120M160 120L161 121L160 120z"/>
<path style="fill:#dadada; stroke:none;" d="M169 120L170 121L169 120z"/>
<path style="fill:#f2f2f2; stroke:none;" d="M211 120L212 121L211 120z"/>
<path style="fill:#dadada; stroke:none;" d="M15 121L16 122L15 121z"/>
<path style="fill:#e7e7e7; stroke:none;" d="M23 121L24 122L23 121z"/>
<path style="fill:#f2f2f2; stroke:none;" d="M59 121L60 122L59 121z"/>
<path style="fill:#e7e7e7; stroke:none;" d="M68 121L69 122L68 121z"/>
<path style="fill:#dadada; stroke:none;" d="M88 121L89 122L88 121M139 121L140 122L139 121z"/>
<path style="fill:#e7e7e7; stroke:none;" d="M159 121L160 122L159 121z"/>
<path style="fill:#f2f2f2; stroke:none;" d="M168 121L169 122L168 121z"/>
<path style="fill:#e7e7e7; stroke:none;" d="M204 121L205 122L204 121z"/>
<path style="fill:#dadada; stroke:none;" d="M212 121L213 122L212 121z"/>
<path style="fill:#f2f2f2; stroke:none;" d="M15 122L16 123L15 122z"/>
<path style="fill:#dadada; stroke:none;" d="M59 122L60 123L59 122M69 122L70 123L69 122z"/>
<path style="fill:#e7e7e7; stroke:none;" d="M88 122L89 123L88 122z"/>
<path style="fill:#f2f2f2; stroke:none;" d="M139 122L140 123L139 122z"/>
<path style="fill:#e7e7e7; stroke:none;" d="M158 122L159 123L158 122z"/>
<path style="fill:#dadada; stroke:none;" d="M204 122L205 123L204 122z"/>
<path style="fill:#e7e7e7; stroke:none;" d="M212 122L213 123L212 122z"/>
<path style="fill:#dadada; stroke:none;" d="M14 123L15 124L14 123z"/>
<path style="fill:#e7e7e7; stroke:none;" d="M22 123L23 124L22 123M60 123L61 124L60 123z"/>
<path style="fill:#dadada; stroke:none;" d="M70 123L71 124L70 123M87 123L88 124L87 123M140 123L141 124L140 123M157 123L158 124L157 123M167 123L168 124L167 123z"/>
<path style="fill:#f2f2f2; stroke:none;" d="M205 123L206 124L205 123z"/>
<path style="fill:#dadada; stroke:none;" d="M213.333 123.667L213.667 124.333L213.333 123.667z"/>
<path style="fill:#e7e7e7; stroke:none;" d="M14 124L15 125L14 124z"/>
<path style="fill:#dadada; stroke:none;" d="M22 124L23 125L22 124z"/>
<path style="fill:#e7e7e7; stroke:none;" d="M61 124L62 125L61 124z"/>
<path style="fill:#dadada; stroke:none;" d="M71 124L72 125L71 124z"/>
<path style="fill:#e7e7e7; stroke:none;" d="M87 124L88 125L87 124M140 124L141 125L140 124z"/>
<path style="fill:#dadada; stroke:none;" d="M156 124L155 126L156 124z"/>
<path style="fill:#e7e7e7; stroke:none;" d="M166 124L167 125L166 124z"/>
<path style="fill:#dadada; stroke:none;" d="M205 124L206 125L205 124z"/>
<path style="fill:#e7e7e7; stroke:none;" d="M62 125L63 126L62 125z"/>
<path style="fill:#dadada; stroke:none;" d="M72 125L73 126L72 125z"/>
<path style="fill:#f2f2f2; stroke:none;" d="M87 125L88 126L87 125M95 125L95 126L133 126C122.964 121.789 105.911 125 95 125M140 125L141 126L140 125M156 125L157 126L156 125M165 125L166 126L165 125M213 125L214 126L213 125z"/>
<path style="fill:#dadada; stroke:none;" d="M13 126L14 127L13 126z"/>
<path style="fill:#e7e7e7; stroke:none;" d="M21 126L22 127L21 126z"/>
<path style="fill:#dadada; stroke:none;" d="M73 126L74 127L73 126M86.3333 126.667L86.6667 127.333L86.3333 126.667z"/>
<path style="fill:#e7e7e7; stroke:none;" d="M94 126L95 127L94 126z"/>
<path style="fill:#d3d3d3; stroke:none;" d="M93 132L135 132C131.807 122.145 96.1927 122.145 93 132z"/>
<path style="fill:#e7e7e7; stroke:none;" d="M133 126L134 127L133 126z"/>
<path style="fill:#dadada; stroke:none;" d="M141 126L142 127L141 126M154 126L155 127L154 126z"/>
<path style="fill:#f2f2f2; stroke:none;" d="M164 126L165 127L164 126z"/>
<path style="fill:#e7e7e7; stroke:none;" d="M206 126L207 127L206 126z"/>
<path style="fill:#dadada; stroke:none;" d="M214 126L215 127L214 126z"/>
<path style="fill:#e7e7e7; stroke:none;" d="M13.3333 127.667L13.6667 128.333L13.3333 127.667z"/>
<path style="fill:#dadada; stroke:none;" d="M21 127L22 128L21 127M63 127L64 128L63 127M74 127L75 128L74 127z"/>
<path style="fill:#e7e7e7; stroke:none;" d="M141 127L142 128L141 127z"/>
<path style="fill:#dadada; stroke:none;" d="M153 127L154 128L153 127M206 127L207 128L206 127z"/>
<path style="fill:#e7e7e7; stroke:none;" d="M214 127L215 128L214 127z"/>
<path style="fill:#dadada; stroke:none;" d="M64 128L65 129L64 128M75 128L76 129L75 128z"/>
<path style="fill:#e7e7e7; stroke:none;" d="M86 128L87 129L86 128z"/>
<path style="fill:#f2f2f2; stroke:none;" d="M141.333 128.667L141.667 129.333L141.333 128.667z"/>
<path style="fill:#dadada; stroke:none;" d="M152 128L153 129L152 128M163 128L164 129L163 128z"/>
<path style="fill:#f2f2f2; stroke:none;" d="M214.333 128.667L214.667 129.333L214.333 128.667z"/>
<path style="fill:#e7e7e7; stroke:none;" d="M20 129L21 130L20 129z"/>
<path style="fill:#dadada; stroke:none;" d="M65 129L66 130L65 129z"/>
<path style="fill:#e7e7e7; stroke:none;" d="M76 129L77 130L76 129z"/>
<path style="fill:#f2f2f2; stroke:none;" d="M86 129L87 130L86 129z"/>
<path style="fill:#e7e7e7; stroke:none;" d="M93 129L94 130L93 129M134 129L135 130L134 129M151 129L152 130L151 129z"/>
<path style="fill:#dadada; stroke:none;" d="M162 129L163 130L162 129z"/>
<path style="fill:#e7e7e7; stroke:none;" d="M207 129L208 130L207 129z"/>
<path style="fill:#dadada; stroke:none;" d="M12 130L13 131L12 130M20 130L21 131L20 130M66 130L67 131L66 130z"/>
<path style="fill:#e7e7e7; stroke:none;" d="M77 130L78 131L77 130z"/>
<path style="fill:#dadada; stroke:none;" d="M85.3333 130.667L85.6667 131.333L85.3333 130.667M93 130L94 131L93 130M134 130L135 131L134 130M142 130L143 131L142 130z"/>
<path style="fill:#f2f2f2; stroke:none;" d="M150 130L151 131L150 130z"/>
<path style="fill:#dadada; stroke:none;" d="M161 130L162 131L161 130M207 130L208 131L207 130M215 130L216 131L215 130z"/>
<path style="fill:#e7e7e7; stroke:none;" d="M12 131L13 132L12 131z"/>
<path style="fill:#dadada; stroke:none;" d="M67 131L68 132L67 131z"/>
<path style="fill:#f2f2f2; stroke:none;" d="M78 131L79 132L78 131z"/>
<path style="fill:#dadada; stroke:none;" d="M79 131L80 132L79 131z"/>
<path style="fill:#e7e7e7; stroke:none;" d="M142 131L143 132L142 131z"/>
<path style="fill:#dadada; stroke:none;" d="M148 131L149 132L148 131M160 131L161 132L160 131z"/>
<path style="fill:#e7e7e7; stroke:none;" d="M215 131L216 132L215 131z"/>
<path style="fill:#f2f2f2; stroke:none;" d="M12 132L13 133L12 132M19 132L20 133L19 132z"/>
<path style="fill:#dadada; stroke:none;" d="M68 132L69 133L68 132z"/>
<path style="fill:#e7e7e7; stroke:none;" d="M80 132L81 133L80 132M85 132L86 133L85 132z"/>
<path style="fill:#f2f2f2; stroke:none;" d="M142 132L143 133L142 132M147 132L148 133L147 132z"/>
<path style="fill:#dadada; stroke:none;" d="M159 132L160 133L159 132z"/>
<path style="fill:#f2f2f2; stroke:none;" d="M208 132L209 133L208 132M215.333 132.667L215.667 133.333L215.333 132.667z"/>
<path style="fill:#e7e7e7; stroke:none;" d="M19 133L20 134L19 133z"/>
<path style="fill:#dadada; stroke:none;" d="M69 133L70 134L69 133z"/>
<path style="fill:#f2f2f2; stroke:none;" d="M81 133L82 134L81 133z"/>
<path style="fill:#dadada; stroke:none;" d="M82 133L83 134L82 133M145 133L146 134L145 133M158 133L159 134L158 133z"/>
<path style="fill:#e7e7e7; stroke:none;" d="M208 133L209 134L208 133z"/>
<path style="fill:#dadada; stroke:none;" d="M11.3333 134.667L11.6667 135.333L11.3333 134.667M19 134L20 135L19 134M70 134L71 135L70 134z"/>
<path style="fill:#e7e7e7; stroke:none;" d="M83 134L84 135L83 134z"/>
<path style="fill:#dadada; stroke:none;" d="M84 134L85 135L84 134M143 134L144 135L143 134z"/>
<path style="fill:#f2f2f2; stroke:none;" d="M144 134L145 135L144 134M156 134L157 135L156 134z"/>
<path style="fill:#dadada; stroke:none;" d="M208 134L209 135L208 134z"/>
<path style="fill:#f2f2f2; stroke:none;" d="M72 135L73 136L72 135z"/>
<path style="fill:#e7e7e7; stroke:none;" d="M155 135L156 136L155 135z"/>
<path style="fill:#dadada; stroke:none;" d="M216.333 135.667L216.667 136.333L216.333 135.667z"/>
<path style="fill:#e7e7e7; stroke:none;" d="M11.3333 136.667L11.6667 137.333L11.3333 136.667M73 136L74 137L73 136z"/>
<path style="fill:#dadada; stroke:none;" d="M154 136L155 137L154 136z"/>
<path style="fill:#f2f2f2; stroke:none;" d="M18 137L19 138L18 137z"/>
<path style="fill:#dadada; stroke:none;" d="M74 137L75 138L74 137z"/>
<path style="fill:#f2f2f2; stroke:none;" d="M152 137L153 138L152 137z"/>
<path style="fill:#dadada; stroke:none;" d="M153 137L154 138L153 137z"/>
<path style="fill:#f2f2f2; stroke:none;" d="M209.333 137.667L209.667 138.333L209.333 137.667z"/>
<path style="fill:#e7e7e7; stroke:none;" d="M216 137L217 138L216 137z"/>
<path style="fill:#f2f2f2; stroke:none;" d="M11 138L12 139L11 138z"/>
<path style="fill:#e7e7e7; stroke:none;" d="M18 138L18 141L19 141L18 138z"/>
<path style="fill:#f2f2f2; stroke:none;" d="M76 138L77 139L76 138M151 138L152 139L151 138M216 138L216 141L217 141L216 138z"/>
<path style="fill:#dadada; stroke:none;" d="M77 139L78 140L77 139z"/>
<path style="fill:#e7e7e7; stroke:none;" d="M94 139L95 140L94 139z"/>
<path style="fill:#dadada; stroke:none;" d="M95 139L95 140L133 140C122.964 135.789 105.911 139 95 139z"/>
<path style="fill:#e7e7e7; stroke:none;" d="M133 139L134 140L133 139z"/>
<path style="fill:#f2f2f2; stroke:none;" d="M134 139L135 140L134 139M149 139L150 140L149 139z"/>
<path style="fill:#dadada; stroke:none;" d="M150 139L151 140L150 139z"/>
<path style="fill:#e7e7e7; stroke:none;" d="M209 139L210 140L209 139M79 140L80 141L79 140z"/>
<path style="fill:#f2f2f2; stroke:none;" d="M96 140L97 141L96 140z"/>
<path style="fill:#e7e7e7; stroke:none;" d="M97 140L98 141L97 140z"/>
<path style="fill:#d3d3d3; stroke:none;" d="M100 140L100 141L130 141L100 140z"/>
<path style="fill:#e7e7e7; stroke:none;" d="M130 140L131 141L130 140z"/>
<path style="fill:#f2f2f2; stroke:none;" d="M131 140L132 141L131 140z"/>
<path style="fill:#e7e7e7; stroke:none;" d="M148 140L149 141L148 140z"/>
<path style="fill:#dadada; stroke:none;" d="M209.333 140.667L209.667 141.333L209.333 140.667M18 141L18 145L19 145L18 141M80 141L81 142L80 141z"/>
<path style="fill:#f2f2f2; stroke:none;" d="M81 141L82 142L81 141M100 141L101 142L100 141z"/>
<path style="fill:#e7e7e7; stroke:none;" d="M101 141L102 142L101 141z"/>
<path style="fill:#dadada; stroke:none;" d="M102 141L103 142L102 141z"/>
<path style="fill:#e7e7e7; stroke:none;" d="M126 141L127 142L126 141z"/>
<path style="fill:#f2f2f2; stroke:none;" d="M127 141L128 142L127 141M146 141L147 142L146 141z"/>
<path style="fill:#dadada; stroke:none;" d="M82 142L83 150L84 150L82 142z"/>
<path style="fill:#f2f2f2; stroke:none;" d="M83 142L84 143L83 142M105.667 142.333L106.333 142.667L105.667 142.333z"/>
<path style="fill:#e7e7e7; stroke:none;" d="M107 142L107 143L110 143L107 142z"/>
<path style="fill:#dadada; stroke:none;" d="M110 142L110 143L114 143L110 142M116 142L116 143L120 143L116 142z"/>
<path style="fill:#e7e7e7; stroke:none;" d="M120.667 142.333L121.333 142.667L120.667 142.333z"/>
<path style="fill:#f2f2f2; stroke:none;" d="M122.667 142.333L123.333 142.667L122.667 142.333M144 142L145 143L144 142z"/>
<path style="fill:#dadada; stroke:none;" d="M145 142L146 143L145 142M10 143L10 150L11 150L10 143M144 143L144 150L145 150L144 143M217.333 145.667L217.667 146.333L217.333 145.667M91 146L92 147L91 146z"/>
<path style="fill:#e7e7e7; stroke:none;" d="M92 146L93 147L92 146z"/>
<path style="fill:#f2f2f2; stroke:none;" d="M135 146L136 147L135 146z"/>
<path style="fill:#dadada; stroke:none;" d="M136 146L137 147L136 146z"/>
<path style="fill:#d3d3d3; stroke:none;" d="M91 147C92.678 160.277 95.5847 172.065 103.76 183C105.942 185.919 109.899 191.6 114 191.654C118.103 191.709 122.101 185.867 124.32 183C132.455 172.492 135.968 160.082 137 147C120.17 149.266 107.83 149.266 91 147z"/>
<path style="fill:#dadada; stroke:none;" d="M94 147L95 148L94 147z"/>
<path style="fill:#e7e7e7; stroke:none;" d="M95 147L96 148L95 147z"/>
<path style="fill:#f2f2f2; stroke:none;" d="M96 147L97 148L96 147M131 147L132 148L131 147z"/>
<path style="fill:#e7e7e7; stroke:none;" d="M132 147L133 148L132 147z"/>
<path style="fill:#dadada; stroke:none;" d="M133 147L134 148L133 147M98 148L99 149L98 148z"/>
<path style="fill:#e7e7e7; stroke:none;" d="M99 148L100 149L99 148z"/>
<path style="fill:#f2f2f2; stroke:none;" d="M100 148L101 149L100 148M127 148L128 149L127 148z"/>
<path style="fill:#e7e7e7; stroke:none;" d="M128 148L129 149L128 148z"/>
<path style="fill:#dadada; stroke:none;" d="M129 148L130 149L129 148M18 149L18 152L19 152L18 149M102.667 149.333L103.333 149.667L102.667 149.333z"/>
<path style="fill:#e7e7e7; stroke:none;" d="M104.667 149.333L105.333 149.667L104.667 149.333z"/>
<path style="fill:#f2f2f2; stroke:none;" d="M106.667 149.333L107.333 149.667L106.667 149.333M120.667 149.333L121.333 149.667L120.667 149.333z"/>
<path style="fill:#e7e7e7; stroke:none;" d="M122.667 149.333L123.333 149.667L122.667 149.333z"/>
<path style="fill:#dadada; stroke:none;" d="M124.667 149.333L125.333 149.667L124.667 149.333M91 150L91 154L92 154L91 150M113.667 150.333L114.333 150.667L113.667 150.333M209 150L209 153L210 153L209 150M136 151L136 154L137 154L136 151z"/>
<path style="fill:#e7e7e7; stroke:none;" d="M18.3333 152.667L18.6667 153.333L18.3333 152.667M209 153L209 156L210 156L209 153z"/>
<path style="fill:#f2f2f2; stroke:none;" d="M216 153L217 154L216 153M11.3333 154.667L11.6667 155.333L11.3333 154.667M18 154L18 157L19 157L18 154M84.3333 154.667L84.6667 155.333L84.3333 154.667z"/>
<path style="fill:#e7e7e7; stroke:none;" d="M91 154L92 155L91 154M136.333 154.667L136.667 155.333L136.333 154.667z"/>
<path style="fill:#f2f2f2; stroke:none;" d="M143 154L144 155L143 154z"/>
<path style="fill:#e7e7e7; stroke:none;" d="M216.333 154.667L216.667 155.333L216.333 154.667z"/>
<path style="fill:#f2f2f2; stroke:none;" d="M91.3333 155.667L91.6667 156.333L91.3333 155.667z"/>
<path style="fill:#e7e7e7; stroke:none;" d="M143.333 155.667L143.667 156.333L143.333 155.667M11 156L12 157L11 156M84 156L85 157L84 156z"/>
<path style="fill:#f2f2f2; stroke:none;" d="M136 156L137 157L136 156M209 156L210 157L209 156z"/>
<path style="fill:#dadada; stroke:none;" d="M216.333 156.667L216.667 157.333L216.333 156.667M11 157L12 158L11 157M19.3333 157.667L19.6667 158.333L19.3333 157.667M84.3333 157.667L84.6667 158.333L84.3333 157.667M143.333 157.667L143.667 158.333L143.333 157.667M92 158L93 159L92 158M135.333 158.667L135.667 159.333L135.333 158.667M208 158L209 159L208 158z"/>
<path style="fill:#e7e7e7; stroke:none;" d="M19 159L20 160L19 159M92 159L93 160L92 159M208.333 159.667L208.667 160.333L208.333 159.667z"/>
<path style="fill:#f2f2f2; stroke:none;" d="M12.3333 160.667L12.6667 161.333L12.3333 160.667M19.3333 160.667L19.6667 161.333L19.3333 160.667M85 160L86 161L85 160M92.3333 160.667L92.6667 161.333L92.3333 160.667z"/>
<path style="fill:#e7e7e7; stroke:none;" d="M135 160L136 161L135 160M215.333 160.667L215.667 161.333L215.333 160.667M85 161L86 162L85 161z"/>
<path style="fill:#f2f2f2; stroke:none;" d="M135 161L136 162L135 161z"/>
<path style="fill:#e7e7e7; stroke:none;" d="M142 161L143 162L142 161z"/>
<path style="fill:#f2f2f2; stroke:none;" d="M208 161L209 162L208 161z"/>
<path style="fill:#e7e7e7; stroke:none;" d="M12 162L13 163L12 162z"/>
<path style="fill:#dadada; stroke:none;" d="M20 162L21 163L20 162M85 162L86 163L85 162M93 162L94 163L93 162M134.333 162.667L134.667 163.333L134.333 162.667M142 162L143 163L142 162M207 162L208 163L207 162z"/>
<path style="fill:#e7e7e7; stroke:none;" d="M20 163L21 164L20 163M93 163L94 164L93 163M207 163L208 164L207 163z"/>
<path style="fill:#f2f2f2; stroke:none;" d="M13 164L14 165L13 164M20 164L21 165L20 164M86 164L87 165L86 164M93 164L94 165L93 164z"/>
<path style="fill:#e7e7e7; stroke:none;" d="M134 164L135 165L134 164z"/>
<path style="fill:#f2f2f2; stroke:none;" d="M207 164L208 165L207 164z"/>
<path style="fill:#e7e7e7; stroke:none;" d="M214.333 164.667L214.667 165.333L214.333 164.667M13 165L14 166L13 165z"/>
<path style="fill:#dadada; stroke:none;" d="M21 165L22 166L21 165z"/>
<path style="fill:#e7e7e7; stroke:none;" d="M86 165L87 166L86 165z"/>
<path style="fill:#dadada; stroke:none;" d="M94 165L95 166L94 165z"/>
<path style="fill:#e7e7e7; stroke:none;" d="M141 165L142 166L141 165z"/>
<path style="fill:#dadada; stroke:none;" d="M206 165L207 166L206 165M13 166L14 167L13 166z"/>
<path style="fill:#e7e7e7; stroke:none;" d="M21 166L22 167L21 166z"/>
<path style="fill:#dadada; stroke:none;" d="M86 166L87 167L86 166z"/>
<path style="fill:#e7e7e7; stroke:none;" d="M94 166L95 167L94 166M133 166L134 167L133 166z"/>
<path style="fill:#dadada; stroke:none;" d="M141 166L142 167L141 166z"/>
<path style="fill:#e7e7e7; stroke:none;" d="M206 166L207 167L206 166z"/>
<path style="fill:#f2f2f2; stroke:none;" d="M21 167L22 168L21 167M94 167L95 168L94 167M133 167L134 168L133 167M206 167L207 168L206 167M213 167L214 168L213 167z"/>
<path style="fill:#e7e7e7; stroke:none;" d="M14 168L15 169L14 168z"/>
<path style="fill:#dadada; stroke:none;" d="M22 168L23 169L22 168z"/>
<path style="fill:#e7e7e7; stroke:none;" d="M87 168L88 169L87 168z"/>
<path style="fill:#dadada; stroke:none;" d="M95 168L96 169L95 168M132 168L133 169L132 168z"/>
<path style="fill:#e7e7e7; stroke:none;" d="M140 168L141 169L140 168z"/>
<path style="fill:#dadada; stroke:none;" d="M205 168L206 169L205 168z"/>
<path style="fill:#e7e7e7; stroke:none;" d="M213 168L214 169L213 168z"/>
<path style="fill:#dadada; stroke:none;" d="M14 169L15 170L14 169z"/>
<path style="fill:#e7e7e7; stroke:none;" d="M22 169L23 170L22 169z"/>
<path style="fill:#dadada; stroke:none;" d="M87 169L88 170L87 169z"/>
<path style="fill:#e7e7e7; stroke:none;" d="M95 169L96 170L95 169M132 169L133 170L132 169M205 169L206 170L205 169z"/>
<path style="fill:#dadada; stroke:none;" d="M23 170L24 171L23 170z"/>
<path style="fill:#f2f2f2; stroke:none;" d="M88 170L89 171L88 170z"/>
<path style="fill:#dadada; stroke:none;" d="M96 170L97 171L96 170M204 170L205 171L204 170z"/>
<path style="fill:#e7e7e7; stroke:none;" d="M212 170L213 171L212 170M15 171L16 172L15 171M23 171L24 172L23 171M88 171L89 172L88 171M96 171L97 172L96 171M131 171L132 172L131 171M139 171L140 172L139 171M204 171L205 172L204 171z"/>
<path style="fill:#dadada; stroke:none;" d="M212 171L213 172L212 171M24 172L25 173L24 172z"/>
<path style="fill:#f2f2f2; stroke:none;" d="M96 172L97 173L96 172z"/>
<path style="fill:#e7e7e7; stroke:none;" d="M16 173L17 174L16 173M24 173L25 174L24 173M89 173L90 174L89 173M97 173L98 174L97 173z"/>
<path style="fill:#dadada; stroke:none;" d="M130 173L131 174L130 173z"/>
<path style="fill:#e7e7e7; stroke:none;" d="M138 173L139 174L138 173M203 173L204 174L203 173M211 173L212 174L211 173z"/>
<path style="fill:#dadada; stroke:none;" d="M16 174L17 175L16 174M25 174L26 175L25 174z"/>
<path style="fill:#f2f2f2; stroke:none;" d="M97 174L98 175L97 174M17 175L18 176L17 175z"/>
<path style="fill:#e7e7e7; stroke:none;" d="M25 175L26 176L25 175M90 175L91 176L90 175M98 175L99 176L98 175M129 175L130 176L129 175M137 175L138 176L137 175M202 175L203 176L202 175M210 175L211 176L210 175z"/>
<path style="fill:#dadada; stroke:none;" d="M17 176L18 177L17 176M26 176L27 177L26 176M90 176L91 177L90 176M99 176L100 177L99 176M128 176L129 177L128 176M137 176L138 177L137 176M201 176L202 177L201 176z"/>
<path style="fill:#e7e7e7; stroke:none;" d="M18 177L19 178L18 177z"/>
<path style="fill:#f2f2f2; stroke:none;" d="M26 177L27 178L26 177M91 177L92 178L91 177z"/>
<path style="fill:#e7e7e7; stroke:none;" d="M99 177L100 178L99 177M128 177L129 178L128 177M136 177L137 178L136 177z"/>
<path style="fill:#f2f2f2; stroke:none;" d="M201 177L202 178L201 177z"/>
<path style="fill:#e7e7e7; stroke:none;" d="M209 177L210 178L209 177z"/>
<path style="fill:#dadada; stroke:none;" d="M18 178L19 179L18 178z"/>
<path style="fill:#e7e7e7; stroke:none;" d="M27 178L28 179L27 178z"/>
<path style="fill:#dadada; stroke:none;" d="M91 178L92 179L91 178M100 178L102 180L100 178M127 178L128 179L127 178M136 178L137 179L136 178M200 178L201 179L200 178z"/>
<path style="fill:#e7e7e7; stroke:none;" d="M19 179L20 180L19 179z"/>
<path style="fill:#dadada; stroke:none;" d="M28 179L29 180L28 179z"/>
<path style="fill:#e7e7e7; stroke:none;" d="M92 179L93 180L92 179z"/>
<path style="fill:#f2f2f2; stroke:none;" d="M100 179L101 180L100 179M127 179L128 180L127 179z"/>
<path style="fill:#e7e7e7; stroke:none;" d="M135 179L136 180L135 179M208 179L209 180L208 179M28 180L29 181L28 180M101 180L102 181L101 180M126 180L127 181L126 180M199 180L200 181L199 180M20 181L21 182L20 181M29 181L30 182L29 181M93 181L94 182L93 181z"/>
<path style="fill:#dadada; stroke:none;" d="M102 181L103 182L102 181M125 181L126 182L125 181M134 181L135 182L134 181M198 181L199 182L198 181M207 181L208 182L207 181M30 182L31 183L30 182z"/>
<path style="fill:#f2f2f2; stroke:none;" d="M94 182L95 183L94 182z"/>
<path style="fill:#dadada; stroke:none;" d="M103 182L104 183L103 182M124 182L125 183L124 182z"/>
<path style="fill:#f2f2f2; stroke:none;" d="M133 182L134 183L133 182z"/>
<path style="fill:#dadada; stroke:none;" d="M197 182L198 183L197 182z"/>
<path style="fill:#e7e7e7; stroke:none;" d="M206 182L207 183L206 182z"/>
<path style="fill:#dadada; stroke:none;" d="M21 183L22 184L21 183M31 183L32 184L31 183M94 183L95 184L94 183z"/>
<path style="fill:#e7e7e7; stroke:none;" d="M103 183L104 184L103 183z"/>
<path style="fill:#f2f2f2; stroke:none;" d="M124 183L125 184L124 183z"/>
<path style="fill:#dadada; stroke:none;" d="M133 183L134 184L133 183z"/>
<path style="fill:#f2f2f2; stroke:none;" d="M197 183L198 184L197 183z"/>
<path style="fill:#e7e7e7; stroke:none;" d="M22 184L23 185L22 184M31 184L32 185L31 184M95 184L96 185L95 184M104 184L105 185L104 184M123 184L124 185L123 184M132 184L133 185L132 184M196 184L197 185L196 184z"/>
<path style="fill:#dadada; stroke:none;" d="M205 184L206 185L205 184z"/>
<path style="fill:#e7e7e7; stroke:none;" d="M23 185L24 186L23 185M32 185L33 186L32 185M96 185L97 186L96 185M105 185L106 186L105 185M122 185L123 186L122 185z"/>
<path style="fill:#f2f2f2; stroke:none;" d="M131 185L132 186L131 185z"/>
<path style="fill:#e7e7e7; stroke:none;" d="M195 185L196 186L195 185M204 185L205 186L204 185M33 186L34 187L33 186M106 186L107 187L106 186z"/>
<path style="fill:#dadada; stroke:none;" d="M121 186L122 187L121 186M194 186L195 187L194 186z"/>
<path style="fill:#f2f2f2; stroke:none;" d="M203 186L204 187L203 186z"/>
<path style="fill:#dadada; stroke:none;" d="M24 187L25 188L24 187z"/>
<path style="fill:#e7e7e7; stroke:none;" d="M34 187L35 188L34 187z"/>
<path style="fill:#dadada; stroke:none;" d="M97 187L98 188L97 187M107 187L108 188L107 187M120 187L121 188L120 187M130 187L131 188L130 187M193 187L194 188L193 187z"/>
<path style="fill:#e7e7e7; stroke:none;" d="M25 188L26 189L25 188M35 188L36 189L35 188M98 188L99 189L98 188z"/>
<path style="fill:#dadada; stroke:none;" d="M108 188L109 189L108 188M119 188L120 189L119 188z"/>
<path style="fill:#e7e7e7; stroke:none;" d="M129 188L130 189L129 188z"/>
<path style="fill:#dadada; stroke:none;" d="M192 188L193 189L192 188M202 188L203 189L202 188z"/>
<path style="fill:#e7e7e7; stroke:none;" d="M26 189L27 190L26 189z"/>
<path style="fill:#dadada; stroke:none;" d="M36 189L37 190L36 189z"/>
<path style="fill:#e7e7e7; stroke:none;" d="M99 189L100 190L99 189z"/>
<path style="fill:#dadada; stroke:none;" d="M109 189L110 190L109 189M118 189L119 190L118 189z"/>
<path style="fill:#f2f2f2; stroke:none;" d="M128 189L129 190L128 189z"/>
<path style="fill:#dadada; stroke:none;" d="M191 189L192 190L191 189z"/>
<path style="fill:#e7e7e7; stroke:none;" d="M201 189L202 190L201 189M27 190L28 191L27 190M37 190L38 191L37 190M100 190L101 191L100 190M110 190L111 191L110 190z"/>
<path style="fill:#dadada; stroke:none;" d="M117 190L118 191L117 190z"/>
<path style="fill:#f2f2f2; stroke:none;" d="M127 190L128 191L127 190z"/>
<path style="fill:#dadada; stroke:none;" d="M190 190L191 191L190 190z"/>
<path style="fill:#e7e7e7; stroke:none;" d="M200 190L201 191L200 190z"/>
<path style="fill:#f2f2f2; stroke:none;" d="M28 191L29 192L28 191z"/>
<path style="fill:#e7e7e7; stroke:none;" d="M38 191L39 192L38 191z"/>
<path style="fill:#f2f2f2; stroke:none;" d="M101 191L102 192L101 191z"/>
<path style="fill:#e7e7e7; stroke:none;" d="M111 191L112 192L111 191M116 191L117 192L116 191z"/>
<path style="fill:#f2f2f2; stroke:none;" d="M126 191L127 192L126 191z"/>
<path style="fill:#e7e7e7; stroke:none;" d="M189 191L190 192L189 191z"/>
<path style="fill:#f2f2f2; stroke:none;" d="M199 191L200 192L199 191z"/>
<path style="fill:#e7e7e7; stroke:none;" d="M39 192L40 193L39 192z"/>
<path style="fill:#dadada; stroke:none;" d="M40 192L42 194L40 192z"/>
<path style="fill:#e7e7e7; stroke:none;" d="M112 192L113 193L112 192z"/>
<path style="fill:#dadada; stroke:none;" d="M113 192L114 193L113 192z"/>
<path style="fill:#f2f2f2; stroke:none;" d="M115 192L116 193L115 192M125 192L126 193L125 192M188 192L189 193L188 192M198 192L199 193L198 192z"/>
<path style="fill:#dadada; stroke:none;" d="M29 193L30 194L29 193z"/>
<path style="fill:#f2f2f2; stroke:none;" d="M40 193L41 194L40 193M113.667 193.333L114.333 193.667L113.667 193.333M187 193L188 194L187 193M197 193L198 194L197 193z"/>
<path style="fill:#dadada; stroke:none;" d="M30 194L31 195L30 194z"/>
<path style="fill:#e7e7e7; stroke:none;" d="M42 194L43 195L42 194z"/>
<path style="fill:#f2f2f2; stroke:none;" d="M123 194L124 195L123 194z"/>
<path style="fill:#dadada; stroke:none;" d="M185 194L186 195L185 194z"/>
<path style="fill:#f2f2f2; stroke:none;" d="M196 194L197 195L196 194M32 195L33 196L32 195M43 195L44 196L43 195z"/>
<path style="fill:#dadada; stroke:none;" d="M44 195L45 196L44 195z"/>
<path style="fill:#f2f2f2; stroke:none;" d="M105 195L106 196L105 195M122 195L123 196L122 195M184 195L185 196L184 195M195 195L196 196L195 195M33 196L34 197L33 196z"/>
<path style="fill:#dadada; stroke:none;" d="M45 196L46 197L45 196z"/>
<path style="fill:#f2f2f2; stroke:none;" d="M106 196L107 197L106 196M121 196L122 197L121 196z"/>
<path style="fill:#dadada; stroke:none;" d="M182 196L183 197L182 196z"/>
<path style="fill:#e7e7e7; stroke:none;" d="M194 196L195 197L194 196M34 197L35 198L34 197z"/>
<path style="fill:#f2f2f2; stroke:none;" d="M46 197L47 198L46 197z"/>
<path style="fill:#dadada; stroke:none;" d="M47 197L48 198L47 197z"/>
<path style="fill:#e7e7e7; stroke:none;" d="M107 197L108 198L107 197z"/>
<path style="fill:#f2f2f2; stroke:none;" d="M120 197L121 198L120 197z"/>
<path style="fill:#e7e7e7; stroke:none;" d="M181 197L182 198L181 197M193 197L194 198L193 197M35 198L36 199L35 198M48 198L49 199L48 198z"/>
<path style="fill:#dadada; stroke:none;" d="M49 198L50 199L49 198z"/>
<path style="fill:#e7e7e7; stroke:none;" d="M106 198L107 199L106 198M121 198L122 199L121 198z"/>
<path style="fill:#dadada; stroke:none;" d="M122 198L123 199L122 198z"/>
<path style="fill:#e7e7e7; stroke:none;" d="M179 198L180 199L179 198z"/>
<path style="fill:#dadada; stroke:none;" d="M192 198L193 199L192 198M36 199L37 200L36 199z"/>
<path style="fill:#e7e7e7; stroke:none;" d="M50 199L51 200L50 199z"/>
<path style="fill:#dadada; stroke:none;" d="M51 199L52 200L51 199z"/>
<path style="fill:#e7e7e7; stroke:none;" d="M104 199L105 200L104 199M123 199L124 200L123 199z"/>
<path style="fill:#dadada; stroke:none;" d="M124 199L125 200L124 199z"/>
<path style="fill:#e7e7e7; stroke:none;" d="M177 199L178 200L177 199z"/>
<path style="fill:#f2f2f2; stroke:none;" d="M190 199L191 200L190 199z"/>
<path style="fill:#dadada; stroke:none;" d="M191 199L192 200L191 199z"/>
<path style="fill:#f2f2f2; stroke:none;" d="M38 200L39 201L38 200M51 200L52 201L51 200z"/>
<path style="fill:#e7e7e7; stroke:none;" d="M52 200L53 201L52 200z"/>
<path style="fill:#dadada; stroke:none;" d="M53 200L54 201L53 200z"/>
<path style="fill:#e7e7e7; stroke:none;" d="M102 200L103 201L102 200M125 200L126 201L125 200z"/>
<path style="fill:#dadada; stroke:none;" d="M126 200L127 201L126 200z"/>
<path style="fill:#e7e7e7; stroke:none;" d="M175 200L176 201L175 200z"/>
<path style="fill:#f2f2f2; stroke:none;" d="M176 200L177 201L176 200z"/>
<path style="fill:#e7e7e7; stroke:none;" d="M189 200L190 201L189 200M39 201L40 202L39 201z"/>
<path style="fill:#f2f2f2; stroke:none;" d="M54 201L55 202L54 201z"/>
<path style="fill:#dadada; stroke:none;" d="M55 201L56 202L55 201z"/>
<path style="fill:#e7e7e7; stroke:none;" d="M100 201L101 202L100 201M127 201L128 202L127 201z"/>
<path style="fill:#dadada; stroke:none;" d="M128 201L129 202L128 201M172 201L173 202L172 201z"/>
<path style="fill:#f2f2f2; stroke:none;" d="M173 201L174 202L173 201z"/>
<path style="fill:#dadada; stroke:none;" d="M188 201L189 202L188 201M40 202L41 203L40 202z"/>
<path style="fill:#f2f2f2; stroke:none;" d="M41 202L42 203L41 202M56 202L57 203L56 202z"/>
<path style="fill:#dadada; stroke:none;" d="M57.6667 202.333L58.3333 202.667L57.6667 202.333z"/>
<path style="fill:#e7e7e7; stroke:none;" d="M97 202L98 203L97 202z"/>
<path style="fill:#f2f2f2; stroke:none;" d="M98 202L99 203L98 202M113.667 202.333L114.333 202.667L113.667 202.333M129 202L130 203L129 202z"/>
<path style="fill:#e7e7e7; stroke:none;" d="M130 202L131 203L130 202z"/>
<path style="fill:#dadada; stroke:none;" d="M131 202L132 203L131 202z"/>
<path style="fill:#e7e7e7; stroke:none;" d="M170 202L171 203L170 202z"/>
<path style="fill:#f2f2f2; stroke:none;" d="M171 202L172 203L171 202M186 202L187 203L186 202z"/>
<path style="fill:#e7e7e7; stroke:none;" d="M42 203L43 204L42 203z"/>
<path style="fill:#f2f2f2; stroke:none;" d="M59 203L60 204L59 203z"/>
<path style="fill:#e7e7e7; stroke:none;" d="M60 203L61 204L60 203z"/>
<path style="fill:#dadada; stroke:none;" d="M61 203L62 204L61 203z"/>
<path style="fill:#e7e7e7; stroke:none;" d="M94 203L95 204L94 203z"/>
<path style="fill:#f2f2f2; stroke:none;" d="M95 203L96 204L95 203M111 203L112 204L111 203z"/>
<path style="fill:#dadada; stroke:none;" d="M112 203L113 204L112 203M115 203L116 204L115 203z"/>
<path style="fill:#f2f2f2; stroke:none;" d="M132 203L133 204L132 203z"/>
<path style="fill:#dadada; stroke:none;" d="M133.667 203.333L134.333 203.667L133.667 203.333z"/>
<path style="fill:#e7e7e7; stroke:none;" d="M167 203L168 204L167 203z"/>
<path style="fill:#f2f2f2; stroke:none;" d="M168 203L169 204L168 203M184 203L185 204L184 203z"/>
<path style="fill:#dadada; stroke:none;" d="M185 203L186 204L185 203z"/>
<path style="fill:#e7e7e7; stroke:none;" d="M44 204L45 205L44 204z"/>
<path style="fill:#f2f2f2; stroke:none;" d="M62 204L63 205L62 204z"/>
<path style="fill:#e7e7e7; stroke:none;" d="M63 204L64 205L63 204z"/>
<path style="fill:#dadada; stroke:none;" d="M64.6667 204.333L65.3333 204.667L64.6667 204.333M89 204L90 205L89 204z"/>
<path style="fill:#e7e7e7; stroke:none;" d="M90 204L91 205L90 204z"/>
<path style="fill:#f2f2f2; stroke:none;" d="M91 204L92 205L91 204z"/>
<path style="fill:#e7e7e7; stroke:none;" d="M110 204L111 205L110 204M117 204L118 205L117 204z"/>
<path style="fill:#f2f2f2; stroke:none;" d="M135 204L136 205L135 204z"/>
<path style="fill:#e7e7e7; stroke:none;" d="M136 204L137 205L136 204z"/>
<path style="fill:#dadada; stroke:none;" d="M137.667 204.333L138.333 204.667L137.667 204.333z"/>
<path style="fill:#e7e7e7; stroke:none;" d="M163 204L164 205L163 204z"/>
<path style="fill:#f2f2f2; stroke:none;" d="M164 204L165 205L164 204z"/>
<path style="fill:#e7e7e7; stroke:none;" d="M183 204L184 205L183 204z"/>
<path style="fill:#f2f2f2; stroke:none;" d="M46 205L47 206L46 205M67.6667 205.333L68.3333 205.667L67.6667 205.333z"/>
<path style="fill:#e7e7e7; stroke:none;" d="M69 205L70 206L69 205z"/>
<path style="fill:#dadada; stroke:none;" d="M70 205L70 206L74 206L70 205M81 205L81 206L85 206L81 205z"/>
<path style="fill:#e7e7e7; stroke:none;" d="M85 205L86 206L85 205z"/>
<path style="fill:#f2f2f2; stroke:none;" d="M86 205L87 206L86 205z"/>
<path style="fill:#e7e7e7; stroke:none;" d="M108 205L109 206L108 205M119 205L120 206L119 205z"/>
<path style="fill:#f2f2f2; stroke:none;" d="M140 205L141 206L140 205z"/>
<path style="fill:#e7e7e7; stroke:none;" d="M141.667 205.333L142.333 205.667L141.667 205.333z"/>
<path style="fill:#dadada; stroke:none;" d="M143 205L143 206L147 206L143 205M155.667 205.333L156.333 205.667L155.667 205.333z"/>
<path style="fill:#e7e7e7; stroke:none;" d="M157.667 205.333L158.333 205.667L157.667 205.333z"/>
<path style="fill:#f2f2f2; stroke:none;" d="M159 205L160 206L159 205M181 205L182 206L181 205z"/>
<path style="fill:#dadada; stroke:none;" d="M47 206L48 207L47 206z"/>
<path style="fill:#f2f2f2; stroke:none;" d="M48 206L49 207L48 206M106 206L107 207L106 206z"/>
<path style="fill:#dadada; stroke:none;" d="M107 206L108 207L107 206M120 206L121 207L120 206z"/>
<path style="fill:#f2f2f2; stroke:none;" d="M121 206L122 207L121 206z"/>
<path style="fill:#e7e7e7; stroke:none;" d="M179 206L180 207L179 206z"/>
<path style="fill:#dadada; stroke:none;" d="M180 206L181 207L180 206M49 207L50 208L49 207z"/>
<path style="fill:#e7e7e7; stroke:none;" d="M50 207L51 208L50 207z"/>
<path style="fill:#f2f2f2; stroke:none;" d="M104 207L105 208L104 207z"/>
<path style="fill:#dadada; stroke:none;" d="M105 207L106 208L105 207M122 207L123 208L122 207z"/>
<path style="fill:#e7e7e7; stroke:none;" d="M123 207L124 208L123 207M177 207L178 208L177 207z"/>
<path style="fill:#dadada; stroke:none;" d="M52 208L53 209L52 208z"/>
<path style="fill:#f2f2f2; stroke:none;" d="M53 208L54 209L53 208M101 208L102 209L101 208z"/>
<path style="fill:#dadada; stroke:none;" d="M102 208L103 209L102 208M125 208L126 209L125 208z"/>
<path style="fill:#f2f2f2; stroke:none;" d="M126 208L127 209L126 208M174 208L175 209L174 208z"/>
<path style="fill:#e7e7e7; stroke:none;" d="M175 208L176 209L175 208z"/>
<path style="fill:#dadada; stroke:none;" d="M54 209L55 210L54 209z"/>
<path style="fill:#f2f2f2; stroke:none;" d="M55 209L56 210L55 209M98 209L99 210L98 209z"/>
<path style="fill:#e7e7e7; stroke:none;" d="M99 209L100 210L99 209M128 209L129 210L128 209z"/>
<path style="fill:#f2f2f2; stroke:none;" d="M129 209L130 210L129 209M171 209L172 210L171 209z"/>
<path style="fill:#e7e7e7; stroke:none;" d="M172 209L173 210L172 209z"/>
<path style="fill:#dadada; stroke:none;" d="M173 209L174 210L173 209M57 210L58 211L57 210z"/>
<path style="fill:#e7e7e7; stroke:none;" d="M58 210L59 211L58 210z"/>
<path style="fill:#f2f2f2; stroke:none;" d="M59 210L60 211L59 210M95.6667 210.333L96.3333 210.667L95.6667 210.333z"/>
<path style="fill:#dadada; stroke:none;" d="M97 210L98 211L97 210M130 210L131 211L130 210z"/>
<path style="fill:#e7e7e7; stroke:none;" d="M131 210L132 211L131 210z"/>
<path style="fill:#f2f2f2; stroke:none;" d="M132 210L133 211L132 210M168 210L169 211L168 210z"/>
<path style="fill:#e7e7e7; stroke:none;" d="M169 210L170 211L169 210z"/>
<path style="fill:#dadada; stroke:none;" d="M170 210L171 211L170 210M61 211L62 212L61 211z"/>
<path style="fill:#e7e7e7; stroke:none;" d="M62 211L63 212L62 211z"/>
<path style="fill:#f2f2f2; stroke:none;" d="M63 211L64 212L63 211M91 211L92 212L91 211z"/>
<path style="fill:#e7e7e7; stroke:none;" d="M92 211L93 212L92 211z"/>
<path style="fill:#dadada; stroke:none;" d="M93 211L94 212L93 211M134 211L135 212L134 211z"/>
<path style="fill:#e7e7e7; stroke:none;" d="M135 211L136 212L135 211z"/>
<path style="fill:#f2f2f2; stroke:none;" d="M136 211L137 212L136 211M164 211L165 212L164 211z"/>
<path style="fill:#e7e7e7; stroke:none;" d="M165 211L166 212L165 211z"/>
<path style="fill:#dadada; stroke:none;" d="M166 211L167 212L166 211M65.6667 212.333L66.3333 212.667L65.6667 212.333z"/>
<path style="fill:#e7e7e7; stroke:none;" d="M67 212L68 213L67 212z"/>
<path style="fill:#f2f2f2; stroke:none;" d="M68.6667 212.333L69.3333 212.667L68.6667 212.333M84 212L84 213L87 213L84 212z"/>
<path style="fill:#e7e7e7; stroke:none;" d="M87.6667 212.333L88.3333 212.667L87.6667 212.333z"/>
<path style="fill:#dadada; stroke:none;" d="M89 212L90 213L89 212M139 212L140 213L139 212z"/>
<path style="fill:#e7e7e7; stroke:none;" d="M140 212L141 213L140 212z"/>
<path style="fill:#f2f2f2; stroke:none;" d="M141 212L141 213L144 213L141 212M158.667 212.333L159.333 212.667L158.667 212.333z"/>
<path style="fill:#e7e7e7; stroke:none;" d="M160.667 212.333L161.333 212.667L160.667 212.333z"/>
<path style="fill:#dadada; stroke:none;" d="M162 212L163 213L162 212M74 213L74 214L81 214L74 213M148 213L148 214L155 214L148 213z"/>
</svg>
