<svg height='100px' width='100px'  fill="#ffffff" xmlns="http://www.w3.org/2000/svg" xmlns:xlink="http://www.w3.org/1999/xlink" version="1.1" x="0px" y="0px" viewBox="0 0 100 100" enable-background="new 0 0 100 100" xml:space="preserve"><g><path fill="none" d="M81.12,30.466c5.283,3.223,9.097,7.104,11.242,11.339c-1.308-6.775-4.204-12.99-8.287-18.24   c-0.187,0.529-0.519,1.161-1.002,1.907l-0.621-0.402c0.746-1.153,0.992-1.832,1.05-2.225c-0.094-0.116-0.187-0.232-0.282-0.347   c-0.204-0.105-1.796-0.547-9.693,4.231c1.956,0.766,3.827,1.633,5.599,2.593c0.403-0.461,0.782-0.905,1.132-1.329l0.57,0.471   c-0.324,0.392-0.671,0.8-1.04,1.223C80.24,29.943,80.684,30.201,81.12,30.466z"></path><path fill="none" d="M40.264,90.971l0.403-0.62c0.969,0.629,1.97,1.169,2.977,1.605l-0.293,0.678   c2.168,0.337,4.388,0.513,6.649,0.513c0.351,0,0.7-0.005,1.049-0.013C64.767,92.574,75.826,73.44,75.826,50   c0-5.098-0.525-9.992-1.485-14.536c-0.257,0.257-0.516,0.514-0.78,0.774l-0.519-0.527c0.377-0.372,0.747-0.741,1.111-1.106   c-0.553-2.452-1.233-4.798-2.028-7.012c-0.251,0.157-0.507,0.317-0.77,0.484c-7.024,4.453-16.051,11.087-24.802,18.224   c-8.938,7.316-16.976,14.606-22.655,20.548c-6.669,6.979-7.677,9.63-7.5,10.184c0.104,0.129,0.206,0.259,0.311,0.386   c0.032,0.002,0.063,0.003,0.093,0.003c0.526,0,1.299-0.198,2.297-0.59l0.27,0.689c-0.829,0.325-1.511,0.524-2.065,0.602   c6.547,7.6,15.692,12.902,26.043,14.51C42.304,92.181,41.266,91.622,40.264,90.971z M59.392,75.785l-0.094-0.733   c1.138-0.147,2.279-0.323,3.393-0.524l0.131,0.728C61.696,75.459,60.542,75.637,59.392,75.785z M70.389,38.279l0.509,0.536   c-0.81,0.77-1.66,1.566-2.524,2.364l-0.502-0.543C68.734,39.84,69.581,39.047,70.389,38.279z M69.603,72.881l0.212,0.708   c-1.09,0.327-2.219,0.631-3.353,0.903l-0.172-0.719C67.411,73.504,68.526,73.204,69.603,72.881z M65.141,43.124l0.495,0.55   c-0.842,0.757-1.711,1.529-2.584,2.297l-0.488-0.555C63.434,44.649,64.301,43.879,65.141,43.124z M59.773,47.839l0.482,0.561   c-0.868,0.746-1.754,1.5-2.633,2.24l-0.476-0.566C58.023,49.335,58.907,48.583,59.773,47.839z M55.694,76.164   c-1.141,0.088-2.307,0.15-3.464,0.184l-0.022-0.739c1.146-0.034,2.3-0.095,3.43-0.182L55.694,76.164z M52.921,53.579   c0.465-0.38,0.927-0.76,1.386-1.138l0.47,0.571c-0.46,0.379-0.923,0.76-1.389,1.14l-0.234-0.286l0.234,0.287   c-0.465,0.38-0.93,0.757-1.392,1.132l-0.465-0.575C51.993,54.335,52.456,53.958,52.921,53.579L52.921,53.579z M48.646,57.019   l0.459,0.58c-0.916,0.726-1.831,1.444-2.72,2.133l-0.454-0.584C46.819,58.459,47.732,57.743,48.646,57.019z M44.363,75.427   c1.129,0.087,2.283,0.148,3.43,0.182l-0.022,0.739c-1.158-0.034-2.323-0.096-3.464-0.184L44.363,75.427z M40.608,75.785   c-1.15-0.148-2.304-0.326-3.43-0.529l0.131-0.728c1.114,0.201,2.255,0.378,3.393,0.524L40.608,75.785z M43.001,61.397l0.447,0.589   c-0.928,0.704-1.859,1.402-2.766,2.074l-0.44-0.594C41.147,62.796,42.075,62.1,43.001,61.397z M31.403,69.732l0.413,0.614   c-0.992,0.667-1.966,1.307-2.892,1.901l-0.399-0.623C29.446,71.033,30.415,70.397,31.403,69.732z M22.751,75.918l-0.348-0.652   c0.91-0.486,1.915-1.057,2.987-1.697l0.379,0.635C24.687,74.85,23.671,75.427,22.751,75.918z M26.655,72.406   c-1.099-0.409-2.181-0.853-3.216-1.318l0.304-0.675c1.02,0.459,2.087,0.897,3.171,1.3L26.655,72.406z M26.243,70.36   c-0.348-1.086-0.672-2.209-0.963-3.337l0.716-0.184c0.287,1.115,0.607,2.224,0.951,3.296L26.243,70.36z M28.887,77.053   c-0.491-1.025-0.959-2.097-1.391-3.187l0.688-0.273c0.426,1.074,0.887,2.13,1.37,3.14L28.887,77.053z M32.514,83.278   c-0.653-0.924-1.287-1.91-1.883-2.93l0.639-0.373c0.585,1.002,1.207,1.97,1.848,2.876L32.514,83.278z M33.538,74.492   c-1.134-0.272-2.263-0.576-3.353-0.903l0.213-0.708c1.077,0.323,2.192,0.623,3.313,0.892L33.538,74.492z M37.259,65.647l0.432,0.6   c-0.955,0.688-1.904,1.362-2.82,2.002l-0.424-0.606C35.361,67.005,36.307,66.333,37.259,65.647z M37.289,88.689   c-0.844-0.752-1.672-1.586-2.46-2.479l0.554-0.49c0.77,0.871,1.576,1.684,2.398,2.417L37.289,88.689z"></path><path fill="none" d="M18.725,30.467c2.745-1.686,5.789-3.121,9.055-4.291l-0.376-0.149c0.433-1.089,0.903-2.161,1.396-3.185   l0.666,0.321c-0.444,0.922-0.867,1.884-1.263,2.862c6.574-2.294,14.033-3.515,21.796-3.515c7.622,0,14.985,1.208,21.52,3.479   C67.064,14.728,59.57,7.214,51.049,6.867C50.7,6.858,50.351,6.853,50,6.853c-2.259,0-4.478,0.175-6.645,0.512l0.28,0.658   c-1.011,0.431-2.016,0.964-2.988,1.587l-0.399-0.623c0.978-0.626,1.989-1.165,3.008-1.605C25.377,10.2,11.113,24.039,7.657,41.702   C9.785,37.496,13.539,33.652,18.725,30.467z M37.258,11.248l0.488,0.555c-0.827,0.727-1.639,1.534-2.414,2.401l-0.551-0.493   C35.576,12.822,36.41,11.994,37.258,11.248z M32.45,16.63l0.602,0.43c-0.646,0.903-1.272,1.868-1.86,2.867l-0.637-0.375   C31.153,18.535,31.791,17.552,32.45,16.63z"></path><path fill="none" d="M70.723,27.019C64.417,24.88,57.335,23.742,50,23.742C26.209,23.742,6.853,35.521,6.853,50   c0,9.654,3.187,18.577,8.564,25.774c0.255-0.677,0.704-1.483,1.358-2.436c0.783-1.143,1.846-2.481,3.17-3.999   c-0.982-0.545-1.931-1.121-2.822-1.715l0.41-0.615c0.917,0.611,1.897,1.204,2.912,1.763c0.774-0.87,1.628-1.794,2.563-2.773   c5.665-5.928,13.656-13.182,22.542-20.467l-0.001-0.001c0.077-0.063,0.153-0.125,0.23-0.187c0.083-0.068,0.165-0.135,0.248-0.203   l0.001,0.001c8.826-7.186,17.569-13.603,24.669-18.105C70.705,27.03,70.714,27.025,70.723,27.019z M9.204,60.105   c-0.683-0.988-1.271-2.011-1.747-3.043l0.672-0.31c0.458,0.993,1.024,1.979,1.683,2.932L9.204,60.105z M14.126,65.395   c-0.918-0.764-1.777-1.566-2.552-2.385l0.537-0.509c0.755,0.797,1.592,1.579,2.488,2.324L14.126,65.395z M24.38,36.503l0.726,0.14   c-0.213,1.111-0.401,2.25-0.556,3.386l-0.733-0.1C23.974,38.779,24.164,37.627,24.38,36.503z M23.414,43.625l0.737,0.06   c-0.092,1.132-0.156,2.286-0.191,3.428l-0.739-0.023C23.256,45.936,23.321,44.77,23.414,43.625z M23.242,52.815l0.739-0.029   c0.044,1.143,0.117,2.296,0.216,3.427l-0.737,0.065C23.36,55.135,23.286,53.97,23.242,52.815z M24.46,63.395   c-0.22-1.122-0.414-2.274-0.577-3.423l0.732-0.104c0.161,1.136,0.353,2.275,0.571,3.385L24.46,63.395z M25.907,33.055l-0.717-0.183   c0.289-1.13,0.611-2.253,0.959-3.339l0.705,0.226C26.511,30.83,26.192,31.939,25.907,33.055z"></path><path fill="none" d="M69.358,18.733c1.288,2.167,2.424,4.52,3.403,7.021c2.628-1.595,4.843-2.788,6.603-3.555   c1.136-0.495,2.057-0.803,2.795-0.93C76.07,14.46,67.858,9.589,58.571,7.71C62.609,9.848,66.299,13.585,69.358,18.733z"></path><path fill="none" d="M80.478,31.519c-0.498-0.304-1.006-0.599-1.523-0.886c-0.134,0.149-0.269,0.298-0.407,0.45l-0.547-0.498   c0.096-0.105,0.191-0.21,0.285-0.314c-1.488-0.795-3.048-1.521-4.67-2.177c0.599,1.762,1.123,3.588,1.57,5.466   c0.095-0.097,0.191-0.195,0.285-0.291l0.531,0.515c-0.202,0.208-0.409,0.419-0.618,0.632c1.099,4.917,1.675,10.177,1.675,15.586   c0,7.629-1.143,14.963-3.29,21.453c0.849-0.329,1.683-0.677,2.489-1.04l0.303,0.675c-0.999,0.449-2.042,0.878-3.102,1.275   c-1.123,3.209-2.494,6.202-4.101,8.905c-3.06,5.148-6.749,8.885-10.787,11.023C78.27,88.304,93.147,70.857,93.147,50   C93.147,43.067,88.647,36.503,80.478,31.519z M79.898,69.427l-0.356-0.648c1.019-0.561,2.004-1.156,2.925-1.77l0.41,0.615   C81.938,68.249,80.935,68.856,79.898,69.427z M85.874,65.395l-0.473-0.569c0.896-0.746,1.733-1.528,2.488-2.324l0.537,0.509   C87.651,63.828,86.793,64.63,85.874,65.395z M90.188,59.684c0.659-0.954,1.226-1.94,1.683-2.932l0.672,0.31   c-0.475,1.03-1.063,2.054-1.746,3.042L90.188,59.684z"></path><path fill="#ffffff" d="M94.379,50c0-10.727-3.826-20.578-10.185-28.259l0.007-0.006c-0.036-0.044-0.076-0.084-0.117-0.123   c-7.926-9.501-19.74-15.651-32.974-15.977c-0.226-0.009-0.453-0.014-0.68-0.014v0.005C50.288,5.625,50.144,5.621,50,5.621   C25.529,5.621,5.621,25.529,5.621,50c0,10.473,3.649,20.108,9.739,27.707c0.035,0.061,0.075,0.119,0.12,0.175l0.012-0.01   C23.635,87.933,36.078,94.379,50,94.379c0.144,0,0.288-0.004,0.431-0.005v0.005c0.227,0,0.454-0.005,0.68-0.014   C75.071,93.773,94.379,74.099,94.379,50z M80.26,27.995c-0.35,0.424-0.729,0.868-1.132,1.329c-1.772-0.96-3.643-1.827-5.599-2.593   c7.896-4.778,9.488-4.335,9.693-4.231c0.095,0.115,0.188,0.231,0.282,0.347c-0.058,0.393-0.304,1.072-1.05,2.225l0.621,0.402   c0.483-0.746,0.815-1.378,1.002-1.907c4.083,5.251,6.979,11.466,8.287,18.24c-2.145-4.235-5.959-8.116-11.242-11.339   c-0.436-0.266-0.88-0.524-1.33-0.777c0.368-0.423,0.716-0.831,1.04-1.223L80.26,27.995z M46.027,45.141L46.027,45.141   c-0.083,0.067-0.166,0.135-0.248,0.202c-0.077,0.062-0.153,0.124-0.23,0.187l0.001,0.001c-8.886,7.285-16.876,14.539-22.542,20.467   c-0.935,0.978-1.789,1.903-2.563,2.773c-1.015-0.559-1.995-1.152-2.912-1.763l-0.41,0.615c0.891,0.594,1.84,1.169,2.822,1.715   c-1.324,1.518-2.386,2.856-3.17,3.999c-0.654,0.953-1.103,1.759-1.358,2.436C10.041,68.577,6.853,59.654,6.853,50   c0-14.479,19.355-26.258,43.147-26.258c7.335,0,14.417,1.138,20.723,3.277c-0.009,0.006-0.018,0.011-0.027,0.017   C63.596,31.537,54.853,37.955,46.027,45.141z M82.16,21.269c-0.738,0.127-1.659,0.435-2.795,0.93   c-1.76,0.767-3.975,1.96-6.603,3.555c-0.979-2.501-2.115-4.854-3.403-7.021c-3.06-5.148-6.749-8.885-10.787-11.023   C67.858,9.589,76.07,14.46,82.16,21.269z M43.256,7.382c-1.018,0.44-2.03,0.979-3.008,1.605l0.399,0.623   c0.972-0.622,1.977-1.156,2.988-1.587l-0.28-0.658C45.522,7.029,47.741,6.853,50,6.853c0.351,0,0.7,0.005,1.049,0.013   c8.521,0.347,16.016,7.861,20.472,19.122c-6.535-2.27-13.898-3.479-21.52-3.479c-7.764,0-15.222,1.221-21.796,3.515   c0.396-0.978,0.819-1.94,1.263-2.862L28.8,22.842c-0.493,1.024-0.963,2.096-1.396,3.185l0.376,0.149   c-3.266,1.17-6.31,2.605-9.055,4.291c-5.186,3.185-8.94,7.029-11.068,11.234C11.113,24.039,25.377,10.2,43.256,7.382z    M17.305,78.123c0.554-0.078,1.235-0.277,2.065-0.602l-0.27-0.689c-0.998,0.391-1.771,0.59-2.297,0.59   c-0.03,0-0.061-0.001-0.093-0.003c-0.105-0.127-0.207-0.257-0.311-0.386c-0.176-0.554,0.831-3.205,7.5-10.184   c5.679-5.943,13.717-13.233,22.655-20.548c8.751-7.137,17.778-13.771,24.802-18.224c0.263-0.167,0.518-0.327,0.77-0.484   c0.795,2.214,1.475,4.56,2.028,7.012c-0.364,0.365-0.734,0.734-1.111,1.106l0.519,0.527c0.263-0.26,0.523-0.517,0.78-0.774   c0.96,4.544,1.485,9.438,1.485,14.536c0,23.44-11.059,42.574-24.778,43.133C50.7,93.142,50.351,93.147,50,93.147   c-2.261,0-4.481-0.176-6.649-0.513l0.293-0.678c-1.007-0.436-2.009-0.976-2.977-1.605l-0.403,0.62   c1.003,0.651,2.04,1.211,3.084,1.663C32.997,91.025,23.852,85.724,17.305,78.123z M58.571,92.29   c4.038-2.138,7.727-5.875,10.787-11.023c1.607-2.703,2.978-5.695,4.101-8.905c1.06-0.397,2.103-0.825,3.102-1.275l-0.303-0.675   c-0.805,0.362-1.64,0.71-2.489,1.04c2.147-6.49,3.29-13.824,3.29-21.453c0-5.409-0.575-10.669-1.675-15.586   c0.209-0.213,0.415-0.423,0.618-0.632l-0.531-0.515c-0.093,0.096-0.19,0.194-0.285,0.291c-0.447-1.878-0.971-3.705-1.57-5.466   c1.622,0.656,3.182,1.383,4.67,2.177c-0.094,0.104-0.189,0.209-0.285,0.314l0.547,0.498c0.138-0.151,0.273-0.301,0.407-0.45   c0.517,0.287,1.025,0.582,1.523,0.886C88.647,36.503,93.147,43.067,93.147,50C93.147,70.857,78.27,88.304,58.571,92.29z"></path><path fill="#ffffff" d="M7.458,57.062c0.476,1.031,1.063,2.055,1.747,3.043l0.608-0.421c-0.659-0.952-1.225-1.939-1.683-2.932   L7.458,57.062z"></path><path fill="#ffffff" d="M30.185,73.589c1.091,0.327,2.219,0.631,3.353,0.903l0.172-0.719c-1.121-0.268-2.236-0.569-3.313-0.892   L30.185,73.589z"></path><path fill="#ffffff" d="M12.111,62.501l-0.537,0.509c0.775,0.818,1.634,1.62,2.552,2.385l0.473-0.569   C13.703,64.08,12.866,63.298,12.111,62.501z"></path><path fill="#ffffff" d="M37.178,75.255c1.126,0.203,2.28,0.381,3.43,0.529l0.095-0.733c-1.138-0.147-2.279-0.323-3.393-0.524   L37.178,75.255z"></path><path fill="#ffffff" d="M47.793,75.609c-1.146-0.034-2.3-0.095-3.43-0.182l-0.057,0.737c1.141,0.088,2.307,0.15,3.464,0.184   L47.793,75.609z"></path><path fill="#ffffff" d="M23.439,71.088c1.035,0.466,2.117,0.909,3.216,1.318l0.258-0.693c-1.084-0.403-2.15-0.841-3.171-1.3   L23.439,71.088z"></path><path fill="#ffffff" d="M69.815,73.589l-0.212-0.708c-1.077,0.323-2.192,0.623-3.313,0.892l0.172,0.719   C67.597,74.22,68.725,73.916,69.815,73.589z"></path><path fill="#ffffff" d="M85.401,64.826l0.473,0.569c0.919-0.764,1.777-1.567,2.552-2.385l-0.537-0.509   C87.134,63.298,86.297,64.08,85.401,64.826z"></path><path fill="#ffffff" d="M59.297,75.051l0.094,0.733c1.15-0.148,2.304-0.326,3.43-0.529l-0.131-0.728   C61.577,74.728,60.435,74.905,59.297,75.051z"></path><path fill="#ffffff" d="M52.23,76.348c1.158-0.034,2.323-0.096,3.464-0.184l-0.057-0.737c-1.129,0.087-2.283,0.148-3.43,0.182   L52.23,76.348z"></path><path fill="#ffffff" d="M91.871,56.752c-0.457,0.992-1.024,1.978-1.683,2.932l0.609,0.42c0.683-0.989,1.271-2.012,1.746-3.042   L91.871,56.752z"></path><path fill="#ffffff" d="M79.541,68.778l0.356,0.648c1.038-0.571,2.04-1.177,2.979-1.803l-0.41-0.615   C81.545,67.622,80.561,68.218,79.541,68.778z"></path><path fill="#ffffff" d="M25.106,36.642l-0.726-0.14c-0.216,1.124-0.405,2.277-0.563,3.426l0.733,0.1   C24.705,38.893,24.893,37.753,25.106,36.642z"></path><path fill="#ffffff" d="M24.151,43.685l-0.737-0.06c-0.093,1.145-0.158,2.31-0.193,3.465l0.739,0.023   C23.995,45.97,24.06,44.817,24.151,43.685z"></path><path fill="#ffffff" d="M33.052,17.061l-0.602-0.43c-0.659,0.921-1.296,1.904-1.896,2.922l0.637,0.375   C31.78,18.929,32.406,17.964,33.052,17.061z"></path><path fill="#ffffff" d="M25.19,32.872l0.717,0.183c0.285-1.116,0.604-2.225,0.947-3.296l-0.705-0.226   C25.802,30.618,25.479,31.742,25.19,32.872z"></path><path fill="#ffffff" d="M37.747,11.803l-0.488-0.555c-0.849,0.746-1.682,1.575-2.477,2.463l0.551,0.493   C36.108,13.338,36.92,12.53,37.747,11.803z"></path><path fill="#ffffff" d="M25.281,67.023c0.291,1.129,0.614,2.251,0.963,3.337l0.704-0.226c-0.344-1.072-0.664-2.181-0.951-3.296   L25.281,67.023z"></path><path fill="#ffffff" d="M30.631,80.348c0.596,1.021,1.229,2.007,1.883,2.93l0.604-0.427c-0.641-0.906-1.263-1.874-1.848-2.876   L30.631,80.348z"></path><path fill="#ffffff" d="M23.981,52.787l-0.739,0.029c0.045,1.155,0.118,2.32,0.218,3.463l0.737-0.065   C24.098,55.082,24.025,53.929,23.981,52.787z"></path><path fill="#ffffff" d="M27.497,73.866c0.432,1.089,0.9,2.162,1.391,3.187l0.667-0.319c-0.483-1.01-0.944-2.066-1.37-3.14   L27.497,73.866z"></path><path fill="#ffffff" d="M23.883,59.972c0.163,1.149,0.357,2.3,0.577,3.423l0.726-0.142c-0.217-1.11-0.409-2.249-0.571-3.385   L23.883,59.972z"></path><path fill="#ffffff" d="M35.383,85.72l-0.554,0.49c0.789,0.893,1.617,1.727,2.46,2.479l0.492-0.552   C36.959,87.404,36.152,86.591,35.383,85.72z"></path><path fill="#ffffff" d="M43.448,61.987l-0.447-0.589c-0.926,0.703-1.854,1.399-2.759,2.069l0.44,0.594   C41.589,63.389,42.52,62.691,43.448,61.987z"></path><path fill="#ffffff" d="M49.106,57.599l-0.459-0.58c-0.914,0.724-1.827,1.441-2.714,2.129l0.454,0.584   C47.274,59.042,48.189,58.324,49.106,57.599z"></path><path fill="#ffffff" d="M22.402,75.266l0.348,0.652c0.92-0.491,1.936-1.068,3.018-1.714l-0.379-0.635   C24.318,74.209,23.313,74.78,22.402,75.266z"></path><path fill="#ffffff" d="M51.996,55.284c0.463-0.374,0.927-0.752,1.392-1.132l-0.234-0.287l0.234,0.286   c0.466-0.381,0.929-0.761,1.389-1.14l-0.47-0.571c-0.459,0.379-0.921,0.758-1.386,1.138l0,0c-0.465,0.38-0.928,0.756-1.39,1.13   L51.996,55.284z"></path><path fill="#ffffff" d="M31.815,70.346l-0.413-0.614c-0.988,0.664-1.957,1.301-2.879,1.892l0.399,0.623   C29.85,71.653,30.823,71.013,31.815,70.346z"></path><path fill="#ffffff" d="M37.692,66.247l-0.432-0.6c-0.952,0.686-1.898,1.358-2.811,1.996l0.424,0.606   C35.788,67.609,36.737,66.935,37.692,66.247z"></path><path fill="#ffffff" d="M70.898,38.815l-0.509-0.536c-0.808,0.768-1.655,1.561-2.516,2.357l0.502,0.543   C69.239,40.381,70.088,39.585,70.898,38.815z"></path><path fill="#ffffff" d="M65.635,43.674l-0.495-0.55c-0.84,0.755-1.707,1.526-2.578,2.291l0.488,0.555   C63.924,45.203,64.794,44.43,65.635,43.674z"></path><path fill="#ffffff" d="M60.255,48.4l-0.482-0.561c-0.866,0.744-1.75,1.496-2.628,2.235l0.476,0.566   C58.502,49.9,59.388,49.146,60.255,48.4z"></path></g></svg>