<svg height='100px' width='100px'  fill="#ffffff" xmlns="http://www.w3.org/2000/svg" xmlns:xlink="http://www.w3.org/1999/xlink" version="1.1" x="0px" y="0px" viewBox="0 0 100 100" style="enable-background:new 0 0 100 100;" xml:space="preserve"><path d="M51.1,13.1C40.6,2.6,23.5,2.6,13,13.1C2.5,23.6,2.5,40.7,13,51.2c9.6,9.6,24.7,10.4,35.2,2.5l3.6,3.6  c-1.1,2.4-0.6,5.3,1.3,7.3l28.7,28.7c2.6,2.6,6.7,2.5,9.3-0.1l1.9-1.9c2.6-2.6,2.6-6.8,0.1-9.3L64.4,53.2c-2-2-4.9-2.4-7.3-1.3  l-3.6-3.6C61.5,37.7,60.7,22.7,51.1,13.1z M17.4,46.7c-8.1-8.1-8.1-21.2,0-29.3c8.1-8.1,21.2-8.1,29.2,0c8.1,8.1,8.1,21.2,0,29.3  C38.6,54.8,25.5,54.8,17.4,46.7z M48.8,33.1C47.9,27,44.4,21.8,39.4,19c-5-2.8-11.3-3-16.9-0.5c2.3-2,5.4-3.3,8.7-3.5  c3.2-0.3,6.5,0.5,9.4,2c2.9,1.6,5.2,4,6.7,6.9C48.7,26.7,49.3,30,48.8,33.1z"></path></svg>