<svg height='100px' width='100px'  fill="#ffffff" xmlns="http://www.w3.org/2000/svg" xmlns:xlink="http://www.w3.org/1999/xlink" version="1.1" x="0px" y="0px" viewBox="0 0 100 100" enable-background="new 0 0 100 100" xml:space="preserve"><path d="M62.9,50c0-7.1-5.8-12.9-12.9-12.9S37.1,42.9,37.1,50c0,7.1,5.8,12.9,12.9,12.9S62.9,57.1,62.9,50z M50,58.7  c-4.8,0-8.7-3.9-8.7-8.7s3.9-8.7,8.7-8.7s8.7,3.9,8.7,8.7S54.8,58.7,50,58.7z M48.5,5.2c0.8-0.8,2.2-0.8,3,0l6.6,6.6  c0.8,0.8,0.8,2.2,0,3c-0.8,0.8-2.2,0.8-3,0l-2.9-2.9v16.8c0,1.2-1,2.1-2.1,2.1c-1.2,0-2.1-1-2.1-2.1V11.8l-2.9,2.9  c-0.4,0.4-1,0.6-1.5,0.6s-1.1-0.2-1.5-0.6c-0.8-0.8-0.8-2.2,0-3L48.5,5.2z M52.1,71.4v16.8l2.9-2.9c0.8-0.8,2.2-0.8,3,0s0.8,2.2,0,3  l-6.6,6.6c-0.4,0.4-1,0.6-1.5,0.6c-0.5,0-1.1-0.2-1.5-0.6l-6.6-6.6c-0.8-0.8-0.8-2.2,0-3c0.8-0.8,2.2-0.8,3,0l2.9,2.9V71.4  c0-1.2,1-2.1,2.1-2.1C51.2,69.3,52.1,70.3,52.1,71.4z M11.7,41.9c0.8-0.8,2.2-0.8,3,0c0.8,0.8,0.8,2.2,0,3l-2.9,2.9h16.8  c1.2,0,2.1,1,2.1,2.1c0,1.2-1,2.1-2.1,2.1H11.8l2.9,2.9c0.8,0.8,0.8,2.2,0,3c-0.4,0.4-1,0.6-1.5,0.6c-0.5,0-1.1-0.2-1.5-0.6  l-6.6-6.6c-0.8-0.8-0.8-2.2,0-3L11.7,41.9z M71.4,47.9h16.8l-2.9-2.9c-0.8-0.8-0.8-2.2,0-3c0.8-0.8,2.2-0.8,3,0l6.6,6.6  c0.8,0.8,0.8,2.2,0,3l-6.6,6.6c-0.4,0.4-1,0.6-1.5,0.6s-1.1-0.2-1.5-0.6c-0.8-0.8-0.8-2.2,0-3l2.9-2.9H71.4c-1.2,0-2.1-1-2.1-2.1  C69.3,48.8,70.3,47.9,71.4,47.9z M36.3,36.3c-0.4,0.4-1,0.6-1.5,0.6c-0.5,0-1.1-0.2-1.5-0.6L21.5,24.5v4.2c0,1.2-1,2.1-2.1,2.1  s-2.1-1-2.1-2.1v-9.3c0-1.2,1-2.1,2.1-2.1h9.3c1.2,0,2.1,1,2.1,2.1c0,1.2-1,2.1-2.1,2.1h-4.2l11.9,11.9  C37.2,34.2,37.2,35.5,36.3,36.3z M63.7,63.7c0.8-0.8,2.2-0.8,3,0l11.9,11.9v-4.2c0-1.2,1-2.1,2.1-2.1c1.2,0,2.1,1,2.1,2.1v9.3  c0,1.2-1,2.1-2.1,2.1h-9.3c-1.2,0-2.1-1-2.1-2.1s1-2.1,2.1-2.1h4.2L63.7,66.7C62.8,65.8,62.8,64.5,63.7,63.7z M36.3,66.7L24.5,78.5  h4.2c1.2,0,2.1,1,2.1,2.1s-1,2.1-2.1,2.1h-9.3c-1.2,0-2.1-1-2.1-2.1v-9.3c0-1.2,1-2.1,2.1-2.1s2.1,1,2.1,2.1v4.2l11.9-11.9  c0.8-0.8,2.2-0.8,3,0C37.2,64.5,37.2,65.8,36.3,66.7z M63.7,33.3l11.9-11.9h-4.2c-1.2,0-2.1-1-2.1-2.1c0-1.2,1-2.1,2.1-2.1h9.3  c1.2,0,2.1,1,2.1,2.1v9.3c0,1.2-1,2.1-2.1,2.1c-1.2,0-2.1-1-2.1-2.1v-4.2L66.7,36.3c-0.4,0.4-1,0.6-1.5,0.6s-1.1-0.2-1.5-0.6  C62.8,35.5,62.8,34.2,63.7,33.3z"></path></svg>