<svg xmlns="http://www.w3.org/2000/svg" xmlns:xlink="http://www.w3.org/1999/xlink" xml:space="preserve" style="shape-rendering:geometricPrecision;text-rendering:geometricPrecision;image-rendering:optimizeQuality;" viewBox="0 0 0.255333 0.09451050000000001" x="0px" y="0px" fill-rule="evenodd" clip-rule="evenodd"><defs><style type="text/css">
   
    .fil0 {fill:black;fill-rule:nonzero}
   
  </style></defs><g><path class="fil0" d="M0.111969 0.0322792l0 0.00341784c0,0.012192 -0.0129729,0.0197301 -0.0252905,0.0197301l-0.00285278 0 0 -0.011521 0.00285278 0c0.0059253,0 0.0137695,-0.00313139 0.0137695,-0.0082091l0 -0.00341784 0.011521 0z"/><path class="fil0" d="M0.0252905 0l0.0613877 0c0.0122744,0 0.0252002,0.00748707 0.0252905,0.0196045l-0.0115249 0c-0.000125569,-0.00500315 -0.00789125,-0.00808353 -0.0137655,-0.00808353l-0.0613877 0c-0.00592138,0 -0.0137695,0.00313139 -0.0137695,0.0082091l0 0.0159669c0,0.00507771 0.00784808,0.0082091 0.0137695,0.0082091l0.0458603 0 0 0.011521 -0.0458603 0c-0.0123136,0 -0.0252905,-0.00753808 -0.0252905,-0.0197301l0 -0.0159669c0,-0.012192 0.0129768,-0.0197301 0.0252905,-0.0197301z"/><path class="fil0" d="M0.158406 0.0201813c0.0123136,0 0.0252905,0.00753808 0.0252905,0.0197301l0 0.0159669c0,0.012192 -0.0129768,0.0197301 -0.0252905,0.0197301l-0.0613877 0c-0.0123136,0 -0.0252905,-0.00753808 -0.0252905,-0.0197301l0 -0.0159669c0,-0.012192 0.0129768,-0.0197301 0.0252905,-0.0197301l0.0613877 0zm0 0.011521l-0.0613877 0c-0.00592138,0 -0.0137695,0.00313139 -0.0137695,0.0082091l0 0.0159669c0,0.00507771 0.00784808,0.0082091 0.0137695,0.0082091l0.0613877 0c0.0059253,0 0.0137695,-0.00313139 0.0137695,-0.0082091l0 -0.0159669c0,-0.00507771 -0.00784416,-0.0082091 -0.0137695,-0.0082091z"/><path class="fil0" d="M0.143467 0.0322792l0 0.00341784c0,0.012192 0.0129768,0.0197301 0.0252944,0.0197301l0.00285278 0 0 -0.011521 -0.00285278 0c-0.0059253,0 -0.0137695,-0.00313139 -0.0137695,-0.0082091l0 -0.00341784 -0.0115249 0z"/><path class="fil0" d="M0.230043 0l-0.0613838 0c-0.0122744,0 -0.0252041,0.00748707 -0.0252905,0.0196045l0.011521 0c0.000129493,-0.00500315 0.00789517,-0.00808353 0.0137695,-0.00808353l0.0613838 0c0.0059253,0 0.0137734,0.00313139 0.0137734,0.0082091l0 0.0159669c0,0.00507771 -0.00784808,0.0082091 -0.0137734,0.0082091l-0.0458564 0 0 0.011521 0.0458564 0c0.0123176,0 0.0252944,-0.00753808 0.0252944,-0.0197301l0 -0.0159669c0,-0.012192 -0.0129768,-0.0197301 -0.0252944,-0.0197301z"/></g><text x="0" y="15.0756084" fill="#000000" font-size="5px" font-weight="bold" font-family="'Helvetica Neue', Helvetica, Arial-Unicode, Arial, Sans-serif">Created by AlyaNafisa</text><text x="0" y="20.0756084" fill="#000000" font-size="5px" font-weight="bold" font-family="'Helvetica Neue', Helvetica, Arial-Unicode, Arial, Sans-serif">from the Noun Project</text></svg>