<svg height='100px' width='100px'  fill="#ffffff" xmlns="http://www.w3.org/2000/svg" xmlns:xlink="http://www.w3.org/1999/xlink" version="1.1" x="0px" y="0px" viewBox="0 0 100 100" enable-background="new 0 0 100 100" xml:space="preserve"><g><path d="M89.001,12c0-0.828-0.672-1.5-1.5-1.5h-54c-0.008,0-0.016,0.002-0.023,0.002c-0.012,0-0.022,0.003-0.034,0.004   c-0.188,0.007-0.369,0.045-0.534,0.116c-0.004,0.001-0.007,0.004-0.011,0.006c-0.179,0.078-0.339,0.19-0.474,0.329   c-0.002,0.003-0.006,0.003-0.008,0.006L11.409,32.899c-0.201,0.21-0.302,0.467-0.358,0.731c-0.016,0.063-0.026,0.13-0.034,0.197   c-0.004,0.059-0.02,0.114-0.017,0.173V88c0,0.828,0.671,1.5,1.5,1.5h54.001c0.426,0,0.809-0.18,1.082-0.466l0.002,0.002l21-22   l-0.002-0.002c0.258-0.27,0.418-0.633,0.418-1.034V12z M83.518,68L68.001,84.256V34.602l18-18.857v49.654l-1.502,1.573V65h-6v3   H83.518z M32,29.999V32.5H15.945L32,15.735V18h3v-4.5h48.995l-18.137,19H35v-2.501H32z M15.623,86.5l0.202-0.202L14,84.474V35.5h18   v0.499h3V35.5h30V65h-4.502v3h4.502v18.5H15.623z"></path><rect x="32" y="38.999" width="3" height="6"></rect><rect x="32" y="47.999" width="3" height="6"></rect><rect x="32" y="21" width="3" height="5.999"></rect><rect x="17.507" y="77.994" transform="matrix(-0.7071 -0.7071 0.7071 -0.7071 -24.8256 151.7052)" width="3" height="5.999"></rect><rect x="32" y="56.998" width="3" height="6"></rect><rect x="23.87" y="71.63" transform="matrix(-0.7071 -0.7071 0.7071 -0.7071 -9.463 145.341)" width="3" height="6"></rect><rect x="51.5" y="65" width="5.999" height="3"></rect><rect x="69.499" y="65" width="6" height="3"></rect><rect x="42.5" y="65" width="6" height="3"></rect><polygon points="33.5,65.998 32.999,65.998 32.44,65.439 28.551,69.327 30.672,71.448 34.122,68 39.5,68 39.5,65 33.5,65  "></polygon></g></svg>