<svg height='100px' width='100px'  fill="#ffffff" xmlns="http://www.w3.org/2000/svg" xmlns:xlink="http://www.w3.org/1999/xlink" version="1.1" x="0px" y="0px" viewBox="0 0 91 91" enable-background="new 0 0 91 91" xml:space="preserve"><path d="M73.1,40.5c-1.3,0-2.5,0.1-3.8,0.4c0-0.1,0-0.1,0-0.2c0-13.5-10.9-24.6-24.3-24.6c-11.6,0-21.5,8.2-23.8,19.6  c-0.3,0-0.6,0-0.8,0C9.7,35.7,1,44.5,1,55.3c0,10.7,8.5,19.4,19,19.6l18.2,0h4.3L31.1,58.4c-0.1-0.1-0.1-0.2,0-0.3  c0-0.1,0.1-0.1,0.2-0.1h8.3V43.7c0-0.5,0.4-0.9,0.8-0.9h10.1c0.5,0,0.8,0.4,0.8,0.9V58h8.3c0.1,0,0.2,0.1,0.2,0.1c0,0,0,0.1,0,0.1  c0,0.1,0,0.1,0,0.2L48.6,74.9H53l20.3,0c8.9-0.1,16.2-7.3,16.8-16.1v-2.1C89.5,47.6,82.1,40.5,73.1,40.5z"></path></svg>