<svg height='100px' width='100px'  fill="#ffffff" xmlns="http://www.w3.org/2000/svg" data-name="Layer 4" viewBox="0 0 64 64" x="0px" y="0px"><title>01, Brain, human, organ, think, idea, health, biology,</title><path d="M35.29,50.26a7.63,7.63,0,0,1-2.77-3.08l-1.74.2a17.45,17.45,0,0,1,2.72,4.67c2.07,5.17,2.92,6,6.5,6,1.17,0,1.52-1.19,1.43-2.93C38.37,54.94,36.86,53.76,35.29,50.26Z"></path><path d="M46.16,53c2.22,0,5.05-1.78,6.5-4.19-10.3-1.33-8.74-2.64-18-1.85a5.21,5.21,0,0,0,2.16,1.86C39,54,40,53,46.16,53Z"></path><path d="M14.49,39c.47-1,.18-1.36.53-2.78a23.7,23.7,0,0,1-3.29-2.94c-1.45-1.69-1.93-6.15-2-6.66a1,1,0,0,1,2-.19c.16,1.66.71,4.63,1.5,5.55a19.74,19.74,0,0,0,2.56,2.32,9.25,9.25,0,0,1,4.87-4.23c.21-.07.43-.11.64-.17a8.43,8.43,0,0,0-1.94-3.68,1,1,0,0,1,1.49-1.33,10.33,10.33,0,0,1,2.43,4.72,18.78,18.78,0,0,1,4.51.34,30.23,30.23,0,0,1,5.87-2.88,11.64,11.64,0,0,1,6.64,0,1,1,0,0,1-.63,1.9,9.66,9.66,0,0,0-5.37,0,29.08,29.08,0,0,0-5.77,2.88,1,1,0,0,1-.79.14s-3.76-.92-6.44,0c-2.27.75-4.46,3.53-4.52,5.72a5.28,5.28,0,0,1-1,3C17.86,43.53,22.73,46,25,46c2.1,0,13-2,17.8-1C48,46,52.9,47,55,47c2.85,0,5.71-4.74,6-9.94.22-4,.08-8.29-4.14-12.61-.17,4.17-.11,6.35-2.48,9.49,1.23,1.39,3.23,4.16,1.44,4.67a1,1,0,0,1-1.23-.7,7.7,7.7,0,0,0-1.54-2.45,19.72,19.72,0,0,1-3.88,3,1,1,0,0,1-.49.13,1,1,0,0,1-.5-1.87s5.27-3.06,6.27-7.39a62.9,62.9,0,0,0,.49-7.46v-.05a17,17,0,0,1-.76-1.7,15.44,15.44,0,0,0-1.83-3.45,57.93,57.93,0,0,1-4.79,5.83A7.39,7.39,0,0,1,47.45,28a1,1,0,0,1-1.83-.81,5.41,5.41,0,0,0,.05-3.9,25.88,25.88,0,0,1-4.82-1.86,1,1,0,1,1,.84-1.82A33.79,33.79,0,0,0,46,21.31a69.93,69.93,0,0,0,5-6.08h0a18.56,18.56,0,0,0-2.65-2.1,15.25,15.25,0,0,0-4.49-1.8h0a6.38,6.38,0,0,1-2.23,1.58c-4.14,1.75-5,9.44-5.06,9.51a1,1,0,0,1-2-.22c0-.36,1.06-8.93,6.27-11.13a3.6,3.6,0,0,0,.55-.29A49.18,49.18,0,0,0,34.87,10a.74.74,0,0,0-.13.7c.86,2.87-3,7.67-3.72,8.61a1,1,0,0,1-1.41.13A1,1,0,0,1,29.48,18c1.64-2,3.76-5.39,3.35-6.75A2.7,2.7,0,0,1,32.77,10C23.33,10,13.6,14,9.29,18.29,4,23.59,4,27.92,4,30,4,33.83,8.55,38.73,14.49,39Zm30.07,1.58c-1.72.29-12.29.55-13.56.55a1,1,0,0,1,0-2c3.18-.06,11.76-.27,13.24-.52a1,1,0,0,1,1.16.81A1,1,0,0,1,44.56,40.56ZM50.05,28a1,1,0,0,1,1.36-.4A1,1,0,0,1,51.8,29c-.11.21-2.89,5.19-6.93,6.81-3,1.2-6.06.94-8.51.73-2-.17-2.94-.5-14.57,2.1a1,1,0,0,1-.44-1.95c.38-.09,8.4-1.87,11.9-2.21a12.69,12.69,0,0,1,.82-2.75,1,1,0,0,1,1.86.74,12,12,0,0,0-.64,2c2.44.16,5.8.71,8.84-.5C47.51,32.58,50,28.06,50.05,28ZM14.5,24.69c.05-.18,1.22-4.42,4.58-6.13a8.69,8.69,0,0,1,5.55-.94c.29-.68.69-1.51,1.22-2.55a1,1,0,0,1,1.35-.43A1,1,0,0,1,27.63,16c-1.79,3.5-1.84,4.33-1.84,4.41A6.51,6.51,0,0,0,28,24.77a1,1,0,0,1,.14,1.4,1,1,0,0,1-1.41.14c-1.77-1.46-3.42-4.49-2.8-6.78a6.79,6.79,0,0,0-3.93.82c-2.57,1.31-3.55,4.82-3.56,4.86a1,1,0,1,1-1.93-.52Z"></path></svg>