<svg xmlns="http://www.w3.org/2000/svg" xmlns:xlink="http://www.w3.org/1999/xlink" xmlns:serif="http://www.serif.com/" viewBox="0 0 32 40" version="1.1" xml:space="preserve" style="" x="0px" y="0px" fill-rule="evenodd" clip-rule="evenodd" stroke-linejoin="round" stroke-miterlimit="2"><path d="M12,5l-6.515,0c-0.527,-0 -1.031,0.209 -1.404,0.581c-0.372,0.373 -0.581,0.877 -0.581,1.404c0,0.331 0,0.699 0,1.03c-0,0.527 0.209,1.031 0.581,1.404c0.373,0.372 0.877,0.581 1.404,0.581l0.106,-0l1.827,19.185c0.098,1.029 0.962,1.815 1.996,1.815c2.679,-0 10.493,-0 13.172,-0c1.034,0 1.898,-0.786 1.996,-1.815l1.827,-19.185l0.106,0c0.527,0 1.031,-0.209 1.404,-0.581c0.372,-0.373 0.581,-0.877 0.581,-1.404l-0,-1.03c0,-0.527 -0.209,-1.031 -0.581,-1.404c-0.373,-0.372 -0.877,-0.581 -1.404,-0.581l-6.515,0l-0,-1.378c-0,-1.448 -1.174,-2.622 -2.622,-2.622c-0.855,0 -1.901,0 -2.756,0c-1.448,0 -2.622,1.174 -2.622,2.622l0,1.378Zm-4.4,5l16.8,-0l-1.809,18.995c-0,0.003 -0.002,0.005 -0.005,0.005l-13.172,0c-0.003,0 -0.005,-0.002 -0.005,-0.005l-1.809,-18.995Zm12.403,2.429l-1,14c-0.04,0.55 0.375,1.029 0.926,1.068c0.55,0.04 1.029,-0.375 1.068,-0.926l1,-14c0.04,-0.55 -0.375,-1.029 -0.926,-1.068c-0.55,-0.04 -1.029,0.375 -1.068,0.926Zm-10,0.142l1,14c0.039,0.551 0.518,0.966 1.068,0.926c0.551,-0.039 0.966,-0.518 0.926,-1.068l-1,-14c-0.039,-0.551 -0.518,-0.966 -1.068,-0.926c-0.551,0.039 -0.966,0.518 -0.926,1.068Zm4.997,-0.071l0,14c-0,0.552 0.448,1 1,1c0.552,0 1,-0.448 1,-1l0,-14c-0,-0.552 -0.448,-1 -1,-1c-0.552,0 -1,0.448 -1,1Zm11.5,-5.5l-21,-0l-0,1l21,0l0,-1Zm-8.5,-2l-4,0c0,-0 0,-1.378 0,-1.378c0,-0.343 0.279,-0.622 0.622,-0.622c0,0 2.756,-0 2.756,-0c0.343,0 0.622,0.279 0.622,0.622l-0,1.378Z"/><text x="0" y="47" fill="#000000" font-size="5px" font-weight="bold" font-family="'Helvetica Neue', Helvetica, Arial-Unicode, Arial, Sans-serif">Created by Singlar</text><text x="0" y="52" fill="#000000" font-size="5px" font-weight="bold" font-family="'Helvetica Neue', Helvetica, Arial-Unicode, Arial, Sans-serif">from the Noun Project</text></svg>