<svg height='100px' width='100px'  fill="#ffffff" xmlns="http://www.w3.org/2000/svg" xmlns:xlink="http://www.w3.org/1999/xlink" version="1.1" x="0px" y="0px" viewBox="0 0 128 128" style="enable-background:new 0 0 128 128;" xml:space="preserve"><g><g><path d="M12.15,53.866C6.554,53.866,2,58.413,2,64s4.554,10.134,10.15,10.134c5.597,0,10.151-4.546,10.151-10.134    S17.747,53.866,12.15,53.866z"></path><path d="M115.85,53.866c-5.596,0-10.15,4.546-10.15,10.134s4.554,10.134,10.15,10.134S126,69.587,126,64    S121.446,53.866,115.85,53.866z"></path><g><path d="M93.522,66.259c0,0,0,0-0.001,0L18.949,66.24c-1.234-0.001-2.234-1.004-2.234-2.241     c0.001-1.237,1-2.239,2.234-2.239h0.001l74.573,0.019c1.234,0.001,2.233,1.004,2.233,2.241     C95.756,65.257,94.756,66.259,93.522,66.259z"></path><path d="M83.997,75.775c-0.573,0-1.147-0.22-1.583-0.659c-0.871-0.876-0.868-2.295,0.005-3.167l7.938-7.93     l-7.976-7.968c-0.874-0.873-0.876-2.291-0.005-3.167c0.871-0.877,2.286-0.879,3.16-0.005l9.563,9.554     c0.42,0.42,0.657,0.991,0.657,1.586c0,0.596-0.237,1.166-0.657,1.586l-9.525,9.516C85.138,75.558,84.567,75.775,83.997,75.775z"></path></g><path d="M115.85,8c-5.596,0-10.15,4.546-10.15,10.134s4.554,10.134,10.15,10.134S126,23.721,126,18.134    S121.446,8,115.85,8z"></path><path d="M115.85,99.733c-5.596,0-10.15,4.546-10.15,10.134c0,5.587,4.554,10.134,10.15,10.134    S126,115.454,126,109.866C126,104.279,121.446,99.733,115.85,99.733z"></path><g><path d="M16.595,58.986c-0.85,0-1.664-0.49-2.037-1.317c-0.508-1.127-0.009-2.454,1.115-2.964l76.809-34.825     c1.126-0.51,2.448-0.009,2.956,1.118c0.508,1.127,0.009,2.454-1.115,2.964L17.515,58.786     C17.216,58.922,16.903,58.986,16.595,58.986z"></path><path d="M87.799,36.4c-0.312,0-0.628-0.066-0.931-0.205c-1.121-0.516-1.613-1.846-1.099-2.971l4.668-10.198     l-10.26-4.689c-1.124-0.513-1.619-1.841-1.107-2.967c0.513-1.125,1.839-1.621,2.96-1.109l12.299,5.62     c0.54,0.247,0.96,0.699,1.167,1.257s0.184,1.175-0.063,1.716L89.83,35.094C89.455,35.915,88.644,36.4,87.799,36.4z"></path></g><g><path d="M93.402,108.452c-0.309,0-0.623-0.065-0.923-0.201L15.67,73.279c-1.123-0.511-1.621-1.839-1.11-2.966     c0.509-1.127,1.834-1.625,2.958-1.113l76.809,34.972c1.124,0.511,1.62,1.839,1.111,2.966     C95.063,107.963,94.251,108.452,93.402,108.452z"></path><path d="M81.105,114.071c-0.849,0-1.659-0.487-2.035-1.311c-0.512-1.126-0.016-2.454,1.107-2.967l10.26-4.688     L85.77,94.907c-0.515-1.124-0.023-2.454,1.099-2.971c1.119-0.516,2.448-0.022,2.962,1.101l5.603,12.239     c0.248,0.541,0.271,1.158,0.063,1.716c-0.207,0.558-0.627,1.01-1.167,1.257l-12.299,5.62     C81.73,114.006,81.415,114.071,81.105,114.071z"></path></g></g></g></svg>