<?xml version="1.0" encoding="UTF-8" standalone="no"?>
<svg
   height="100px"
   width="100px"
   fill="#ffffff"
   version="1.1"
   x="0px"
   y="0px"
   viewBox="0 0 32 32"
   enable-background="new 0 0 32 32"
   xml:space="preserve"
   id="svg318"
   sodipodi:docname="Circles_Icon.svg"
   inkscape:version="1.1.2 (b8e25be833, 2022-02-05)"
   xmlns:inkscape="http://www.inkscape.org/namespaces/inkscape"
   xmlns:sodipodi="http://sodipodi.sourceforge.net/DTD/sodipodi-0.dtd"
   xmlns="http://www.w3.org/2000/svg"
   xmlns:svg="http://www.w3.org/2000/svg"><defs
     id="defs322" /><sodipodi:namedview
     id="namedview320"
     pagecolor="#505050"
     bordercolor="#eeeeee"
     borderopacity="1"
     inkscape:pageshadow="0"
     inkscape:pageopacity="0"
     inkscape:pagecheckerboard="0"
     showgrid="false"
     inkscape:zoom="2.9097444"
     inkscape:cx="89.870437"
     inkscape:cy="62.892122"
     inkscape:window-width="1920"
     inkscape:window-height="1009"
     inkscape:window-x="-8"
     inkscape:window-y="-8"
     inkscape:window-maximized="1"
     inkscape:current-layer="svg318" /><g
     display="none"
     id="g242"><rect
       x="-373.333"
       y="-144.646"
       display="inline"
       fill="#000000"
       width="473.333"
       height="236"
       id="rect240" /></g><g
     display="none"
     id="g254"><g
       display="inline"
       id="g252"><circle
         fill="#000000"
         cx="7.377"
         cy="25.044"
         r="6.956"
         id="circle244" /><circle
         fill="#000000"
         cx="24.646"
         cy="25.044"
         r="6.956"
         id="circle246" /><circle
         fill="#000000"
         cx="7.354"
         cy="6.956"
         r="6.956"
         id="circle248" /><circle
         fill="#000000"
         cx="24.623"
         cy="6.956"
         r="6.956"
         id="circle250" /></g></g><g
     display="none"
     id="g274"><g
       display="inline"
       id="g272"><g
         id="g258"><path
           fill="#000000"
           d="M7.377,19.087c3.284,0,5.956,2.672,5.956,5.956S10.661,31,7.377,31S1.42,28.328,1.42,25.044     S4.092,19.087,7.377,19.087 M7.377,18.087c-3.842,0-6.956,3.115-6.956,6.956C0.42,28.885,3.535,32,7.377,32     s6.956-3.115,6.956-6.956C14.333,21.202,11.219,18.087,7.377,18.087L7.377,18.087z"
           id="path256" /></g><g
         id="g262"><path
           fill="#000000"
           d="M24.646,19.087c3.284,0,5.956,2.672,5.956,5.956S27.931,31,24.646,31s-5.956-2.672-5.956-5.956     S21.362,19.087,24.646,19.087 M24.646,18.087c-3.842,0-6.956,3.115-6.956,6.956c0,3.842,3.115,6.956,6.956,6.956     c3.842,0,6.956-3.115,6.956-6.956C31.603,21.202,28.488,18.087,24.646,18.087L24.646,18.087z"
           id="path260" /></g><g
         id="g266"><path
           fill="#000000"
           d="M7.354,1c3.284,0,5.956,2.672,5.956,5.956c0,3.284-2.672,5.956-5.956,5.956s-5.956-2.672-5.956-5.956     C1.397,3.672,4.069,1,7.354,1 M7.354,0C3.512,0,0.397,3.115,0.397,6.956c0,3.842,3.115,6.956,6.956,6.956     c3.842,0,6.956-3.115,6.956-6.956C14.31,3.115,11.196,0,7.354,0L7.354,0z"
           id="path264" /></g><g
         id="g270"><path
           fill="#000000"
           d="M24.623,1c3.284,0,5.956,2.672,5.956,5.956c0,3.284-2.672,5.956-5.956,5.956s-5.956-2.672-5.956-5.956     C18.667,3.672,21.339,1,24.623,1 M24.623,0c-3.842,0-6.956,3.115-6.956,6.956c0,3.842,3.115,6.956,6.956,6.956     s6.956-3.115,6.956-6.956C31.58,3.115,28.465,0,24.623,0L24.623,0z"
           id="path268" /></g></g></g><g
     display="none"
     id="g306"><g
       display="inline"
       id="g282"><circle
         fill="#000000"
         cx="7.377"
         cy="25.044"
         r="6.457"
         id="circle276" /><g
         id="g280"><path
           d="M7.377,19.087c3.284,0,5.956,2.672,5.956,5.956S10.661,31,7.377,31S1.42,28.328,1.42,25.044S4.092,19.087,7.377,19.087      M7.377,18.087c-3.842,0-6.956,3.115-6.956,6.956C0.42,28.885,3.535,32,7.377,32s6.956-3.115,6.956-6.956     C14.333,21.202,11.219,18.087,7.377,18.087L7.377,18.087z"
           id="path278" /></g></g><g
       display="inline"
       id="g290"><circle
         fill="#000000"
         cx="24.646"
         cy="25.044"
         r="6.457"
         id="circle284" /><g
         id="g288"><path
           fill="#000000"
           d="M24.646,19.087c3.284,0,5.956,2.672,5.956,5.956S27.931,31,24.646,31s-5.956-2.672-5.956-5.956     S21.362,19.087,24.646,19.087 M24.646,18.087c-3.842,0-6.956,3.115-6.956,6.956c0,3.842,3.115,6.956,6.956,6.956     c3.842,0,6.956-3.115,6.956-6.956C31.603,21.202,28.488,18.087,24.646,18.087L24.646,18.087z"
           id="path286" /></g></g><g
       display="inline"
       id="g296"><circle
         fill="#000000"
         cx="7.354"
         cy="6.957"
         r="6.457"
         id="circle292" /><path
         fill="#000000"
         d="M7.354,1c3.284,0,5.956,2.672,5.956,5.956c0,3.284-2.672,5.956-5.956,5.956s-5.956-2.672-5.956-5.956    C1.397,3.672,4.069,1,7.354,1 M7.354,0C3.512,0,0.397,3.115,0.397,6.956c0,3.842,3.115,6.956,6.956,6.956    c3.842,0,6.956-3.115,6.956-6.956C14.31,3.115,11.196,0,7.354,0L7.354,0z"
         id="path294" /></g><g
       display="inline"
       id="g304"><circle
         fill="#000000"
         cx="24.623"
         cy="6.957"
         r="6.457"
         id="circle298" /><g
         id="g302"><path
           d="M24.623,1c3.284,0,5.956,2.672,5.956,5.956c0,3.284-2.672,5.956-5.956,5.956s-5.956-2.672-5.956-5.956     C18.667,3.672,21.339,1,24.623,1 M24.623,0c-3.842,0-6.956,3.115-6.956,6.956c0,3.842,3.115,6.956,6.956,6.956     s6.956-3.115,6.956-6.956C31.58,3.115,28.465,0,24.623,0L24.623,0z"
           id="path300" /></g></g></g><g
     id="g316"><circle
       cx="7.377"
       cy="25.044"
       r="6.956"
       id="circle308" /><circle
       cx="24.646"
       cy="25.044"
       r="6.956"
       id="circle310" /><circle
       cx="7.354"
       cy="6.956"
       r="6.956"
       id="circle312" /><circle
       cx="24.623"
       cy="6.956"
       r="6.956"
       id="circle314" /></g></svg>
