<?xml version="1.0" encoding="UTF-8" standalone="no"?>
<svg
   version="1.0"
   width="100pt"
   height="100pt"
   viewBox="0 0 100 100"
   preserveAspectRatio="xMidYMid meet"
   id="svg145"
   sodipodi:docname="Network_Icon.svg"
   inkscape:version="1.1.2 (b8e25be833, 2022-02-05)"
   xmlns:inkscape="http://www.inkscape.org/namespaces/inkscape"
   xmlns:sodipodi="http://sodipodi.sourceforge.net/DTD/sodipodi-0.dtd"
   xmlns="http://www.w3.org/2000/svg"
   xmlns:svg="http://www.w3.org/2000/svg">
  <defs
     id="defs149" />
  <sodipodi:namedview
     id="namedview147"
     pagecolor="#505050"
     bordercolor="#eeeeee"
     borderopacity="1"
     inkscape:pageshadow="0"
     inkscape:pageopacity="0"
     inkscape:pagecheckerboard="0"
     inkscape:document-units="pt"
     showgrid="false"
     width="100pt"
     inkscape:zoom="1.543125"
     inkscape:cx="33.373836"
     inkscape:cy="77.764277"
     inkscape:window-width="1920"
     inkscape:window-height="1009"
     inkscape:window-x="-8"
     inkscape:window-y="-8"
     inkscape:window-maximized="1"
     inkscape:current-layer="svg145" />
  <g
     transform="matrix(0.05830887,0,0,-0.05830887,-7.4219767,108.21682)"
     fill="#ffffff"
     stroke="none"
     id="g143">
    <path
       d="m 934,1821 c -68,-42 -67,-149 1,-194 l 35,-22 v -110 -111 l -143,-82 -144,-83 -110,65 -111,66 5,37 c 10,81 -74,147 -154,120 -42,-13 -83,-66 -83,-104 0,-87 94,-148 172,-112 20,9 40,1 141,-57 l 117,-67 -2,-165 -3,-164 -113,-66 C 430,708 428,708 390,720 c -48,16 -81,8 -123,-29 -28,-26 -32,-36 -32,-80 0,-44 4,-55 33,-83 28,-28 39,-33 82,-33 43,0 54,5 82,33 28,28 33,39 33,81 v 48 l 106,62 c 58,33 109,61 113,61 4,0 70,-36 147,-81 L 970,618 V 505 391 l -29,-15 c -31,-16 -61,-70 -61,-109 0,-39 41,-90 85,-106 35,-12 45,-11 77,2 41,17 78,68 78,105 0,38 -30,92 -61,108 l -29,15 v 113 114 l 138,81 c 77,45 142,81 147,81 4,0 55,-28 114,-62 l 106,-61 v -48 c 0,-42 5,-53 33,-81 28,-28 39,-33 82,-33 42,0 54,5 81,31 76,76 26,197 -81,196 -23,-1 -47,-6 -54,-11 -10,-8 -43,6 -130,55 l -116,66 v 168 168 l 116,66 c 92,52 120,64 134,56 10,-6 37,-10 60,-10 58,0 110,50 110,106 0,136 -174,172 -226,48 -8,-18 -11,-45 -8,-61 5,-27 1,-31 -103,-88 -59,-33 -112,-60 -118,-60 -5,0 -72,36 -147,80 l -138,79 v 111 l 1,110 31,20 c 19,11 38,36 47,58 40,107 -76,198 -175,138 z m 113,-67 c 15,-24 15,-29 2,-53 -11,-20 -22,-26 -49,-26 -27,0 -38,6 -49,26 -13,24 -13,29 2,53 12,18 26,26 47,26 21,0 35,-8 47,-26 z M 384,1434 c 33,-32 5,-94 -43,-94 -40,0 -68,69 -39,98 17,17 64,15 82,-4 z m 1311,-4 c 25,-27 10,-71 -27,-84 -22,-8 -32,-6 -48,9 -22,20 -27,64 -8,83 19,19 63,14 83,-8 z m -567,-175 c 67,-38 122,-72 122,-75 0,-3 -57,-36 -125,-73 l -125,-68 -126,72 c -88,50 -122,74 -113,80 115,69 235,137 240,136 3,-1 61,-33 127,-72 z M 846,1053 c 64,-37 118,-72 120,-78 3,-6 3,-73 2,-148 l -3,-137 -122,71 -123,71 v 144 c 0,79 2,144 5,144 3,0 57,-30 121,-67 z m 434,-76 V 835 l -77,-46 c -43,-25 -99,-59 -126,-74 l -48,-27 3,148 3,148 115,67 c 63,37 118,68 123,68 4,1 7,-63 7,-142 z M 384,644 c 51,-50 -23,-125 -76,-77 -24,21 -23,48 2,73 24,24 53,26 74,4 z m 1306,-4 c 24,-24 25,-47 3,-72 -18,-20 -63,-24 -81,-6 -29,29 -1,98 40,98 10,0 27,-9 38,-20 z M 1025,324 c 27,-11 38,-53 20,-80 -35,-54 -119,-11 -96,49 13,33 40,44 76,31 z"
       id="path141" />
  </g>
</svg>
