<?xml version="1.0" encoding="UTF-8" standalone="no"?>
<svg
   height="100px"
   width="100px"
   fill="#ffffff"
   version="1.1"
   x="0px"
   y="0px"
   viewBox="0 0 128 128"
   style="enable-background:new 0 0 128 128;"
   xml:space="preserve"
   id="svg75"
   sodipodi:docname="Coocurrence_Icon.svg"
   inkscape:version="1.1.2 (b8e25be833, 2022-02-05)"
   xmlns:inkscape="http://www.inkscape.org/namespaces/inkscape"
   xmlns:sodipodi="http://sodipodi.sourceforge.net/DTD/sodipodi-0.dtd"
   xmlns="http://www.w3.org/2000/svg"
   xmlns:svg="http://www.w3.org/2000/svg"><defs
     id="defs79" /><sodipodi:namedview
     id="namedview77"
     pagecolor="#505050"
     bordercolor="#eeeeee"
     borderopacity="1"
     inkscape:pageshadow="0"
     inkscape:pageopacity="0"
     inkscape:pagecheckerboard="0"
     showgrid="false"
     inkscape:zoom="4"
     inkscape:cx="21.875"
     inkscape:cy="45.25"
     inkscape:window-width="1920"
     inkscape:window-height="1009"
     inkscape:window-x="-8"
     inkscape:window-y="-8"
     inkscape:window-maximized="1"
     inkscape:current-layer="svg75" /><g
     id="g73"
     transform="matrix(-0.52774193,0,0,-0.52774193,99.855483,97.569559)"><g
       id="g71"><path
         d="M 12.15,53.866 C 6.554,53.866 2,58.413 2,64 c 0,5.587 4.554,10.134 10.15,10.134 5.597,0 10.151,-4.546 10.151,-10.134 0,-5.588 -4.554,-10.134 -10.151,-10.134 z"
         id="path45" /><path
         d="m 115.85,53.866 c -5.596,0 -10.15,4.546 -10.15,10.134 0,5.588 4.554,10.134 10.15,10.134 5.596,0 10.15,-4.547 10.15,-10.134 0,-5.587 -4.554,-10.134 -10.15,-10.134 z"
         id="path47" /><g
         id="g53"><path
           d="m 93.522,66.259 c 0,0 0,0 -0.001,0 L 18.949,66.24 c -1.234,-10e-4 -2.234,-1.004 -2.234,-2.241 0.001,-1.237 1,-2.239 2.234,-2.239 h 10e-4 l 74.573,0.019 c 1.234,10e-4 2.233,1.004 2.233,2.241 0,1.237 -1,2.239 -2.234,2.239 z"
           id="path49" /><path
           d="m 83.997,75.775 c -0.573,0 -1.147,-0.22 -1.583,-0.659 -0.871,-0.876 -0.868,-2.295 0.005,-3.167 l 7.938,-7.93 -7.976,-7.968 c -0.874,-0.873 -0.876,-2.291 -0.005,-3.167 0.871,-0.877 2.286,-0.879 3.16,-0.005 l 9.563,9.554 c 0.42,0.42 0.657,0.991 0.657,1.586 0,0.596 -0.237,1.166 -0.657,1.586 l -9.525,9.516 c -0.436,0.437 -1.007,0.654 -1.577,0.654 z"
           id="path51" /></g><path
         d="m 115.85,8 c -5.596,0 -10.15,4.546 -10.15,10.134 0,5.588 4.554,10.134 10.15,10.134 5.596,0 10.15,-4.547 10.15,-10.134 C 126,12.547 121.446,8 115.85,8 Z"
         id="path55" /><path
         d="m 115.85,99.733 c -5.596,0 -10.15,4.546 -10.15,10.134 0,5.587 4.554,10.134 10.15,10.134 5.596,0 10.15,-4.547 10.15,-10.135 0,-5.587 -4.554,-10.133 -10.15,-10.133 z"
         id="path57" /><g
         id="g63"><path
           d="m 16.595,58.986 c -0.85,0 -1.664,-0.49 -2.037,-1.317 -0.508,-1.127 -0.009,-2.454 1.115,-2.964 L 92.482,19.88 c 1.126,-0.51 2.448,-0.009 2.956,1.118 0.508,1.127 0.009,2.454 -1.115,2.964 L 17.515,58.786 c -0.299,0.136 -0.612,0.2 -0.92,0.2 z"
           id="path59" /><path
           d="m 87.799,36.4 c -0.312,0 -0.628,-0.066 -0.931,-0.205 -1.121,-0.516 -1.613,-1.846 -1.099,-2.971 l 4.668,-10.198 -10.26,-4.689 c -1.124,-0.513 -1.619,-1.841 -1.107,-2.967 0.513,-1.125 1.839,-1.621 2.96,-1.109 l 12.299,5.62 c 0.54,0.247 0.96,0.699 1.167,1.257 0.207,0.558 0.184,1.175 -0.063,1.716 L 89.83,35.094 C 89.455,35.915 88.644,36.4 87.799,36.4 Z"
           id="path61" /></g><g
         id="g69"><path
           d="m 93.402,108.452 c -0.309,0 -0.623,-0.065 -0.923,-0.201 L 15.67,73.279 c -1.123,-0.511 -1.621,-1.839 -1.11,-2.966 0.509,-1.127 1.834,-1.625 2.958,-1.113 l 76.809,34.972 c 1.124,0.511 1.62,1.839 1.111,2.966 -0.375,0.825 -1.187,1.314 -2.036,1.314 z"
           id="path65" /><path
           d="m 81.105,114.071 c -0.849,0 -1.659,-0.487 -2.035,-1.311 -0.512,-1.126 -0.016,-2.454 1.107,-2.967 l 10.26,-4.688 -4.667,-10.198 c -0.515,-1.124 -0.023,-2.454 1.099,-2.971 1.119,-0.516 2.448,-0.022 2.962,1.101 l 5.603,12.239 c 0.248,0.541 0.271,1.158 0.063,1.716 -0.207,0.558 -0.627,1.01 -1.167,1.257 l -12.299,5.62 c -0.301,0.137 -0.616,0.202 -0.926,0.202 z"
           id="path67" /></g></g></g></svg>
