<?xml version="1.0" encoding="UTF-8" standalone="no"?>
<!-- Created with Inkscape (http://www.inkscape.org/) -->

<svg
   width="210mm"
   height="297mm"
   viewBox="0 0 210 296.99998"
   version="1.1"
   id="svg1158"
   inkscape:version="1.1.2 (b8e25be833, 2022-02-05)"
   sodipodi:docname="DiseaseClass_Icon.svg"
   xmlns:inkscape="http://www.inkscape.org/namespaces/inkscape"
   xmlns:sodipodi="http://sodipodi.sourceforge.net/DTD/sodipodi-0.dtd"
   xmlns="http://www.w3.org/2000/svg"
   xmlns:svg="http://www.w3.org/2000/svg">
  <sodipodi:namedview
     id="namedview1160"
     pagecolor="#505050"
     bordercolor="#eeeeee"
     borderopacity="1"
     inkscape:pageshadow="0"
     inkscape:pageopacity="0"
     inkscape:pagecheckerboard="0"
     inkscape:document-units="mm"
     showgrid="false"
     scale-x="1.1"
     inkscape:zoom="1.466344"
     inkscape:cx="266.30859"
     inkscape:cy="459.64658"
     inkscape:window-width="1920"
     inkscape:window-height="1009"
     inkscape:window-x="1912"
     inkscape:window-y="-8"
     inkscape:window-maximized="1"
     inkscape:current-layer="text34835" />
  <defs
     id="defs1155">
    <rect
       x="144.92315"
       y="355.22882"
       width="241.55195"
       height="73.959061"
       id="rect28450" />
    <rect
       x="144.92316"
       y="355.22882"
       width="233.96269"
       height="75.272372"
       id="rect5649" />
  </defs>
  <g
     inkscape:label="Laag 1"
     inkscape:groupmode="layer"
     id="layer1">
    <g
       style="fill:#ffffff"
       id="g533"
       transform="matrix(0,-0.65490295,0.65490295,0,33.294949,132.3466)">
      <g
         id="g485">
        <path
           fill="none"
           d="m 81.12,30.466 c 5.283,3.223 9.097,7.104 11.242,11.339 -1.308,-6.775 -4.204,-12.99 -8.287,-18.24 -0.187,0.529 -0.519,1.161 -1.002,1.907 L 82.452,25.07 c 0.746,-1.153 0.992,-1.832 1.05,-2.225 -0.094,-0.116 -0.187,-0.232 -0.282,-0.347 -0.204,-0.105 -1.796,-0.547 -9.693,4.231 1.956,0.766 3.827,1.633 5.599,2.593 0.403,-0.461 0.782,-0.905 1.132,-1.329 l 0.57,0.471 c -0.324,0.392 -0.671,0.8 -1.04,1.223 0.452,0.256 0.896,0.514 1.332,0.779 z"
           id="path407" />
        <path
           fill="none"
           d="m 40.264,90.971 0.403,-0.62 c 0.969,0.629 1.97,1.169 2.977,1.605 l -0.293,0.678 c 2.168,0.337 4.388,0.513 6.649,0.513 0.351,0 0.7,-0.005 1.049,-0.013 C 64.767,92.574 75.826,73.44 75.826,50 c 0,-5.098 -0.525,-9.992 -1.485,-14.536 -0.257,0.257 -0.516,0.514 -0.78,0.774 l -0.519,-0.527 c 0.377,-0.372 0.747,-0.741 1.111,-1.106 -0.553,-2.452 -1.233,-4.798 -2.028,-7.012 -0.251,0.157 -0.507,0.317 -0.77,0.484 -7.024,4.453 -16.051,11.087 -24.802,18.224 -8.938,7.316 -16.976,14.606 -22.655,20.548 -6.669,6.979 -7.677,9.63 -7.5,10.184 0.104,0.129 0.206,0.259 0.311,0.386 0.032,0.002 0.063,0.003 0.093,0.003 0.526,0 1.299,-0.198 2.297,-0.59 l 0.27,0.689 c -0.829,0.325 -1.511,0.524 -2.065,0.602 6.547,7.6 15.692,12.902 26.043,14.51 -1.043,-0.452 -2.081,-1.011 -3.083,-1.662 z M 59.392,75.785 59.298,75.052 c 1.138,-0.147 2.279,-0.323 3.393,-0.524 l 0.131,0.728 c -1.126,0.203 -2.28,0.381 -3.43,0.529 z m 10.997,-37.506 0.509,0.536 c -0.81,0.77 -1.66,1.566 -2.524,2.364 l -0.502,-0.543 c 0.862,-0.796 1.709,-1.589 2.517,-2.357 z m -0.786,34.602 0.212,0.708 c -1.09,0.327 -2.219,0.631 -3.353,0.903 L 66.29,73.773 c 1.121,-0.269 2.236,-0.569 3.313,-0.892 z m -4.462,-29.757 0.495,0.55 c -0.842,0.757 -1.711,1.529 -2.584,2.297 l -0.488,-0.555 c 0.87,-0.767 1.737,-1.537 2.577,-2.292 z m -5.368,4.715 0.482,0.561 c -0.868,0.746 -1.754,1.5 -2.633,2.24 l -0.476,-0.566 c 0.877,-0.739 1.761,-1.491 2.627,-2.235 z m -4.079,28.325 c -1.141,0.088 -2.307,0.15 -3.464,0.184 l -0.022,-0.739 c 1.146,-0.034 2.3,-0.095 3.43,-0.182 z M 52.921,53.579 c 0.465,-0.38 0.927,-0.76 1.386,-1.138 l 0.47,0.571 c -0.46,0.379 -0.923,0.76 -1.389,1.14 l -0.234,-0.286 0.234,0.287 c -0.465,0.38 -0.93,0.757 -1.392,1.132 L 51.531,54.71 c 0.462,-0.375 0.925,-0.752 1.39,-1.131 z m -4.275,3.44 0.459,0.58 c -0.916,0.726 -1.831,1.444 -2.72,2.133 l -0.454,-0.584 c 0.888,-0.689 1.801,-1.405 2.715,-2.129 z m -4.283,18.408 c 1.129,0.087 2.283,0.148 3.43,0.182 l -0.022,0.739 c -1.158,-0.034 -2.323,-0.096 -3.464,-0.184 z m -3.755,0.358 c -1.15,-0.148 -2.304,-0.326 -3.43,-0.529 l 0.131,-0.728 c 1.114,0.201 2.255,0.378 3.393,0.524 z m 2.393,-14.388 0.447,0.589 c -0.928,0.704 -1.859,1.402 -2.766,2.074 l -0.44,-0.594 c 0.905,-0.67 1.833,-1.366 2.759,-2.069 z m -11.598,8.335 0.413,0.614 c -0.992,0.667 -1.966,1.307 -2.892,1.901 l -0.399,-0.623 c 0.921,-0.591 1.89,-1.227 2.878,-1.892 z m -8.652,6.186 -0.348,-0.652 c 0.91,-0.486 1.915,-1.057 2.987,-1.697 l 0.379,0.635 c -1.082,0.646 -2.098,1.223 -3.018,1.714 z m 3.904,-3.512 c -1.099,-0.409 -2.181,-0.853 -3.216,-1.318 l 0.304,-0.675 c 1.02,0.459 2.087,0.897 3.171,1.3 z M 26.243,70.36 C 25.895,69.274 25.571,68.151 25.28,67.023 l 0.716,-0.184 c 0.287,1.115 0.607,2.224 0.951,3.296 z m 2.644,6.693 c -0.491,-1.025 -0.959,-2.097 -1.391,-3.187 l 0.688,-0.273 c 0.426,1.074 0.887,2.13 1.37,3.14 z m 3.627,6.225 c -0.653,-0.924 -1.287,-1.91 -1.883,-2.93 l 0.639,-0.373 c 0.585,1.002 1.207,1.97 1.848,2.876 z m 1.024,-8.786 C 32.404,74.22 31.275,73.916 30.185,73.589 l 0.213,-0.708 c 1.077,0.323 2.192,0.623 3.313,0.892 z m 3.721,-8.845 0.432,0.6 c -0.955,0.688 -1.904,1.362 -2.82,2.002 l -0.424,-0.606 c 0.914,-0.638 1.86,-1.31 2.812,-1.996 z m 0.03,23.042 c -0.844,-0.752 -1.672,-1.586 -2.46,-2.479 l 0.554,-0.49 c 0.77,0.871 1.576,1.684 2.398,2.417 z"
           id="path409" />
        <path
           fill="none"
           d="m 18.725,30.467 c 2.745,-1.686 5.789,-3.121 9.055,-4.291 l -0.376,-0.149 c 0.433,-1.089 0.903,-2.161 1.396,-3.185 l 0.666,0.321 c -0.444,0.922 -0.867,1.884 -1.263,2.862 6.574,-2.294 14.033,-3.515 21.796,-3.515 7.622,0 14.985,1.208 21.52,3.479 C 67.064,14.728 59.57,7.214 51.049,6.867 50.7,6.858 50.351,6.853 50,6.853 c -2.259,0 -4.478,0.175 -6.645,0.512 l 0.28,0.658 C 42.624,8.454 41.619,8.987 40.647,9.61 L 40.248,8.987 C 41.226,8.361 42.237,7.822 43.256,7.382 25.377,10.2 11.113,24.039 7.657,41.702 9.785,37.496 13.539,33.652 18.725,30.467 Z m 18.533,-19.219 0.488,0.555 c -0.827,0.727 -1.639,1.534 -2.414,2.401 l -0.551,-0.493 c 0.795,-0.889 1.629,-1.717 2.477,-2.463 z m -4.808,5.382 0.602,0.43 c -0.646,0.903 -1.272,1.868 -1.86,2.867 l -0.637,-0.375 c 0.598,-1.017 1.236,-2 1.895,-2.922 z"
           id="path411" />
        <path
           fill="none"
           d="M 70.723,27.019 C 64.417,24.88 57.335,23.742 50,23.742 26.209,23.742 6.853,35.521 6.853,50 c 0,9.654 3.187,18.577 8.564,25.774 0.255,-0.677 0.704,-1.483 1.358,-2.436 0.783,-1.143 1.846,-2.481 3.17,-3.999 -0.982,-0.545 -1.931,-1.121 -2.822,-1.715 l 0.41,-0.615 c 0.917,0.611 1.897,1.204 2.912,1.763 0.774,-0.87 1.628,-1.794 2.563,-2.773 5.665,-5.928 13.656,-13.182 22.542,-20.467 l -10e-4,-10e-4 c 0.077,-0.063 0.153,-0.125 0.23,-0.187 0.083,-0.068 0.165,-0.135 0.248,-0.203 l 10e-4,0.001 c 8.826,-7.186 17.569,-13.603 24.669,-18.105 0.008,-0.007 0.017,-0.012 0.026,-0.018 z M 9.204,60.105 C 8.521,59.117 7.933,58.094 7.457,57.062 l 0.672,-0.31 c 0.458,0.993 1.024,1.979 1.683,2.932 z m 4.922,5.29 C 13.208,64.631 12.349,63.829 11.574,63.01 l 0.537,-0.509 c 0.755,0.797 1.592,1.579 2.488,2.324 z m 10.254,-28.892 0.726,0.14 c -0.213,1.111 -0.401,2.25 -0.556,3.386 l -0.733,-0.1 c 0.157,-1.15 0.347,-2.302 0.563,-3.426 z m -0.966,7.122 0.737,0.06 c -0.092,1.132 -0.156,2.286 -0.191,3.428 L 23.221,47.09 c 0.035,-1.154 0.1,-2.32 0.193,-3.465 z m -0.172,9.19 0.739,-0.029 c 0.044,1.143 0.117,2.296 0.216,3.427 l -0.737,0.065 c -0.1,-1.143 -0.174,-2.308 -0.218,-3.463 z m 1.218,10.58 c -0.22,-1.122 -0.414,-2.274 -0.577,-3.423 l 0.732,-0.104 c 0.161,1.136 0.353,2.275 0.571,3.385 z m 1.447,-30.34 -0.717,-0.183 c 0.289,-1.13 0.611,-2.253 0.959,-3.339 l 0.705,0.226 c -0.343,1.071 -0.662,2.18 -0.947,3.296 z"
           id="path413" />
        <path
           fill="none"
           d="m 69.358,18.733 c 1.288,2.167 2.424,4.52 3.403,7.021 2.628,-1.595 4.843,-2.788 6.603,-3.555 1.136,-0.495 2.057,-0.803 2.795,-0.93 C 76.07,14.46 67.858,9.589 58.571,7.71 c 4.038,2.138 7.728,5.875 10.787,11.023 z"
           id="path415" />
        <path
           fill="none"
           d="m 80.478,31.519 c -0.498,-0.304 -1.006,-0.599 -1.523,-0.886 -0.134,0.149 -0.269,0.298 -0.407,0.45 l -0.547,-0.498 c 0.096,-0.105 0.191,-0.21 0.285,-0.314 -1.488,-0.795 -3.048,-1.521 -4.67,-2.177 0.599,1.762 1.123,3.588 1.57,5.466 0.095,-0.097 0.191,-0.195 0.285,-0.291 l 0.531,0.515 c -0.202,0.208 -0.409,0.419 -0.618,0.632 1.099,4.917 1.675,10.177 1.675,15.586 0,7.629 -1.143,14.963 -3.29,21.453 0.849,-0.329 1.683,-0.677 2.489,-1.04 l 0.303,0.675 c -0.999,0.449 -2.042,0.878 -3.102,1.275 -1.123,3.209 -2.494,6.202 -4.101,8.905 -3.06,5.148 -6.749,8.885 -10.787,11.023 C 78.27,88.304 93.147,70.857 93.147,50 c 0,-6.933 -4.5,-13.497 -12.669,-18.481 z m -0.58,37.908 -0.356,-0.648 c 1.019,-0.561 2.004,-1.156 2.925,-1.77 l 0.41,0.615 c -0.939,0.625 -1.942,1.232 -2.979,1.803 z m 5.976,-4.032 -0.473,-0.569 c 0.896,-0.746 1.733,-1.528 2.488,-2.324 l 0.537,0.509 c -0.775,0.817 -1.633,1.619 -2.552,2.384 z m 4.314,-5.711 c 0.659,-0.954 1.226,-1.94 1.683,-2.932 l 0.672,0.31 c -0.475,1.03 -1.063,2.054 -1.746,3.042 z"
           id="path417" />
        <path
           fill="#ffffff"
           d="m 94.379,50 c 0,-10.727 -3.826,-20.578 -10.185,-28.259 l 0.007,-0.006 C 84.165,21.691 84.125,21.651 84.084,21.612 76.158,12.111 64.344,5.961 51.11,5.635 50.884,5.626 50.657,5.621 50.43,5.621 V 5.626 C 50.288,5.625 50.144,5.621 50,5.621 25.529,5.621 5.621,25.529 5.621,50 c 0,10.473 3.649,20.108 9.739,27.707 0.035,0.061 0.075,0.119 0.12,0.175 l 0.012,-0.01 C 23.635,87.933 36.078,94.379 50,94.379 c 0.144,0 0.288,-0.004 0.431,-0.005 v 0.005 c 0.227,0 0.454,-0.005 0.68,-0.014 C 75.071,93.773 94.379,74.099 94.379,50 Z M 80.26,27.995 c -0.35,0.424 -0.729,0.868 -1.132,1.329 -1.772,-0.96 -3.643,-1.827 -5.599,-2.593 7.896,-4.778 9.488,-4.335 9.693,-4.231 0.095,0.115 0.188,0.231 0.282,0.347 -0.058,0.393 -0.304,1.072 -1.05,2.225 l 0.621,0.402 c 0.483,-0.746 0.815,-1.378 1.002,-1.907 4.083,5.251 6.979,11.466 8.287,18.24 -2.145,-4.235 -5.959,-8.116 -11.242,-11.339 -0.436,-0.266 -0.88,-0.524 -1.33,-0.777 0.368,-0.423 0.716,-0.831 1.04,-1.223 z M 46.027,45.141 v 0 c -0.083,0.067 -0.166,0.135 -0.248,0.202 -0.077,0.062 -0.153,0.124 -0.23,0.187 l 10e-4,10e-4 C 36.664,52.816 28.674,60.07 23.008,65.998 22.073,66.976 21.219,67.901 20.445,68.771 19.43,68.212 18.45,67.619 17.533,67.008 l -0.41,0.615 c 0.891,0.594 1.84,1.169 2.822,1.715 -1.324,1.518 -2.386,2.856 -3.17,3.999 -0.654,0.953 -1.103,1.759 -1.358,2.436 C 10.041,68.577 6.853,59.654 6.853,50 6.853,35.521 26.208,23.742 50,23.742 c 7.335,0 14.417,1.138 20.723,3.277 -0.009,0.006 -0.018,0.011 -0.027,0.017 -7.1,4.501 -15.843,10.919 -24.669,18.105 z M 82.16,21.269 c -0.738,0.127 -1.659,0.435 -2.795,0.93 -1.76,0.767 -3.975,1.96 -6.603,3.555 C 71.783,23.253 70.647,20.9 69.359,18.733 66.299,13.585 62.61,9.848 58.572,7.71 67.858,9.589 76.07,14.46 82.16,21.269 Z M 43.256,7.382 c -1.018,0.44 -2.03,0.979 -3.008,1.605 L 40.647,9.61 C 41.619,8.988 42.624,8.454 43.635,8.023 L 43.355,7.365 C 45.522,7.029 47.741,6.853 50,6.853 c 0.351,0 0.7,0.005 1.049,0.013 8.521,0.347 16.016,7.861 20.472,19.122 -6.535,-2.27 -13.898,-3.479 -21.52,-3.479 -7.764,0 -15.222,1.221 -21.796,3.515 0.396,-0.978 0.819,-1.94 1.263,-2.862 L 28.8,22.842 c -0.493,1.024 -0.963,2.096 -1.396,3.185 l 0.376,0.149 c -3.266,1.17 -6.31,2.605 -9.055,4.291 C 13.539,33.652 9.785,37.496 7.657,41.701 11.113,24.039 25.377,10.2 43.256,7.382 Z M 17.305,78.123 c 0.554,-0.078 1.235,-0.277 2.065,-0.602 L 19.1,76.832 c -0.998,0.391 -1.771,0.59 -2.297,0.59 -0.03,0 -0.061,-10e-4 -0.093,-0.003 -0.105,-0.127 -0.207,-0.257 -0.311,-0.386 -0.176,-0.554 0.831,-3.205 7.5,-10.184 5.679,-5.943 13.717,-13.233 22.655,-20.548 8.751,-7.137 17.778,-13.771 24.802,-18.224 0.263,-0.167 0.518,-0.327 0.77,-0.484 0.795,2.214 1.475,4.56 2.028,7.012 -0.364,0.365 -0.734,0.734 -1.111,1.106 l 0.519,0.527 c 0.263,-0.26 0.523,-0.517 0.78,-0.774 0.96,4.544 1.485,9.438 1.485,14.536 0,23.44 -11.059,42.574 -24.778,43.133 -0.349,0.009 -0.698,0.014 -1.049,0.014 -2.261,0 -4.481,-0.176 -6.649,-0.513 l 0.293,-0.678 C 42.637,91.52 41.635,90.98 40.667,90.351 l -0.403,0.62 c 1.003,0.651 2.04,1.211 3.084,1.663 C 32.997,91.025 23.852,85.724 17.305,78.123 Z M 58.571,92.29 c 4.038,-2.138 7.727,-5.875 10.787,-11.023 1.607,-2.703 2.978,-5.695 4.101,-8.905 1.06,-0.397 2.103,-0.825 3.102,-1.275 l -0.303,-0.675 c -0.805,0.362 -1.64,0.71 -2.489,1.04 2.147,-6.49 3.29,-13.824 3.29,-21.453 0,-5.409 -0.575,-10.669 -1.675,-15.586 0.209,-0.213 0.415,-0.423 0.618,-0.632 l -0.531,-0.515 c -0.093,0.096 -0.19,0.194 -0.285,0.291 -0.447,-1.878 -0.971,-3.705 -1.57,-5.466 1.622,0.656 3.182,1.383 4.67,2.177 -0.094,0.104 -0.189,0.209 -0.285,0.314 l 0.547,0.498 c 0.138,-0.151 0.273,-0.301 0.407,-0.45 0.517,0.287 1.025,0.582 1.523,0.886 8.169,4.987 12.669,11.551 12.669,18.484 0,20.857 -14.877,38.304 -34.576,42.29 z"
           id="path419" />
        <path
           fill="#ffffff"
           d="m 7.458,57.062 c 0.476,1.031 1.063,2.055 1.747,3.043 L 9.813,59.684 C 9.154,58.732 8.588,57.745 8.13,56.752 Z"
           id="path421" />
        <path
           fill="#ffffff"
           d="m 30.185,73.589 c 1.091,0.327 2.219,0.631 3.353,0.903 l 0.172,-0.719 c -1.121,-0.268 -2.236,-0.569 -3.313,-0.892 z"
           id="path423" />
        <path
           fill="#ffffff"
           d="m 12.111,62.501 -0.537,0.509 c 0.775,0.818 1.634,1.62 2.552,2.385 l 0.473,-0.569 C 13.703,64.08 12.866,63.298 12.111,62.501 Z"
           id="path425" />
        <path
           fill="#ffffff"
           d="m 37.178,75.255 c 1.126,0.203 2.28,0.381 3.43,0.529 l 0.095,-0.733 C 39.565,74.904 38.424,74.728 37.31,74.527 Z"
           id="path427" />
        <path
           fill="#ffffff"
           d="m 47.793,75.609 c -1.146,-0.034 -2.3,-0.095 -3.43,-0.182 l -0.057,0.737 c 1.141,0.088 2.307,0.15 3.464,0.184 z"
           id="path429" />
        <path
           fill="#ffffff"
           d="m 23.439,71.088 c 1.035,0.466 2.117,0.909 3.216,1.318 l 0.258,-0.693 c -1.084,-0.403 -2.15,-0.841 -3.171,-1.3 z"
           id="path431" />
        <path
           fill="#ffffff"
           d="m 69.815,73.589 -0.212,-0.708 c -1.077,0.323 -2.192,0.623 -3.313,0.892 l 0.172,0.719 c 1.135,-0.272 2.263,-0.576 3.353,-0.903 z"
           id="path433" />
        <path
           fill="#ffffff"
           d="m 85.401,64.826 0.473,0.569 c 0.919,-0.764 1.777,-1.567 2.552,-2.385 l -0.537,-0.509 c -0.755,0.797 -1.592,1.579 -2.488,2.325 z"
           id="path435" />
        <path
           fill="#ffffff"
           d="m 59.297,75.051 0.094,0.733 c 1.15,-0.148 2.304,-0.326 3.43,-0.529 L 62.69,74.527 c -1.113,0.201 -2.255,0.378 -3.393,0.524 z"
           id="path437" />
        <path
           fill="#ffffff"
           d="m 52.23,76.348 c 1.158,-0.034 2.323,-0.096 3.464,-0.184 l -0.057,-0.737 c -1.129,0.087 -2.283,0.148 -3.43,0.182 z"
           id="path439" />
        <path
           fill="#ffffff"
           d="m 91.871,56.752 c -0.457,0.992 -1.024,1.978 -1.683,2.932 l 0.609,0.42 c 0.683,-0.989 1.271,-2.012 1.746,-3.042 z"
           id="path441" />
        <path
           fill="#ffffff"
           d="m 79.541,68.778 0.356,0.648 c 1.038,-0.571 2.04,-1.177 2.979,-1.803 l -0.41,-0.615 c -0.921,0.614 -1.905,1.21 -2.925,1.77 z"
           id="path443" />
        <path
           fill="#ffffff"
           d="m 25.106,36.642 -0.726,-0.14 c -0.216,1.124 -0.405,2.277 -0.563,3.426 l 0.733,0.1 c 0.155,-1.135 0.343,-2.275 0.556,-3.386 z"
           id="path445" />
        <path
           fill="#ffffff"
           d="m 24.151,43.685 -0.737,-0.06 c -0.093,1.145 -0.158,2.31 -0.193,3.465 l 0.739,0.023 c 0.035,-1.143 0.1,-2.296 0.191,-3.428 z"
           id="path447" />
        <path
           fill="#ffffff"
           d="m 33.052,17.061 -0.602,-0.43 c -0.659,0.921 -1.296,1.904 -1.896,2.922 l 0.637,0.375 c 0.589,-0.999 1.215,-1.964 1.861,-2.867 z"
           id="path449" />
        <path
           fill="#ffffff"
           d="m 25.19,32.872 0.717,0.183 c 0.285,-1.116 0.604,-2.225 0.947,-3.296 l -0.705,-0.226 c -0.347,1.085 -0.67,2.209 -0.959,3.339 z"
           id="path451" />
        <path
           fill="#ffffff"
           d="m 37.747,11.803 -0.488,-0.555 c -0.849,0.746 -1.682,1.575 -2.477,2.463 l 0.551,0.493 c 0.775,-0.866 1.587,-1.674 2.414,-2.401 z"
           id="path453" />
        <path
           fill="#ffffff"
           d="m 25.281,67.023 c 0.291,1.129 0.614,2.251 0.963,3.337 l 0.704,-0.226 c -0.344,-1.072 -0.664,-2.181 -0.951,-3.296 z"
           id="path455" />
        <path
           fill="#ffffff"
           d="m 30.631,80.348 c 0.596,1.021 1.229,2.007 1.883,2.93 l 0.604,-0.427 C 32.477,81.945 31.855,80.977 31.27,79.975 Z"
           id="path457" />
        <path
           fill="#ffffff"
           d="m 23.981,52.787 -0.739,0.029 c 0.045,1.155 0.118,2.32 0.218,3.463 l 0.737,-0.065 c -0.099,-1.132 -0.172,-2.285 -0.216,-3.427 z"
           id="path459" />
        <path
           fill="#ffffff"
           d="m 27.497,73.866 c 0.432,1.089 0.9,2.162 1.391,3.187 l 0.667,-0.319 c -0.483,-1.01 -0.944,-2.066 -1.37,-3.14 z"
           id="path461" />
        <path
           fill="#ffffff"
           d="m 23.883,59.972 c 0.163,1.149 0.357,2.3 0.577,3.423 l 0.726,-0.142 c -0.217,-1.11 -0.409,-2.249 -0.571,-3.385 z"
           id="path463" />
        <path
           fill="#ffffff"
           d="m 35.383,85.72 -0.554,0.49 c 0.789,0.893 1.617,1.727 2.46,2.479 l 0.492,-0.552 C 36.959,87.404 36.152,86.591 35.383,85.72 Z"
           id="path465" />
        <path
           fill="#ffffff"
           d="m 43.448,61.987 -0.447,-0.589 c -0.926,0.703 -1.854,1.399 -2.759,2.069 l 0.44,0.594 c 0.907,-0.672 1.838,-1.37 2.766,-2.074 z"
           id="path467" />
        <path
           fill="#ffffff"
           d="m 49.106,57.599 -0.459,-0.58 c -0.914,0.724 -1.827,1.441 -2.714,2.129 l 0.454,0.584 c 0.887,-0.69 1.802,-1.408 2.719,-2.133 z"
           id="path469" />
        <path
           fill="#ffffff"
           d="m 22.402,75.266 0.348,0.652 c 0.92,-0.491 1.936,-1.068 3.018,-1.714 l -0.379,-0.635 c -1.071,0.64 -2.076,1.211 -2.987,1.697 z"
           id="path471" />
        <path
           fill="#ffffff"
           d="m 51.996,55.284 c 0.463,-0.374 0.927,-0.752 1.392,-1.132 l -0.234,-0.287 0.234,0.286 c 0.466,-0.381 0.929,-0.761 1.389,-1.14 l -0.47,-0.571 c -0.459,0.379 -0.921,0.758 -1.386,1.138 v 0 c -0.465,0.38 -0.928,0.756 -1.39,1.13 z"
           id="path473" />
        <path
           fill="#ffffff"
           d="m 31.815,70.346 -0.413,-0.614 c -0.988,0.664 -1.957,1.301 -2.879,1.892 l 0.399,0.623 c 0.928,-0.594 1.901,-1.234 2.893,-1.901 z"
           id="path475" />
        <path
           fill="#ffffff"
           d="m 37.692,66.247 -0.432,-0.6 c -0.952,0.686 -1.898,1.358 -2.811,1.996 l 0.424,0.606 c 0.915,-0.64 1.864,-1.314 2.819,-2.002 z"
           id="path477" />
        <path
           fill="#ffffff"
           d="m 70.898,38.815 -0.509,-0.536 c -0.808,0.768 -1.655,1.561 -2.516,2.357 l 0.502,0.543 c 0.864,-0.798 1.713,-1.594 2.523,-2.364 z"
           id="path479" />
        <path
           fill="#ffffff"
           d="m 65.635,43.674 -0.495,-0.55 c -0.84,0.755 -1.707,1.526 -2.578,2.291 l 0.488,0.555 c 0.874,-0.767 1.744,-1.54 2.585,-2.296 z"
           id="path481" />
        <path
           fill="#ffffff"
           d="m 60.255,48.4 -0.482,-0.561 c -0.866,0.744 -1.75,1.496 -2.628,2.235 l 0.476,0.566 c 0.881,-0.74 1.767,-1.494 2.634,-2.24 z"
           id="path483" />
      </g>
    </g>
    <g
       aria-label="Disease"
       id="text34835"
       style="font-size:10.5833px;line-height:1.25;fill:#ffffff;stroke-width:0.264583">
      <path
         d="m 89.397567,98.843773 q 0,1.863637 0.817064,3.378417 0.807884,1.51478 2.157418,2.35021 0.936409,0.57837 2.093151,0.83543 1.147563,0.25705 3.029563,0.25705 h 3.451867 V 91.995123 h -3.415143 q -2.001349,0 -3.176452,0.293776 -1.184284,0.284595 -2.001349,0.789523 -1.395434,0.872146 -2.175776,2.322666 -0.780343,1.450517 -0.780343,3.442685 z m 1.900363,-0.02754 q 0,-1.606586 0.56001,-2.708246 0.560011,-1.101664 1.670849,-1.735119 0.807885,-0.459024 1.716755,-0.633454 0.908868,-0.183609 2.175776,-0.183609 h 1.707573 V 104.10419 H 97.42132 q -1.31281,0 -2.285943,-0.19279 -0.982313,-0.19279 -1.799378,-0.71608 -1.019034,-0.65181 -1.523962,-1.71675 -0.514107,-1.06494 -0.514107,-2.662341 z"
         id="path37901"
         style="stroke-width:0.470042" />
      <path
         d="m 84.743056,93.693515 h 1.946265 v -1.790196 h -1.946265 z m 0.110163,11.971365 h 1.725933 V 95.410267 h -1.725933 z"
         id="path37903"
         style="stroke-width:0.470042" />
      <path
         d="m 74.112045,102.70876 q 0,1.40461 1.165922,2.3043 1.156742,0.89969 3.16727,0.89969 1.138382,0 2.093153,-0.26623 0.945591,-0.27542 1.588227,-0.59674 v -1.93708 h -0.09181 q -0.817064,0.61509 -1.81774,0.98231 -1.000673,0.35805 -1.918723,0.35805 -1.13838,0 -1.781015,-0.36723 -0.642635,-0.36722 -0.642635,-1.15674 0,-0.60591 0.34886,-0.91805 0.348858,-0.31214 1.34035,-0.53247 0.36722,-0.0826 0.963953,-0.19279 0.587551,-0.11016 1.074117,-0.23869 1.349534,-0.35804 1.918724,-1.04658 0.560011,-0.697713 0.560011,-1.707568 0,-0.633453 -0.257054,-1.193464 -0.266235,-0.56001 -0.798703,-1.000674 -0.514109,-0.431482 -1.30363,-0.679356 -0.798704,-0.257055 -1.781016,-0.257055 -0.918051,0 -1.854461,0.229514 -0.94559,0.220331 -1.569864,0.541649 v 1.845279 h 0.09181 q 0.660997,-0.486566 1.606587,-0.817064 0.945592,-0.339678 1.854461,-0.339678 0.94559,0 1.597406,0.36722 0.651814,0.358038 0.651814,1.074117 0,0.633455 -0.394762,0.954771 -0.385579,0.321317 -1.248546,0.523289 -0.477385,0.110163 -1.064938,0.220331 -0.596731,0.110162 -0.991492,0.201972 -1.202645,0.275417 -1.854461,0.945587 -0.651814,0.67936 -0.651814,1.79938 z"
         id="path37905"
         style="stroke-width:0.470042" />
      <path
         d="m 63.058731,100.71659 h 7.555547 q 0,0.94559 -0.284596,1.65249 -0.284595,0.69772 -0.780342,1.14757 -0.477386,0.44066 -1.129201,0.66099 -0.660995,0.22033 -1.450518,0.22033 -1.046577,0 -2.102334,-0.41312 -1.064936,-0.4223 -1.51478,-0.82625 h -0.09181 v 1.88201 q 0.872146,0.36722 1.781015,0.61509 0.908868,0.24787 1.909544,0.24787 2.552177,0 3.984334,-1.37707 1.432156,-1.38626 1.432156,-3.92926 0,-2.515448 -1.367893,-3.993508 -1.377074,-1.47806 -3.617115,-1.47806 -2.074792,0 -3.194812,1.211824 -1.129201,1.211827 -1.129201,3.442686 z m 1.680031,-1.321988 q 0.0092,-1.358714 0.688537,-2.102333 0.670175,-0.74362 2.047249,-0.74362 1.386255,0 2.212499,0.817065 0.817065,0.817062 0.927231,2.028888 z"
         id="path37907"
         style="stroke-width:0.470042" />
      <path
         d="m 52.473618,105.66488 h 1.716752 v -1.09248 q 0.229512,0.15607 0.624273,0.44066 0.385582,0.27542 0.752802,0.44067 0.431482,0.21115 0.991492,0.34886 0.560012,0.14688 1.312811,0.14688 1.386256,0 2.350208,-0.91805 0.963951,-0.91805 0.963951,-2.34103 0,-1.16592 -0.495746,-1.882 -0.504928,-0.72526 -1.432157,-1.138376 -0.936411,-0.413123 -2.249222,-0.560011 -1.31281,-0.146883 -2.818412,-0.220331 v -0.266234 q 0,-0.587554 0.211151,-0.973133 0.201971,-0.385581 0.587552,-0.605913 0.367219,-0.211152 0.881327,-0.284596 0.514109,-0.07344 1.074119,-0.07344 0.679355,0 1.514781,0.18361 0.835425,0.174439 1.725933,0.514108 h 0.09181 v -1.753475 q -0.504926,-0.1377 -1.459697,-0.302955 -0.954773,-0.165254 -1.882002,-0.165254 -1.083299,0 -1.882001,0.183611 -0.807883,0.174439 -1.395436,0.605912 -0.578371,0.422303 -0.881327,1.092479 -0.302955,0.670175 -0.302955,1.661669 z m 1.716752,-2.52464 v -2.85513 q 0.789523,0.0459 1.86364,0.1377 1.064939,0.0918 1.689211,0.26623 0.74362,0.21115 1.202644,0.661 0.459026,0.44066 0.459026,1.22101 0,0.88132 -0.532469,1.33117 -0.532469,0.44066 -1.624948,0.44066 -0.908869,0 -1.661668,-0.34886 -0.7528,-0.35804 -1.395436,-0.85378 z"
         id="path37909"
         style="stroke-width:0.470042" />
      <path
         d="m 41.824248,102.70876 q 0,1.40461 1.165917,2.3043 1.156744,0.89969 3.167277,0.89969 1.13838,0 2.093151,-0.26623 0.94559,-0.27542 1.588225,-0.59674 v -1.93708 h -0.09182 q -0.817063,0.61509 -1.817735,0.98231 -1.000671,0.35805 -1.918724,0.35805 -1.13838,0 -1.781016,-0.36723 -0.642635,-0.36722 -0.642635,-1.15674 0,-0.60591 0.348863,-0.91805 0.348854,-0.31214 1.340352,-0.53247 0.367218,-0.0826 0.963953,-0.19279 0.587546,-0.11016 1.074117,-0.23869 1.349526,-0.35804 1.918716,-1.04658 0.560017,-0.697713 0.560017,-1.707568 0,-0.633453 -0.257054,-1.193464 -0.266236,-0.56001 -0.798708,-1.000674 -0.514108,-0.431482 -1.303626,-0.679356 -0.798707,-0.257055 -1.781015,-0.257055 -0.918053,0 -1.854461,0.229514 -0.94559,0.220331 -1.569862,0.541649 v 1.845279 h 0.09181 q 0.66099,-0.486566 1.606588,-0.817064 0.94559,-0.339678 1.854453,-0.339678 0.945598,0 1.597407,0.36722 0.651817,0.358038 0.651817,1.074117 0,0.633455 -0.394763,0.954771 -0.385573,0.321317 -1.248544,0.523289 -0.477382,0.110163 -1.064935,0.220331 -0.596735,0.110162 -0.991498,0.201972 -1.202644,0.275417 -1.854453,0.945587 -0.651817,0.67936 -0.651817,1.79938 z"
         id="path37911"
         style="stroke-width:0.470042" />
      <path
         d="m 30.770932,100.71659 h 7.555539 q 0,0.94559 -0.284591,1.65249 -0.2846,0.69772 -0.780345,1.14757 -0.477381,0.44066 -1.129198,0.66099 -0.660999,0.22033 -1.450516,0.22033 -1.04658,0 -2.102334,-0.41312 -1.064945,-0.4223 -1.514785,-0.82625 h -0.0918 v 1.88201 q 0.87215,0.36722 1.781012,0.61509 0.908872,0.24787 1.909543,0.24787 2.552178,0 3.984339,-1.37707 1.432153,-1.38626 1.432153,-3.92926 0,-2.515448 -1.367889,-3.993508 -1.377079,-1.47806 -3.617113,-1.47806 -2.074797,0 -3.194815,1.211824 -1.1292,1.211827 -1.1292,3.442686 z m 1.680028,-1.321988 q 0.0092,-1.358714 0.688536,-2.102333 0.670172,-0.74362 2.047251,-0.74362 1.386253,0 2.212497,0.817065 0.817063,0.817062 0.927227,2.028888 z"
         id="path37913"
         style="stroke-width:0.470042" />
    </g>
  </g>
</svg>
