<?xml version="1.0" encoding="UTF-8" standalone="no"?>
<!-- Created with Inkscape (http://www.inkscape.org/) -->

<svg
   width="210mm"
   height="297mm"
   viewBox="0 0 210 296.99998"
   version="1.1"
   id="svg1158"
   inkscape:version="1.1.2 (b8e25be833, 2022-02-05)"
   sodipodi:docname="DiseaseClass_Icon.svg"
   inkscape:export-filename="C:\DatAR\Development\datar-hololens\Assets\DatAR\Design concepts\Icons\DiseaseClass_Icon.png"
   inkscape:export-xdpi="96"
   inkscape:export-ydpi="96"
   xmlns:inkscape="http://www.inkscape.org/namespaces/inkscape"
   xmlns:sodipodi="http://sodipodi.sourceforge.net/DTD/sodipodi-0.dtd"
   xmlns="http://www.w3.org/2000/svg"
   xmlns:svg="http://www.w3.org/2000/svg">
  <sodipodi:namedview
     id="namedview1160"
     pagecolor="#505050"
     bordercolor="#eeeeee"
     borderopacity="1"
     inkscape:pageshadow="0"
     inkscape:pageopacity="0"
     inkscape:pagecheckerboard="0"
     inkscape:document-units="mm"
     showgrid="false"
     scale-x="1.1"
     inkscape:zoom="1.466344"
     inkscape:cx="259.48891"
     inkscape:cy="295.97421"
     inkscape:window-width="1920"
     inkscape:window-height="1009"
     inkscape:window-x="-8"
     inkscape:window-y="-8"
     inkscape:window-maximized="1"
     inkscape:current-layer="layer1" />
  <defs
     id="defs1155">
    <rect
       x="143.54514"
       y="355.23129"
       width="216.53408"
       height="57.359478"
       id="rect2668" />
    <rect
       x="144.92315"
       y="355.22882"
       width="241.55195"
       height="73.959061"
       id="rect28450" />
    <rect
       x="144.92316"
       y="355.22882"
       width="233.96269"
       height="75.272372"
       id="rect5649" />
  </defs>
  <g
     inkscape:label="Laag 1"
     inkscape:groupmode="layer"
     id="layer1">
    <g
       style="fill:#ffffff"
       id="g533"
       transform="matrix(0,-0.65490295,0.65490295,0,31.916159,132.3466)">
      <g
         id="g485">
        <path
           fill="none"
           d="m 81.12,30.466 c 5.283,3.223 9.097,7.104 11.242,11.339 -1.308,-6.775 -4.204,-12.99 -8.287,-18.24 -0.187,0.529 -0.519,1.161 -1.002,1.907 L 82.452,25.07 c 0.746,-1.153 0.992,-1.832 1.05,-2.225 -0.094,-0.116 -0.187,-0.232 -0.282,-0.347 -0.204,-0.105 -1.796,-0.547 -9.693,4.231 1.956,0.766 3.827,1.633 5.599,2.593 0.403,-0.461 0.782,-0.905 1.132,-1.329 l 0.57,0.471 c -0.324,0.392 -0.671,0.8 -1.04,1.223 0.452,0.256 0.896,0.514 1.332,0.779 z"
           id="path407" />
        <path
           fill="none"
           d="m 40.264,90.971 0.403,-0.62 c 0.969,0.629 1.97,1.169 2.977,1.605 l -0.293,0.678 c 2.168,0.337 4.388,0.513 6.649,0.513 0.351,0 0.7,-0.005 1.049,-0.013 C 64.767,92.574 75.826,73.44 75.826,50 c 0,-5.098 -0.525,-9.992 -1.485,-14.536 -0.257,0.257 -0.516,0.514 -0.78,0.774 l -0.519,-0.527 c 0.377,-0.372 0.747,-0.741 1.111,-1.106 -0.553,-2.452 -1.233,-4.798 -2.028,-7.012 -0.251,0.157 -0.507,0.317 -0.77,0.484 -7.024,4.453 -16.051,11.087 -24.802,18.224 -8.938,7.316 -16.976,14.606 -22.655,20.548 -6.669,6.979 -7.677,9.63 -7.5,10.184 0.104,0.129 0.206,0.259 0.311,0.386 0.032,0.002 0.063,0.003 0.093,0.003 0.526,0 1.299,-0.198 2.297,-0.59 l 0.27,0.689 c -0.829,0.325 -1.511,0.524 -2.065,0.602 6.547,7.6 15.692,12.902 26.043,14.51 -1.043,-0.452 -2.081,-1.011 -3.083,-1.662 z M 59.392,75.785 59.298,75.052 c 1.138,-0.147 2.279,-0.323 3.393,-0.524 l 0.131,0.728 c -1.126,0.203 -2.28,0.381 -3.43,0.529 z m 10.997,-37.506 0.509,0.536 c -0.81,0.77 -1.66,1.566 -2.524,2.364 l -0.502,-0.543 c 0.862,-0.796 1.709,-1.589 2.517,-2.357 z m -0.786,34.602 0.212,0.708 c -1.09,0.327 -2.219,0.631 -3.353,0.903 L 66.29,73.773 c 1.121,-0.269 2.236,-0.569 3.313,-0.892 z m -4.462,-29.757 0.495,0.55 c -0.842,0.757 -1.711,1.529 -2.584,2.297 l -0.488,-0.555 c 0.87,-0.767 1.737,-1.537 2.577,-2.292 z m -5.368,4.715 0.482,0.561 c -0.868,0.746 -1.754,1.5 -2.633,2.24 l -0.476,-0.566 c 0.877,-0.739 1.761,-1.491 2.627,-2.235 z m -4.079,28.325 c -1.141,0.088 -2.307,0.15 -3.464,0.184 l -0.022,-0.739 c 1.146,-0.034 2.3,-0.095 3.43,-0.182 z M 52.921,53.579 c 0.465,-0.38 0.927,-0.76 1.386,-1.138 l 0.47,0.571 c -0.46,0.379 -0.923,0.76 -1.389,1.14 l -0.234,-0.286 0.234,0.287 c -0.465,0.38 -0.93,0.757 -1.392,1.132 L 51.531,54.71 c 0.462,-0.375 0.925,-0.752 1.39,-1.131 z m -4.275,3.44 0.459,0.58 c -0.916,0.726 -1.831,1.444 -2.72,2.133 l -0.454,-0.584 c 0.888,-0.689 1.801,-1.405 2.715,-2.129 z m -4.283,18.408 c 1.129,0.087 2.283,0.148 3.43,0.182 l -0.022,0.739 c -1.158,-0.034 -2.323,-0.096 -3.464,-0.184 z m -3.755,0.358 c -1.15,-0.148 -2.304,-0.326 -3.43,-0.529 l 0.131,-0.728 c 1.114,0.201 2.255,0.378 3.393,0.524 z m 2.393,-14.388 0.447,0.589 c -0.928,0.704 -1.859,1.402 -2.766,2.074 l -0.44,-0.594 c 0.905,-0.67 1.833,-1.366 2.759,-2.069 z m -11.598,8.335 0.413,0.614 c -0.992,0.667 -1.966,1.307 -2.892,1.901 l -0.399,-0.623 c 0.921,-0.591 1.89,-1.227 2.878,-1.892 z m -8.652,6.186 -0.348,-0.652 c 0.91,-0.486 1.915,-1.057 2.987,-1.697 l 0.379,0.635 c -1.082,0.646 -2.098,1.223 -3.018,1.714 z m 3.904,-3.512 c -1.099,-0.409 -2.181,-0.853 -3.216,-1.318 l 0.304,-0.675 c 1.02,0.459 2.087,0.897 3.171,1.3 z M 26.243,70.36 C 25.895,69.274 25.571,68.151 25.28,67.023 l 0.716,-0.184 c 0.287,1.115 0.607,2.224 0.951,3.296 z m 2.644,6.693 c -0.491,-1.025 -0.959,-2.097 -1.391,-3.187 l 0.688,-0.273 c 0.426,1.074 0.887,2.13 1.37,3.14 z m 3.627,6.225 c -0.653,-0.924 -1.287,-1.91 -1.883,-2.93 l 0.639,-0.373 c 0.585,1.002 1.207,1.97 1.848,2.876 z m 1.024,-8.786 C 32.404,74.22 31.275,73.916 30.185,73.589 l 0.213,-0.708 c 1.077,0.323 2.192,0.623 3.313,0.892 z m 3.721,-8.845 0.432,0.6 c -0.955,0.688 -1.904,1.362 -2.82,2.002 l -0.424,-0.606 c 0.914,-0.638 1.86,-1.31 2.812,-1.996 z m 0.03,23.042 c -0.844,-0.752 -1.672,-1.586 -2.46,-2.479 l 0.554,-0.49 c 0.77,0.871 1.576,1.684 2.398,2.417 z"
           id="path409" />
        <path
           fill="none"
           d="m 18.725,30.467 c 2.745,-1.686 5.789,-3.121 9.055,-4.291 l -0.376,-0.149 c 0.433,-1.089 0.903,-2.161 1.396,-3.185 l 0.666,0.321 c -0.444,0.922 -0.867,1.884 -1.263,2.862 6.574,-2.294 14.033,-3.515 21.796,-3.515 7.622,0 14.985,1.208 21.52,3.479 C 67.064,14.728 59.57,7.214 51.049,6.867 50.7,6.858 50.351,6.853 50,6.853 c -2.259,0 -4.478,0.175 -6.645,0.512 l 0.28,0.658 C 42.624,8.454 41.619,8.987 40.647,9.61 L 40.248,8.987 C 41.226,8.361 42.237,7.822 43.256,7.382 25.377,10.2 11.113,24.039 7.657,41.702 9.785,37.496 13.539,33.652 18.725,30.467 Z m 18.533,-19.219 0.488,0.555 c -0.827,0.727 -1.639,1.534 -2.414,2.401 l -0.551,-0.493 c 0.795,-0.889 1.629,-1.717 2.477,-2.463 z m -4.808,5.382 0.602,0.43 c -0.646,0.903 -1.272,1.868 -1.86,2.867 l -0.637,-0.375 c 0.598,-1.017 1.236,-2 1.895,-2.922 z"
           id="path411" />
        <path
           fill="none"
           d="M 70.723,27.019 C 64.417,24.88 57.335,23.742 50,23.742 26.209,23.742 6.853,35.521 6.853,50 c 0,9.654 3.187,18.577 8.564,25.774 0.255,-0.677 0.704,-1.483 1.358,-2.436 0.783,-1.143 1.846,-2.481 3.17,-3.999 -0.982,-0.545 -1.931,-1.121 -2.822,-1.715 l 0.41,-0.615 c 0.917,0.611 1.897,1.204 2.912,1.763 0.774,-0.87 1.628,-1.794 2.563,-2.773 5.665,-5.928 13.656,-13.182 22.542,-20.467 l -10e-4,-10e-4 c 0.077,-0.063 0.153,-0.125 0.23,-0.187 0.083,-0.068 0.165,-0.135 0.248,-0.203 l 10e-4,0.001 c 8.826,-7.186 17.569,-13.603 24.669,-18.105 0.008,-0.007 0.017,-0.012 0.026,-0.018 z M 9.204,60.105 C 8.521,59.117 7.933,58.094 7.457,57.062 l 0.672,-0.31 c 0.458,0.993 1.024,1.979 1.683,2.932 z m 4.922,5.29 C 13.208,64.631 12.349,63.829 11.574,63.01 l 0.537,-0.509 c 0.755,0.797 1.592,1.579 2.488,2.324 z m 10.254,-28.892 0.726,0.14 c -0.213,1.111 -0.401,2.25 -0.556,3.386 l -0.733,-0.1 c 0.157,-1.15 0.347,-2.302 0.563,-3.426 z m -0.966,7.122 0.737,0.06 c -0.092,1.132 -0.156,2.286 -0.191,3.428 L 23.221,47.09 c 0.035,-1.154 0.1,-2.32 0.193,-3.465 z m -0.172,9.19 0.739,-0.029 c 0.044,1.143 0.117,2.296 0.216,3.427 l -0.737,0.065 c -0.1,-1.143 -0.174,-2.308 -0.218,-3.463 z m 1.218,10.58 c -0.22,-1.122 -0.414,-2.274 -0.577,-3.423 l 0.732,-0.104 c 0.161,1.136 0.353,2.275 0.571,3.385 z m 1.447,-30.34 -0.717,-0.183 c 0.289,-1.13 0.611,-2.253 0.959,-3.339 l 0.705,0.226 c -0.343,1.071 -0.662,2.18 -0.947,3.296 z"
           id="path413" />
        <path
           fill="none"
           d="m 69.358,18.733 c 1.288,2.167 2.424,4.52 3.403,7.021 2.628,-1.595 4.843,-2.788 6.603,-3.555 1.136,-0.495 2.057,-0.803 2.795,-0.93 C 76.07,14.46 67.858,9.589 58.571,7.71 c 4.038,2.138 7.728,5.875 10.787,11.023 z"
           id="path415" />
        <path
           fill="none"
           d="m 80.478,31.519 c -0.498,-0.304 -1.006,-0.599 -1.523,-0.886 -0.134,0.149 -0.269,0.298 -0.407,0.45 l -0.547,-0.498 c 0.096,-0.105 0.191,-0.21 0.285,-0.314 -1.488,-0.795 -3.048,-1.521 -4.67,-2.177 0.599,1.762 1.123,3.588 1.57,5.466 0.095,-0.097 0.191,-0.195 0.285,-0.291 l 0.531,0.515 c -0.202,0.208 -0.409,0.419 -0.618,0.632 1.099,4.917 1.675,10.177 1.675,15.586 0,7.629 -1.143,14.963 -3.29,21.453 0.849,-0.329 1.683,-0.677 2.489,-1.04 l 0.303,0.675 c -0.999,0.449 -2.042,0.878 -3.102,1.275 -1.123,3.209 -2.494,6.202 -4.101,8.905 -3.06,5.148 -6.749,8.885 -10.787,11.023 C 78.27,88.304 93.147,70.857 93.147,50 c 0,-6.933 -4.5,-13.497 -12.669,-18.481 z m -0.58,37.908 -0.356,-0.648 c 1.019,-0.561 2.004,-1.156 2.925,-1.77 l 0.41,0.615 c -0.939,0.625 -1.942,1.232 -2.979,1.803 z m 5.976,-4.032 -0.473,-0.569 c 0.896,-0.746 1.733,-1.528 2.488,-2.324 l 0.537,0.509 c -0.775,0.817 -1.633,1.619 -2.552,2.384 z m 4.314,-5.711 c 0.659,-0.954 1.226,-1.94 1.683,-2.932 l 0.672,0.31 c -0.475,1.03 -1.063,2.054 -1.746,3.042 z"
           id="path417" />
        <path
           fill="#ffffff"
           d="m 94.379,50 c 0,-10.727 -3.826,-20.578 -10.185,-28.259 l 0.007,-0.006 C 84.165,21.691 84.125,21.651 84.084,21.612 76.158,12.111 64.344,5.961 51.11,5.635 50.884,5.626 50.657,5.621 50.43,5.621 V 5.626 C 50.288,5.625 50.144,5.621 50,5.621 25.529,5.621 5.621,25.529 5.621,50 c 0,10.473 3.649,20.108 9.739,27.707 0.035,0.061 0.075,0.119 0.12,0.175 l 0.012,-0.01 C 23.635,87.933 36.078,94.379 50,94.379 c 0.144,0 0.288,-0.004 0.431,-0.005 v 0.005 c 0.227,0 0.454,-0.005 0.68,-0.014 C 75.071,93.773 94.379,74.099 94.379,50 Z M 80.26,27.995 c -0.35,0.424 -0.729,0.868 -1.132,1.329 -1.772,-0.96 -3.643,-1.827 -5.599,-2.593 7.896,-4.778 9.488,-4.335 9.693,-4.231 0.095,0.115 0.188,0.231 0.282,0.347 -0.058,0.393 -0.304,1.072 -1.05,2.225 l 0.621,0.402 c 0.483,-0.746 0.815,-1.378 1.002,-1.907 4.083,5.251 6.979,11.466 8.287,18.24 -2.145,-4.235 -5.959,-8.116 -11.242,-11.339 -0.436,-0.266 -0.88,-0.524 -1.33,-0.777 0.368,-0.423 0.716,-0.831 1.04,-1.223 z M 46.027,45.141 v 0 c -0.083,0.067 -0.166,0.135 -0.248,0.202 -0.077,0.062 -0.153,0.124 -0.23,0.187 l 10e-4,10e-4 C 36.664,52.816 28.674,60.07 23.008,65.998 22.073,66.976 21.219,67.901 20.445,68.771 19.43,68.212 18.45,67.619 17.533,67.008 l -0.41,0.615 c 0.891,0.594 1.84,1.169 2.822,1.715 -1.324,1.518 -2.386,2.856 -3.17,3.999 -0.654,0.953 -1.103,1.759 -1.358,2.436 C 10.041,68.577 6.853,59.654 6.853,50 6.853,35.521 26.208,23.742 50,23.742 c 7.335,0 14.417,1.138 20.723,3.277 -0.009,0.006 -0.018,0.011 -0.027,0.017 -7.1,4.501 -15.843,10.919 -24.669,18.105 z M 82.16,21.269 c -0.738,0.127 -1.659,0.435 -2.795,0.93 -1.76,0.767 -3.975,1.96 -6.603,3.555 C 71.783,23.253 70.647,20.9 69.359,18.733 66.299,13.585 62.61,9.848 58.572,7.71 67.858,9.589 76.07,14.46 82.16,21.269 Z M 43.256,7.382 c -1.018,0.44 -2.03,0.979 -3.008,1.605 L 40.647,9.61 C 41.619,8.988 42.624,8.454 43.635,8.023 L 43.355,7.365 C 45.522,7.029 47.741,6.853 50,6.853 c 0.351,0 0.7,0.005 1.049,0.013 8.521,0.347 16.016,7.861 20.472,19.122 -6.535,-2.27 -13.898,-3.479 -21.52,-3.479 -7.764,0 -15.222,1.221 -21.796,3.515 0.396,-0.978 0.819,-1.94 1.263,-2.862 L 28.8,22.842 c -0.493,1.024 -0.963,2.096 -1.396,3.185 l 0.376,0.149 c -3.266,1.17 -6.31,2.605 -9.055,4.291 C 13.539,33.652 9.785,37.496 7.657,41.701 11.113,24.039 25.377,10.2 43.256,7.382 Z M 17.305,78.123 c 0.554,-0.078 1.235,-0.277 2.065,-0.602 L 19.1,76.832 c -0.998,0.391 -1.771,0.59 -2.297,0.59 -0.03,0 -0.061,-10e-4 -0.093,-0.003 -0.105,-0.127 -0.207,-0.257 -0.311,-0.386 -0.176,-0.554 0.831,-3.205 7.5,-10.184 5.679,-5.943 13.717,-13.233 22.655,-20.548 8.751,-7.137 17.778,-13.771 24.802,-18.224 0.263,-0.167 0.518,-0.327 0.77,-0.484 0.795,2.214 1.475,4.56 2.028,7.012 -0.364,0.365 -0.734,0.734 -1.111,1.106 l 0.519,0.527 c 0.263,-0.26 0.523,-0.517 0.78,-0.774 0.96,4.544 1.485,9.438 1.485,14.536 0,23.44 -11.059,42.574 -24.778,43.133 -0.349,0.009 -0.698,0.014 -1.049,0.014 -2.261,0 -4.481,-0.176 -6.649,-0.513 l 0.293,-0.678 C 42.637,91.52 41.635,90.98 40.667,90.351 l -0.403,0.62 c 1.003,0.651 2.04,1.211 3.084,1.663 C 32.997,91.025 23.852,85.724 17.305,78.123 Z M 58.571,92.29 c 4.038,-2.138 7.727,-5.875 10.787,-11.023 1.607,-2.703 2.978,-5.695 4.101,-8.905 1.06,-0.397 2.103,-0.825 3.102,-1.275 l -0.303,-0.675 c -0.805,0.362 -1.64,0.71 -2.489,1.04 2.147,-6.49 3.29,-13.824 3.29,-21.453 0,-5.409 -0.575,-10.669 -1.675,-15.586 0.209,-0.213 0.415,-0.423 0.618,-0.632 l -0.531,-0.515 c -0.093,0.096 -0.19,0.194 -0.285,0.291 -0.447,-1.878 -0.971,-3.705 -1.57,-5.466 1.622,0.656 3.182,1.383 4.67,2.177 -0.094,0.104 -0.189,0.209 -0.285,0.314 l 0.547,0.498 c 0.138,-0.151 0.273,-0.301 0.407,-0.45 0.517,0.287 1.025,0.582 1.523,0.886 8.169,4.987 12.669,11.551 12.669,18.484 0,20.857 -14.877,38.304 -34.576,42.29 z"
           id="path419"
           style="fill:#ffffff" />
        <path
           fill="#ffffff"
           d="m 7.458,57.062 c 0.476,1.031 1.063,2.055 1.747,3.043 L 9.813,59.684 C 9.154,58.732 8.588,57.745 8.13,56.752 Z"
           id="path421"
           style="fill:#ffffff" />
        <path
           fill="#ffffff"
           d="m 30.185,73.589 c 1.091,0.327 2.219,0.631 3.353,0.903 l 0.172,-0.719 c -1.121,-0.268 -2.236,-0.569 -3.313,-0.892 z"
           id="path423"
           style="fill:#ffffff" />
        <path
           fill="#ffffff"
           d="m 12.111,62.501 -0.537,0.509 c 0.775,0.818 1.634,1.62 2.552,2.385 l 0.473,-0.569 C 13.703,64.08 12.866,63.298 12.111,62.501 Z"
           id="path425"
           style="fill:#ffffff" />
        <path
           fill="#ffffff"
           d="m 37.178,75.255 c 1.126,0.203 2.28,0.381 3.43,0.529 l 0.095,-0.733 C 39.565,74.904 38.424,74.728 37.31,74.527 Z"
           id="path427"
           style="fill:#ffffff" />
        <path
           fill="#ffffff"
           d="m 47.793,75.609 c -1.146,-0.034 -2.3,-0.095 -3.43,-0.182 l -0.057,0.737 c 1.141,0.088 2.307,0.15 3.464,0.184 z"
           id="path429"
           style="fill:#ffffff" />
        <path
           fill="#ffffff"
           d="m 23.439,71.088 c 1.035,0.466 2.117,0.909 3.216,1.318 l 0.258,-0.693 c -1.084,-0.403 -2.15,-0.841 -3.171,-1.3 z"
           id="path431"
           style="fill:#ffffff" />
        <path
           fill="#ffffff"
           d="m 69.815,73.589 -0.212,-0.708 c -1.077,0.323 -2.192,0.623 -3.313,0.892 l 0.172,0.719 c 1.135,-0.272 2.263,-0.576 3.353,-0.903 z"
           id="path433"
           style="fill:#ffffff" />
        <path
           fill="#ffffff"
           d="m 85.401,64.826 0.473,0.569 c 0.919,-0.764 1.777,-1.567 2.552,-2.385 l -0.537,-0.509 c -0.755,0.797 -1.592,1.579 -2.488,2.325 z"
           id="path435"
           style="fill:#ffffff" />
        <path
           fill="#ffffff"
           d="m 59.297,75.051 0.094,0.733 c 1.15,-0.148 2.304,-0.326 3.43,-0.529 L 62.69,74.527 c -1.113,0.201 -2.255,0.378 -3.393,0.524 z"
           id="path437"
           style="fill:#ffffff" />
        <path
           fill="#ffffff"
           d="m 52.23,76.348 c 1.158,-0.034 2.323,-0.096 3.464,-0.184 l -0.057,-0.737 c -1.129,0.087 -2.283,0.148 -3.43,0.182 z"
           id="path439" />
        <path
           fill="#ffffff"
           d="m 91.871,56.752 c -0.457,0.992 -1.024,1.978 -1.683,2.932 l 0.609,0.42 c 0.683,-0.989 1.271,-2.012 1.746,-3.042 z"
           id="path441"
           style="fill:#ffffff" />
        <path
           fill="#ffffff"
           d="m 79.541,68.778 0.356,0.648 c 1.038,-0.571 2.04,-1.177 2.979,-1.803 l -0.41,-0.615 c -0.921,0.614 -1.905,1.21 -2.925,1.77 z"
           id="path443"
           style="fill:#ffffff" />
        <path
           fill="#ffffff"
           d="m 25.106,36.642 -0.726,-0.14 c -0.216,1.124 -0.405,2.277 -0.563,3.426 l 0.733,0.1 c 0.155,-1.135 0.343,-2.275 0.556,-3.386 z"
           id="path445"
           style="fill:#ffffff" />
        <path
           fill="#ffffff"
           d="m 24.151,43.685 -0.737,-0.06 c -0.093,1.145 -0.158,2.31 -0.193,3.465 l 0.739,0.023 c 0.035,-1.143 0.1,-2.296 0.191,-3.428 z"
           id="path447"
           style="fill:#ffffff" />
        <path
           fill="#ffffff"
           d="m 33.052,17.061 -0.602,-0.43 c -0.659,0.921 -1.296,1.904 -1.896,2.922 l 0.637,0.375 c 0.589,-0.999 1.215,-1.964 1.861,-2.867 z"
           id="path449"
           style="fill:#ffffff" />
        <path
           fill="#ffffff"
           d="m 25.19,32.872 0.717,0.183 c 0.285,-1.116 0.604,-2.225 0.947,-3.296 l -0.705,-0.226 c -0.347,1.085 -0.67,2.209 -0.959,3.339 z"
           id="path451"
           style="fill:#ffffff" />
        <path
           fill="#ffffff"
           d="m 37.747,11.803 -0.488,-0.555 c -0.849,0.746 -1.682,1.575 -2.477,2.463 l 0.551,0.493 c 0.775,-0.866 1.587,-1.674 2.414,-2.401 z"
           id="path453"
           style="fill:#ffffff" />
        <path
           fill="#ffffff"
           d="m 25.281,67.023 c 0.291,1.129 0.614,2.251 0.963,3.337 l 0.704,-0.226 c -0.344,-1.072 -0.664,-2.181 -0.951,-3.296 z"
           id="path455"
           style="fill:#ffffff" />
        <path
           fill="#ffffff"
           d="m 30.631,80.348 c 0.596,1.021 1.229,2.007 1.883,2.93 l 0.604,-0.427 C 32.477,81.945 31.855,80.977 31.27,79.975 Z"
           id="path457"
           style="fill:#ffffff" />
        <path
           fill="#ffffff"
           d="m 23.981,52.787 -0.739,0.029 c 0.045,1.155 0.118,2.32 0.218,3.463 l 0.737,-0.065 c -0.099,-1.132 -0.172,-2.285 -0.216,-3.427 z"
           id="path459"
           style="fill:#ffffff" />
        <path
           fill="#ffffff"
           d="m 27.497,73.866 c 0.432,1.089 0.9,2.162 1.391,3.187 l 0.667,-0.319 c -0.483,-1.01 -0.944,-2.066 -1.37,-3.14 z"
           id="path461"
           style="fill:#ffffff" />
        <path
           fill="#ffffff"
           d="m 23.883,59.972 c 0.163,1.149 0.357,2.3 0.577,3.423 l 0.726,-0.142 c -0.217,-1.11 -0.409,-2.249 -0.571,-3.385 z"
           id="path463"
           style="fill:#ffffff" />
        <path
           fill="#ffffff"
           d="m 35.383,85.72 -0.554,0.49 c 0.789,0.893 1.617,1.727 2.46,2.479 l 0.492,-0.552 C 36.959,87.404 36.152,86.591 35.383,85.72 Z"
           id="path465"
           style="fill:#ffffff" />
        <path
           fill="#ffffff"
           d="m 43.448,61.987 -0.447,-0.589 c -0.926,0.703 -1.854,1.399 -2.759,2.069 l 0.44,0.594 c 0.907,-0.672 1.838,-1.37 2.766,-2.074 z"
           id="path467" />
        <path
           fill="#ffffff"
           d="m 49.106,57.599 -0.459,-0.58 c -0.914,0.724 -1.827,1.441 -2.714,2.129 l 0.454,0.584 c 0.887,-0.69 1.802,-1.408 2.719,-2.133 z"
           id="path469"
           style="fill:#ffffff" />
        <path
           fill="#ffffff"
           d="m 22.402,75.266 0.348,0.652 c 0.92,-0.491 1.936,-1.068 3.018,-1.714 l -0.379,-0.635 c -1.071,0.64 -2.076,1.211 -2.987,1.697 z"
           id="path471"
           style="fill:#ffffff" />
        <path
           fill="#ffffff"
           d="m 51.996,55.284 c 0.463,-0.374 0.927,-0.752 1.392,-1.132 l -0.234,-0.287 0.234,0.286 c 0.466,-0.381 0.929,-0.761 1.389,-1.14 l -0.47,-0.571 c -0.459,0.379 -0.921,0.758 -1.386,1.138 v 0 c -0.465,0.38 -0.928,0.756 -1.39,1.13 z"
           id="path473"
           style="fill:#000000" />
        <path
           fill="#ffffff"
           d="m 31.815,70.346 -0.413,-0.614 c -0.988,0.664 -1.957,1.301 -2.879,1.892 l 0.399,0.623 c 0.928,-0.594 1.901,-1.234 2.893,-1.901 z"
           id="path475"
           style="fill:#ffffff" />
        <path
           fill="#ffffff"
           d="m 37.692,66.247 -0.432,-0.6 c -0.952,0.686 -1.898,1.358 -2.811,1.996 l 0.424,0.606 c 0.915,-0.64 1.864,-1.314 2.819,-2.002 z"
           id="path477"
           style="fill:#ffffff" />
        <path
           fill="#ffffff"
           d="m 70.898,38.815 -0.509,-0.536 c -0.808,0.768 -1.655,1.561 -2.516,2.357 l 0.502,0.543 c 0.864,-0.798 1.713,-1.594 2.523,-2.364 z"
           id="path479"
           style="fill:#ffffff" />
        <path
           fill="#ffffff"
           d="m 65.635,43.674 -0.495,-0.55 c -0.84,0.755 -1.707,1.526 -2.578,2.291 l 0.488,0.555 c 0.874,-0.767 1.744,-1.54 2.585,-2.296 z"
           id="path481"
           style="fill:#ffffff" />
        <path
           fill="#ffffff"
           d="m 60.255,48.4 -0.482,-0.561 c -0.866,0.744 -1.75,1.496 -2.628,2.235 l 0.476,0.566 c 0.881,-0.74 1.767,-1.494 2.634,-2.24 z"
           id="path483"
           style="fill:#ffffff" />
      </g>
    </g>
    <g
       aria-label="Disease"
       transform="matrix(-0.41807317,0,0,0.41807317,158.02327,-57.436204)"
       id="text2666"
       style="font-size:40px;line-height:1.25;white-space:pre;shape-inside:url(#rect2668)">
      <path
         d="m 172.02148,377.21196 q 0,3.96485 -1.73828,7.1875 -1.71875,3.22266 -4.58984,5 -1.99219,1.23047 -4.45313,1.77735 -2.4414,0.54687 -6.44531,0.54687 h -7.34375 v -29.08203 h 7.26563 q 4.25781,0 6.75781,0.625 2.51953,0.60547 4.25781,1.67969 2.96875,1.85547 4.62891,4.9414 1.66015,3.08594 1.66015,7.32422 z m -4.04296,-0.0586 q 0,-3.41797 -1.19141,-5.76172 -1.19141,-2.34375 -3.55469,-3.69141 -1.71875,-0.97656 -3.65234,-1.34765 -1.9336,-0.39063 -4.62891,-0.39063 h -3.63281 v 22.44141 h 3.63281 q 2.79297,0 4.86328,-0.41016 2.08985,-0.41015 3.82813,-1.52343 2.16797,-1.38672 3.24219,-3.65235 1.09375,-2.26562 1.09375,-5.66406 z"
         style="fill:#ffffff"
         id="path6668" />
      <path
         d="m 181.92383,366.25493 h -4.14063 v -3.80859 h 4.14063 z m -0.23438,25.46875 h -3.67187 v -21.8164 h 3.67187 z"
         style="fill:#ffffff"
         id="path6670" />
      <path
         d="m 204.54102,385.43462 q 0,2.98828 -2.48047,4.90234 -2.46094,1.91407 -6.73828,1.91407 -2.42188,0 -4.45313,-0.56641 -2.01172,-0.58594 -3.37891,-1.26953 v -4.1211 h 0.19532 q 1.73828,1.3086 3.86718,2.08985 2.12891,0.76172 4.08204,0.76172 2.42187,0 3.78906,-0.78125 1.36719,-0.78125 1.36719,-2.46094 0,-1.28906 -0.74219,-1.95313 -0.74219,-0.66406 -2.85156,-1.13281 -0.78125,-0.17578 -2.05079,-0.41015 -1.25,-0.23438 -2.28515,-0.50782 -2.8711,-0.76172 -4.08203,-2.22656 -1.19141,-1.48437 -1.19141,-3.63281 0,-1.34766 0.54688,-2.53906 0.5664,-1.19141 1.69921,-2.12891 1.09375,-0.91797 2.77344,-1.44531 1.69922,-0.54688 3.78906,-0.54688 1.95313,0 3.94532,0.48828 2.01172,0.46875 3.33984,1.15235 v 3.92578 h -0.19531 q -1.40625,-1.03516 -3.41797,-1.73828 -2.01172,-0.72266 -3.94531,-0.72266 -2.01172,0 -3.39844,0.78125 -1.38672,0.76172 -1.38672,2.28516 0,1.34765 0.83984,2.03125 0.82032,0.68359 2.65625,1.11328 1.01563,0.23437 2.26563,0.46875 1.26953,0.23437 2.10937,0.42969 2.5586,0.58593 3.94532,2.01171 1.38672,1.44532 1.38672,3.82813 z"
         style="fill:#ffffff"
         id="path6672" />
      <path
         d="m 228.05664,381.19634 h -16.07422 q 0,2.01172 0.60547,3.51562 0.60547,1.48438 1.66016,2.44141 1.01562,0.9375 2.40234,1.40625 1.40625,0.46875 3.08594,0.46875 2.22656,0 4.47265,-0.87891 2.26563,-0.89843 3.22266,-1.75781 h 0.19531 v 4.00391 q -1.85547,0.78125 -3.78906,1.30859 -1.93359,0.52734 -4.0625,0.52734 -5.42969,0 -8.47656,-2.92968 -3.04688,-2.94922 -3.04688,-8.35938 0,-5.35156 2.91016,-8.49609 2.92969,-3.14453 7.69531,-3.14453 4.41406,0 6.79688,2.57812 2.40234,2.57813 2.40234,7.32422 z m -3.57422,-2.8125 q -0.0195,-2.89063 -1.46484,-4.47266 -1.42578,-1.58203 -4.35547,-1.58203 -2.94922,0 -4.70703,1.73828 -1.73828,1.73828 -1.97266,4.31641 z"
         style="fill:#ffffff"
         id="path6674" />
      <path
         d="m 250.57617,391.72368 h -3.65234 v -2.32422 q -0.48828,0.33203 -1.32813,0.9375 -0.82031,0.58594 -1.60156,0.9375 -0.91797,0.44922 -2.10937,0.74219 -1.19141,0.3125 -2.79297,0.3125 -2.94922,0 -5,-1.95312 -2.05078,-1.95313 -2.05078,-4.98047 0,-2.48047 1.05468,-4.00391 1.07422,-1.54297 3.04688,-2.42187 1.99219,-0.87891 4.78515,-1.19141 2.79297,-0.3125 5.9961,-0.46875 v -0.56641 q 0,-1.25 -0.44922,-2.07031 -0.42969,-0.82031 -1.25,-1.28906 -0.78125,-0.44922 -1.875,-0.60547 -1.09375,-0.15625 -2.28516,-0.15625 -1.44531,0 -3.22265,0.39062 -1.77735,0.3711 -3.67188,1.09375 h -0.19531 v -3.73046 q 1.07422,-0.29297 3.10547,-0.64454 2.03125,-0.35156 4.0039,-0.35156 2.30469,0 4.00391,0.39063 1.71875,0.37109 2.96875,1.28906 1.23047,0.89844 1.875,2.32422 0.64453,1.42578 0.64453,3.53515 z m -3.65234,-5.37109 v -6.07422 q -1.67969,0.0977 -3.96485,0.29297 -2.26562,0.19531 -3.59375,0.5664 -1.58203,0.44922 -2.55859,1.40625 -0.97656,0.9375 -0.97656,2.59766 0,1.875 1.13281,2.83203 1.13281,0.9375 3.45703,0.9375 1.9336,0 3.53516,-0.74219 1.60156,-0.76171 2.96875,-1.8164 z"
         style="fill:#ffffff"
         id="path6676" />
      <path
         d="m 273.23242,385.43462 q 0,2.98828 -2.48047,4.90234 -2.46093,1.91407 -6.73828,1.91407 -2.42187,0 -4.45312,-0.56641 -2.01172,-0.58594 -3.37891,-1.26953 v -4.1211 h 0.19531 q 1.73828,1.3086 3.86719,2.08985 2.12891,0.76172 4.08203,0.76172 2.42188,0 3.78906,-0.78125 1.36719,-0.78125 1.36719,-2.46094 0,-1.28906 -0.74219,-1.95313 -0.74218,-0.66406 -2.85156,-1.13281 -0.78125,-0.17578 -2.05078,-0.41015 -1.25,-0.23438 -2.28516,-0.50782 -2.87109,-0.76172 -4.08203,-2.22656 -1.1914,-1.48437 -1.1914,-3.63281 0,-1.34766 0.54687,-2.53906 0.56641,-1.19141 1.69922,-2.12891 1.09375,-0.91797 2.77344,-1.44531 1.69922,-0.54688 3.78906,-0.54688 1.95313,0 3.94531,0.48828 2.01172,0.46875 3.33985,1.15235 v 3.92578 h -0.19532 q -1.40625,-1.03516 -3.41796,-1.73828 -2.01172,-0.72266 -3.94532,-0.72266 -2.01172,0 -3.39843,0.78125 -1.38672,0.76172 -1.38672,2.28516 0,1.34765 0.83984,2.03125 0.82031,0.68359 2.65625,1.11328 1.01563,0.23437 2.26563,0.46875 1.26953,0.23437 2.10937,0.42969 2.55859,0.58593 3.94531,2.01171 1.38672,1.44532 1.38672,3.82813 z"
         style="fill:#ffffff"
         id="path6678" />
      <path
         d="m 296.74805,381.19634 h -16.07422 q 0,2.01172 0.60547,3.51562 0.60547,1.48438 1.66015,2.44141 1.01563,0.9375 2.40235,1.40625 1.40625,0.46875 3.08593,0.46875 2.22657,0 4.47266,-0.87891 2.26563,-0.89843 3.22266,-1.75781 h 0.19531 v 4.00391 q -1.85547,0.78125 -3.78906,1.30859 -1.9336,0.52734 -4.0625,0.52734 -5.42969,0 -8.47657,-2.92968 -3.04687,-2.94922 -3.04687,-8.35938 0,-5.35156 2.91016,-8.49609 2.92968,-3.14453 7.69531,-3.14453 4.41406,0 6.79687,2.57812 2.40235,2.57813 2.40235,7.32422 z m -3.57422,-2.8125 q -0.0195,-2.89063 -1.46485,-4.47266 -1.42578,-1.58203 -4.35546,-1.58203 -2.94922,0 -4.70704,1.73828 -1.73828,1.73828 -1.97265,4.31641 z"
         style="fill:#ffffff"
         id="path6680" />
    </g>
  </g>
</svg>
