<?xml version="1.0" encoding="UTF-8" standalone="no"?>
<!-- Created with Inkscape (http://www.inkscape.org/) -->

<svg
   width="210mm"
   height="297mm"
   viewBox="0 0 210 297"
   version="1.1"
   id="svg41036"
   inkscape:version="1.1.2 (b8e25be833, 2022-02-05)"
   sodipodi:docname="MinMax_Icon.svg"
   xmlns:inkscape="http://www.inkscape.org/namespaces/inkscape"
   xmlns:sodipodi="http://sodipodi.sourceforge.net/DTD/sodipodi-0.dtd"
   xmlns="http://www.w3.org/2000/svg"
   xmlns:svg="http://www.w3.org/2000/svg">
  <sodipodi:namedview
     id="namedview41038"
     pagecolor="#505050"
     bordercolor="#eeeeee"
     borderopacity="1"
     inkscape:pageshadow="0"
     inkscape:pageopacity="0"
     inkscape:pagecheckerboard="0"
     inkscape:document-units="mm"
     showgrid="false"
     inkscape:zoom="0.733172"
     inkscape:cx="396.22353"
     inkscape:cy="561.94181"
     inkscape:window-width="1920"
     inkscape:window-height="1009"
     inkscape:window-x="-8"
     inkscape:window-y="-8"
     inkscape:window-maximized="1"
     inkscape:current-layer="layer1" />
  <defs
     id="defs41033" />
  <g
     inkscape:label="Laag 1"
     inkscape:groupmode="layer"
     id="layer1">
    <g
       style="fill:#ffffff"
       id="g41149"
       transform="matrix(0,0.757923,0.757923,0,47.28553,53.54005)">
      <g
         id="g41137">
        <path
           d="m 85.1,46.3 h -7.6 c -1.6,-5.6 -6.7,-9.7 -12.7,-9.7 -6,0 -11.1,4.2 -12.8,9.7 H 14.9 c -2,0 -3.7,1.6 -3.7,3.7 0,2 1.6,3.7 3.7,3.7 H 52 c 1.6,5.6 6.7,9.7 12.7,9.7 6,0 11.1,-4.1 12.7,-9.7 H 85 c 2,0 3.7,-1.6 3.7,-3.7 0.1,-2 -1.5,-3.7 -3.6,-3.7 z M 64.8,56 c -3.2,0 -6,-2.6 -6,-6 0,-3.4 2.6,-6 6,-6 3.4,0 6,2.6 6,6 0,3.4 -2.8,6 -6,6 z"
           id="path41131" />
        <path
           d="m 14.9,24.4 h 7.9 c 1.6,5.6 6.7,9.7 12.7,9.7 6,0 11.1,-4.1 12.7,-9.7 h 36.9 c 2,0 3.7,-1.6 3.7,-3.7 0,-2.1 -1.6,-3.7 -3.7,-3.7 H 48.2 C 46.6,11.4 41.5,7.3 35.5,7.3 c -6,0 -11.1,4.1 -12.7,9.7 h -7.9 c -2,0 -3.7,1.6 -3.7,3.7 0,2.1 1.6,3.7 3.7,3.7 z m 20.6,-9.7 c 3.2,0 6,2.6 6,6 0,3.4 -2.6,6 -6,6 -3.4,0 -6,-2.8 -6,-6 0,-3.2 2.8,-6 6,-6 z"
           id="path41133" />
        <path
           d="M 85.1,75.6 H 48.2 C 46.6,70 41.5,65.9 35.5,65.9 c -6,0 -11.1,4.1 -12.7,9.7 h -7.9 c -2,0 -3.7,1.6 -3.7,3.7 0,2.1 1.6,3.7 3.7,3.7 h 7.9 c 1.6,5.6 6.7,9.7 12.7,9.7 6,0 11.1,-4.1 12.7,-9.7 h 36.9 c 2,0 3.7,-1.6 3.7,-3.7 0,-2.1 -1.6,-3.7 -3.7,-3.7 z m -49.6,9.7 c -3.2,0 -6,-2.6 -6,-6 0,-3.4 2.6,-6 6,-6 3.4,0 6,2.6 6,6 0,3.4 -2.8,6 -6,6 z"
           id="path41135" />
      </g>
    </g>
  </g>
</svg>
