<?xml version="1.0" encoding="UTF-8" standalone="no"?>
<svg
   height="100px"
   width="100px"
   fill="#ffffff"
   version="1.1"
   x="0px"
   y="0px"
   viewBox="0 0 100 100"
   enable-background="new 0 0 100 100"
   xml:space="preserve"
   id="svg19"
   sodipodi:docname="TopicModel_icon.svg"
   inkscape:version="1.1.2 (b8e25be833, 2022-02-05)"
   xmlns:inkscape="http://www.inkscape.org/namespaces/inkscape"
   xmlns:sodipodi="http://sodipodi.sourceforge.net/DTD/sodipodi-0.dtd"
   xmlns="http://www.w3.org/2000/svg"
   xmlns:svg="http://www.w3.org/2000/svg"><defs
     id="defs23" /><sodipodi:namedview
     id="namedview21"
     pagecolor="#505050"
     bordercolor="#eeeeee"
     borderopacity="1"
     inkscape:pageshadow="0"
     inkscape:pageopacity="0"
     inkscape:pagecheckerboard="0"
     showgrid="false"
     inkscape:zoom="8"
     inkscape:cx="49.9375"
     inkscape:cy="50"
     inkscape:window-width="1920"
     inkscape:window-height="1009"
     inkscape:window-x="-8"
     inkscape:window-y="-8"
     inkscape:window-maximized="1"
     inkscape:current-layer="svg19" /><path
     d="m 44.577261,40.339429 c 0,-4.826816 -3.943032,-8.769849 -8.769849,-8.769849 -4.826817,0 -8.769849,3.943033 -8.769849,8.769849 0,4.826816 3.943032,8.769848 8.769849,8.769848 4.826817,0 8.769849,-3.943032 8.769849,-8.769848 z m -8.769849,5.914548 c -3.263199,0 -5.914549,-2.651348 -5.914549,-5.914548 0,-3.263199 2.65135,-5.91455 5.914549,-5.91455 3.263199,0 5.914549,2.651351 5.914549,5.91455 0,3.2632 -2.65135,5.914548 -5.914549,5.914548 z M 34.787662,9.8828999 c 0.543867,-0.5438665 1.495633,-0.5438665 2.0395,0 l 4.486899,4.4868991 c 0.543866,0.543867 0.543866,1.495633 0,2.0395 -0.543865,0.543867 -1.495632,0.543867 -2.0395,0 l -1.971515,-1.971516 v 11.421199 c 0,0.815799 -0.679834,1.427648 -1.427651,1.427648 -0.8158,0 -1.427649,-0.679832 -1.427649,-1.427648 V 14.369799 l -1.971516,1.971517 c -0.271934,0.271933 -0.679835,0.4079 -1.019751,0.4079 -0.339916,0 -0.747816,-0.135967 -1.01975,-0.4079 -0.543866,-0.543867 -0.543866,-1.495633 0,-2.0395 z m 2.4474,45.0049601 v 11.421198 l 1.971517,-1.971516 c 0.543865,-0.543866 1.495632,-0.543866 2.039499,0 0.543866,0.543867 0.543866,1.495633 0,2.039498 l -4.486899,4.486901 c -0.271934,0.271933 -0.679834,0.4079 -1.01975,0.4079 -0.339916,0 -0.747817,-0.135967 -1.019751,-0.4079 L 30.232779,66.37704 c -0.543866,-0.543865 -0.543866,-1.495631 0,-2.039498 0.543867,-0.543866 1.495634,-0.543866 2.0395,0 l 1.971516,1.971516 V 54.88786 c 0,-0.8158 0.679834,-1.42765 1.42765,-1.42765 0.951767,0 1.563617,0.679832 1.563617,1.42765 z M 9.769799,34.832779 c 0.543868,-0.543866 1.495633,-0.543866 2.0395,0 0.543867,0.543867 0.543867,1.495634 0,2.0395 L 9.8377828,38.843795 H 21.258982 c 0.815799,0 1.427648,0.679834 1.427648,1.42765 0,0.8158 -0.679832,1.427651 -1.427648,1.427651 H 9.8377828 l 1.9715162,1.971515 c 0.543867,0.543867 0.543867,1.495634 0,2.039501 -0.271933,0.271933 -0.679834,0.407899 -1.01975,0.407899 -0.339916,0 -0.747817,-0.135966 -1.01975,-0.407899 l -4.4868991,-4.4869 c -0.5438665,-0.543867 -0.5438665,-1.495633 0,-2.0395 z m 40.586043,4.078999 H 61.77704 l -1.971515,-1.971515 c -0.543867,-0.543868 -0.543867,-1.495635 0,-2.0395 0.543867,-0.543866 1.495633,-0.543866 2.0395,0 l 4.4869,4.486899 c 0.543866,0.543867 0.543866,1.495633 0,2.0395 l -4.4869,4.486899 c -0.271934,0.271933 -0.679834,0.4079 -1.01975,0.4079 -0.339916,0 -0.747817,-0.135967 -1.01975,-0.4079 -0.543867,-0.543865 -0.543867,-1.495632 0,-2.0395 L 61.77704,41.903046 H 50.355842 c -0.8158,0 -1.427648,-0.679834 -1.427648,-1.427651 0,-0.951766 0.679832,-1.563617 1.427648,-1.563617 z M 26.493697,31.025713 c -0.271934,0.271933 -0.679833,0.407901 -1.019749,0.407901 -0.339918,0 -0.747817,-0.135968 -1.019751,-0.407901 l -8.022032,-8.022032 v 2.855301 c 0,0.815799 -0.679834,1.427648 -1.427651,1.427648 -0.747815,0 -1.427649,-0.679832 -1.427649,-1.427648 v -6.32245 c 0,-0.815799 0.679834,-1.427649 1.427649,-1.427649 h 6.32245 c 0.8158,0 1.42765,0.679832 1.42765,1.427649 0,0.815799 -0.679833,1.42765 -1.42765,1.42765 h -2.855299 l 8.090014,8.090015 c 0.543868,0.543867 0.543868,1.42765 -0.06798,1.971516 z m 18.62743,18.627432 c 0.543867,-0.543868 1.495633,-0.543868 2.0395,0 l 8.090015,8.090014 V 54.88786 c 0,-0.8158 0.679834,-1.42765 1.42765,-1.42765 0.815799,0 1.427649,0.679832 1.427649,1.42765 v 6.32245 c 0,0.815799 -0.679832,1.427649 -1.427649,1.427649 h -6.32245 c -0.8158,0 -1.427648,-0.679834 -1.427648,-1.427649 0,-0.747817 0.679832,-1.427651 1.427648,-1.427651 h 2.8553 l -8.090015,-8.090016 c -0.61185,-0.611849 -0.61185,-1.495633 0,-2.039498 z m -18.62743,2.039498 -8.022032,8.022033 h 2.855299 c 0.8158,0 1.42765,0.679833 1.42765,1.427649 0,0.747817 -0.679833,1.42765 -1.42765,1.42765 h -6.32245 c -0.815799,0 -1.427649,-0.679833 -1.427649,-1.42765 v -6.322448 c 0,-0.815802 0.679834,-1.42765 1.427649,-1.42765 0.747817,0 1.427651,0.679833 1.427651,1.42765 v 2.855298 l 8.090016,-8.090015 c 0.543866,-0.543865 1.495632,-0.543865 2.039498,0 0.543868,0.61185 0.543868,1.495634 -0.06798,2.107483 z m 18.62743,-22.706429 8.090015,-8.090016 h -2.8553 c -0.8158,0 -1.427648,-0.679833 -1.427648,-1.42765 0,-0.8158 0.679832,-1.427649 1.427648,-1.427649 h 6.32245 c 0.815799,0 1.427649,0.679834 1.427649,1.427649 v 6.322449 c 0,0.815801 -0.679832,1.42765 -1.427649,1.42765 -0.815799,0 -1.42765,-0.679833 -1.42765,-1.42765 v -2.855298 l -8.090015,8.090014 c -0.271934,0.271933 -0.679833,0.407901 -1.019751,0.407901 -0.339916,0 -0.747815,-0.135968 -1.019749,-0.407901 -0.61185,-0.543866 -0.61185,-1.427649 0,-2.039499 z"
     id="path17"
     style="stroke-width:0.679833" /></svg>
